<svg width="185" height="36" viewBox="0 0 185 36" fill="none" xmlns="http://www.w3.org/2000/svg">
<rect x="39.6063" y="8.10168" width="8.60038" height="6.74084" rx="3.37042" transform="rotate(135 39.6063 8.10168)" fill="#41BCFF"/>
<rect x="21.7377" y="25.9704" width="8.60038" height="6.74084" rx="3.37042" transform="rotate(135 21.7377 25.9704)" fill="#41BCFF"/>
<path fill-rule="evenodd" clip-rule="evenodd" d="M23.2339 15.1081C23.0597 15.2824 22.7771 15.2824 22.6028 15.1081C22.4286 14.9338 22.4286 14.6513 22.6029 14.477L29.6836 7.39625C31.0452 6.03463 31.0452 3.82701 29.6836 2.46539C28.322 1.10378 26.1144 1.10378 24.7527 2.4654L15.133 12.0852C13.6377 13.5804 13.6377 16.0047 15.133 17.4999L20.155 22.5219C21.5142 23.8811 23.7179 23.8811 25.0771 22.5219L27.2003 20.3987C27.3869 20.2121 27.6895 20.2121 27.8761 20.3987C28.0627 20.5853 28.0627 20.8879 27.8761 21.0745L20.8418 28.1088C19.4801 29.4704 19.4801 31.678 20.8418 33.0396C22.2034 34.4013 24.411 34.4013 25.7726 33.0396L35.6343 23.1779C36.9959 21.8163 36.9959 19.6087 35.6343 18.2471L33.1809 15.7937C33.1743 15.787 33.1635 15.787 33.1569 15.7937C33.1502 15.8003 33.1394 15.8003 33.1328 15.7937L30.3016 12.9626C28.9424 11.6033 26.7387 11.6033 25.3795 12.9626L23.2339 15.1081Z" fill="#FFC80B"/>
<path fill-rule="evenodd" clip-rule="evenodd" d="M41.8268 12.6131C40.4811 11.2673 38.2992 11.2673 36.9535 12.6131L36.8959 12.6706C35.5502 14.0164 35.5502 16.1982 36.8959 17.5439L37.7753 18.4233C39.1211 19.7691 39.1211 21.9509 37.7753 23.2966L36.896 24.176C35.5503 25.5217 35.5503 27.7035 36.896 29.0492L36.9536 29.1068C38.2993 30.4525 40.4811 30.4525 41.8269 29.1068L47.6371 23.2966C48.9828 21.9508 48.9828 19.769 47.6371 18.4233L45.1429 15.9291C45.1429 15.9291 45.1429 15.9291 45.1429 15.9291C45.1428 15.9291 45.1428 15.9291 45.1428 15.9291L41.8268 12.6131Z" fill="#E54671"/>
<path fill-rule="evenodd" clip-rule="evenodd" d="M12.2984 12.2527C10.9527 13.5984 10.9527 15.7802 12.2984 17.1259L13.1778 18.0054C14.5235 19.3511 14.5235 21.5329 13.1778 22.8786L13.1202 22.9362C11.7745 24.2819 9.59267 24.2819 8.24695 22.9362L4.93093 19.6202C4.93092 19.6202 4.9309 19.6202 4.93089 19.6202C4.93088 19.6202 4.93086 19.6202 4.93085 19.6202L2.43665 17.126C1.09093 15.7803 1.09093 13.5984 2.43665 12.2527L8.2469 6.44246C9.59261 5.09675 11.7745 5.09675 13.1202 6.44246L13.1778 6.50005C14.5235 7.84576 14.5235 10.0276 13.1778 11.3733L12.2984 12.2527Z" fill="#E54671"/>
<mask id="path-6-outside-1_361_188" maskUnits="userSpaceOnUse" x="52.0698" y="8.30637" width="131" height="20" fill="black">
<rect fill="white" x="52.0698" y="8.30637" width="131" height="20"/>
<path d="M62.3126 27.6004C60.9894 27.6004 59.756 27.388 58.6125 26.9633C57.4853 26.5222 56.5051 25.9015 55.672 25.101C54.8388 24.3005 54.1854 23.3612 53.7116 22.283C53.2542 21.2048 53.0255 20.0204 53.0255 18.7299C53.0255 17.4393 53.2542 16.2549 53.7116 15.1767C54.1854 14.0985 54.8388 13.1592 55.672 12.3587C56.5214 11.5583 57.5098 10.9456 58.637 10.5209C59.7642 10.0798 60.9976 9.85929 62.3371 9.85929C63.8237 9.85929 65.1633 10.1207 66.3558 10.6434C67.5647 11.1498 68.5776 11.9013 69.3944 12.8978L66.8459 15.2502C66.2578 14.5805 65.6044 14.0822 64.8856 13.7555C64.1668 13.4124 63.3827 13.2409 62.5332 13.2409C61.7327 13.2409 60.9976 13.3716 60.3278 13.633C59.658 13.8943 59.0781 14.2701 58.588 14.7602C58.0979 15.2502 57.714 15.8302 57.4363 16.5C57.1749 17.1697 57.0442 17.913 57.0442 18.7299C57.0442 19.5467 57.1749 20.29 57.4363 20.9597C57.714 21.6295 58.0979 22.2095 58.588 22.6996C59.0781 23.1896 59.658 23.5654 60.3278 23.8268C60.9976 24.0881 61.7327 24.2188 62.5332 24.2188C63.3827 24.2188 64.1668 24.0555 64.8856 23.7287C65.6044 23.3857 66.2578 22.8711 66.8459 22.185L69.3944 24.5374C68.5776 25.5339 67.5647 26.2935 66.3558 26.8163C65.1633 27.339 63.8156 27.6004 62.3126 27.6004ZM76.6438 27.5024C75.2389 27.5024 73.9892 27.2083 72.8947 26.6202C71.8165 26.0321 70.9588 25.2317 70.3217 24.2188C69.7009 23.1896 69.3906 22.0216 69.3906 20.7147C69.3906 19.3915 69.7009 18.2234 70.3217 17.2106C70.9588 16.1814 71.8165 15.3809 72.8947 14.8092C73.9892 14.2211 75.2389 13.927 76.6438 13.927C78.0324 13.927 79.274 14.2211 80.3685 14.8092C81.463 15.3809 82.3207 16.1732 82.9414 17.1861C83.5622 18.1989 83.8726 19.3751 83.8726 20.7147C83.8726 22.0216 83.5622 23.1896 82.9414 24.2188C82.3207 25.2317 81.463 26.0321 80.3685 26.6202C79.274 27.2083 78.0324 27.5024 76.6438 27.5024ZM76.6438 24.3658C77.2809 24.3658 77.8527 24.2188 78.3591 23.9248C78.8656 23.6307 79.2658 23.2141 79.5598 22.675C79.8539 22.1196 80.0009 21.4662 80.0009 20.7147C80.0009 19.9469 79.8539 19.2935 79.5598 18.7544C79.2658 18.2153 78.8656 17.7987 78.3591 17.5046C77.8527 17.2106 77.2809 17.0636 76.6438 17.0636C76.0067 17.0636 75.435 17.2106 74.9285 17.5046C74.4221 17.7987 74.0137 18.2153 73.7033 18.7544C73.4093 19.2935 73.2622 19.9469 73.2622 20.7147C73.2622 21.4662 73.4093 22.1196 73.7033 22.675C74.0137 23.2141 74.4221 23.6307 74.9285 23.9248C75.435 24.2188 76.0067 24.3658 76.6438 24.3658ZM91.5982 27.5024C90.3566 27.5024 89.2376 27.2247 88.2411 26.6693C87.2446 26.0975 86.4523 25.3052 85.8642 24.2923C85.2924 23.2795 85.0065 22.0869 85.0065 20.7147C85.0065 19.3261 85.2924 18.1254 85.8642 17.1126C86.4523 16.0997 87.2446 15.3156 88.2411 14.7602C89.2376 14.2047 90.3566 13.927 91.5982 13.927C92.709 13.927 93.681 14.172 94.5142 14.6621C95.3473 15.1522 95.9926 15.8955 96.45 16.892C96.9074 17.8885 97.1362 19.1628 97.1362 20.7147C97.1362 22.2503 96.9156 23.5245 96.4745 24.5374C96.0335 25.5339 95.3963 26.2772 94.5632 26.7673C93.7464 27.2574 92.758 27.5024 91.5982 27.5024ZM92.2598 24.3658C92.8806 24.3658 93.4442 24.2188 93.9506 23.9248C94.457 23.6307 94.8572 23.2141 95.1513 22.675C95.4617 22.1196 95.6169 21.4662 95.6169 20.7147C95.6169 19.9469 95.4617 19.2935 95.1513 18.7544C94.8572 18.2153 94.457 17.7987 93.9506 17.5046C93.4442 17.2106 92.8806 17.0636 92.2598 17.0636C91.6227 17.0636 91.0509 17.2106 90.5445 17.5046C90.0381 17.7987 89.6297 18.2153 89.3193 18.7544C89.0252 19.2935 88.8782 19.9469 88.8782 20.7147C88.8782 21.4662 89.0252 22.1196 89.3193 22.675C89.6297 23.2141 90.0381 23.6307 90.5445 23.9248C91.0509 24.2188 91.6227 24.3658 92.2598 24.3658ZM95.7149 27.3064V24.6109L95.7884 20.6902L95.5434 16.794V9.12416H99.366V27.3064H95.7149ZM108.221 27.5024C106.719 27.5024 105.395 27.2083 104.252 26.6202C103.125 26.0321 102.251 25.2317 101.63 24.2188C101.009 23.1896 100.699 22.0216 100.699 20.7147C100.699 19.3915 101.001 18.2234 101.605 17.2106C102.226 16.1814 103.067 15.3809 104.129 14.8092C105.191 14.2211 106.392 13.927 107.731 13.927C109.022 13.927 110.182 14.2047 111.211 14.7602C112.257 15.2992 113.082 16.0834 113.686 17.1126C114.29 18.1254 114.593 19.3425 114.593 20.7637C114.593 20.9107 114.584 21.0823 114.568 21.2783C114.552 21.458 114.535 21.6295 114.519 21.7929H103.811V19.563H112.51L111.039 20.2246C111.039 19.5385 110.901 18.9422 110.623 18.4358C110.345 17.9294 109.961 17.5373 109.471 17.2596C108.981 16.9655 108.409 16.8185 107.756 16.8185C107.102 16.8185 106.523 16.9655 106.016 17.2596C105.526 17.5373 105.142 17.9375 104.864 18.4603C104.587 18.9667 104.448 19.5712 104.448 20.2736V20.8617C104.448 21.5805 104.603 22.2176 104.913 22.7731C105.24 23.3122 105.689 23.7287 106.261 24.0228C106.849 24.3005 107.535 24.4394 108.32 24.4394C109.022 24.4394 109.635 24.3332 110.157 24.1208C110.696 23.9084 111.187 23.5899 111.628 23.1651L113.661 25.3705C113.057 26.0566 112.297 26.5876 111.383 26.9633C110.468 27.3227 109.414 27.5024 108.221 27.5024ZM125.371 27.6004C124.048 27.6004 122.814 27.388 121.671 26.9633C120.544 26.5222 119.564 25.9015 118.73 25.101C117.897 24.3005 117.244 23.3612 116.77 22.283C116.313 21.2048 116.084 20.0204 116.084 18.7299C116.084 17.4393 116.313 16.2549 116.77 15.1767C117.244 14.0985 117.897 13.1592 118.73 12.3587C119.58 11.5583 120.568 10.9456 121.695 10.5209C122.823 10.0798 124.056 9.85929 125.396 9.85929C126.882 9.85929 128.222 10.1207 129.414 10.6434C130.623 11.1498 131.636 11.9013 132.453 12.8978L129.904 15.2502C129.316 14.5805 128.663 14.0822 127.944 13.7555C127.225 13.4124 126.441 13.2409 125.592 13.2409C124.791 13.2409 124.056 13.3716 123.386 13.633C122.716 13.8943 122.136 14.2701 121.646 14.7602C121.156 15.2502 120.772 15.8302 120.495 16.5C120.233 17.1697 120.103 17.913 120.103 18.7299C120.103 19.5467 120.233 20.29 120.495 20.9597C120.772 21.6295 121.156 22.2095 121.646 22.6996C122.136 23.1896 122.716 23.5654 123.386 23.8268C124.056 24.0881 124.791 24.2188 125.592 24.2188C126.441 24.2188 127.225 24.0555 127.944 23.7287C128.663 23.3857 129.316 22.8711 129.904 22.185L132.453 24.5374C131.636 25.5339 130.623 26.2935 129.414 26.8163C128.222 27.339 126.874 27.6004 125.371 27.6004ZM134.374 27.3064V9.12416H138.197V27.3064H134.374ZM149.341 27.3064V24.7334L149.096 24.1698V19.563C149.096 18.7462 148.842 18.1091 148.336 17.6517C147.846 17.1942 147.086 16.9655 146.057 16.9655C145.355 16.9655 144.66 17.0799 143.974 17.3086C143.304 17.521 142.733 17.815 142.259 18.1908L140.887 15.5198C141.605 15.0134 142.471 14.6213 143.484 14.3436C144.497 14.0659 145.526 13.927 146.572 13.927C148.581 13.927 150.141 14.4008 151.252 15.3483C152.363 16.2958 152.918 17.7742 152.918 19.7835V27.3064H149.341ZM145.322 27.5024C144.293 27.5024 143.411 27.3309 142.676 26.9878C141.94 26.6284 141.377 26.1465 140.985 25.5421C140.593 24.9376 140.397 24.2597 140.397 23.5082C140.397 22.7241 140.584 22.0379 140.96 21.4498C141.352 20.8617 141.965 20.4043 142.798 20.0776C143.631 19.7345 144.718 19.563 146.057 19.563H149.561V21.7929H146.474C145.575 21.7929 144.954 21.9399 144.611 22.234C144.285 22.528 144.121 22.8956 144.121 23.3367C144.121 23.8268 144.309 24.2188 144.685 24.5129C145.077 24.7906 145.608 24.9294 146.278 24.9294C146.915 24.9294 147.487 24.7824 147.993 24.4884C148.499 24.178 148.867 23.7287 149.096 23.1406L149.684 24.9049C149.406 25.7544 148.9 26.3997 148.164 26.8408C147.429 27.2819 146.482 27.5024 145.322 27.5024ZM160.813 27.5024C159.686 27.5024 158.6 27.3717 157.554 27.1103C156.525 26.8326 155.708 26.4896 155.104 26.0811L156.378 23.3367C156.982 23.7124 157.693 24.0228 158.51 24.2678C159.343 24.4965 160.16 24.6109 160.96 24.6109C161.843 24.6109 162.463 24.5047 162.823 24.2923C163.198 24.08 163.386 23.7859 163.386 23.4102C163.386 23.0998 163.239 22.8711 162.945 22.7241C162.667 22.5607 162.292 22.4382 161.818 22.3565C161.344 22.2748 160.821 22.1931 160.25 22.1114C159.694 22.0298 159.131 21.9236 158.559 21.7929C157.987 21.6459 157.464 21.4335 156.991 21.1558C156.517 20.8781 156.133 20.5023 155.839 20.0286C155.561 19.5548 155.422 18.9422 155.422 18.1908C155.422 17.3576 155.659 16.6225 156.133 15.9854C156.623 15.3483 157.326 14.85 158.24 14.4906C159.155 14.1149 160.25 13.927 161.524 13.927C162.422 13.927 163.337 14.025 164.268 14.2211C165.2 14.4171 165.976 14.703 166.596 15.0787L165.322 17.7987C164.685 17.423 164.04 17.1697 163.386 17.0391C162.749 16.892 162.128 16.8185 161.524 16.8185C160.674 16.8185 160.054 16.9329 159.662 17.1616C159.27 17.3903 159.074 17.6843 159.074 18.0437C159.074 18.3705 159.212 18.6155 159.49 18.7789C159.784 18.9422 160.168 19.0729 160.642 19.1709C161.116 19.2689 161.63 19.3588 162.186 19.4405C162.757 19.5058 163.329 19.612 163.901 19.759C164.473 19.9061 164.987 20.1184 165.445 20.3961C165.918 20.6575 166.302 21.0251 166.596 21.4988C166.89 21.9563 167.037 22.5607 167.037 23.3122C167.037 24.129 166.792 24.8559 166.302 25.493C165.812 26.1138 165.102 26.6039 164.17 26.9633C163.256 27.3227 162.137 27.5024 160.813 27.5024ZM176.674 13.927C177.719 13.927 178.65 14.1394 179.467 14.5641C180.3 14.9725 180.954 15.6096 181.428 16.4755C181.901 17.3249 182.138 18.4195 182.138 19.759V27.3064H178.316V20.3471C178.316 19.2853 178.079 18.5011 177.605 17.9947C177.147 17.4883 176.494 17.2351 175.645 17.2351C175.04 17.2351 174.493 17.3658 174.003 17.6272C173.529 17.8722 173.153 18.2561 172.876 18.7789C172.614 19.3016 172.484 19.9714 172.484 20.7882V27.3064H168.661V9.12416H172.484V17.7742L171.626 16.6715C172.1 15.7893 172.778 15.1114 173.66 14.6376C174.542 14.1639 175.547 13.927 176.674 13.927Z"/>
</mask>
<path d="M62.3126 27.6004C60.9894 27.6004 59.756 27.388 58.6125 26.9633C57.4853 26.5222 56.5051 25.9015 55.672 25.101C54.8388 24.3005 54.1854 23.3612 53.7116 22.283C53.2542 21.2048 53.0255 20.0204 53.0255 18.7299C53.0255 17.4393 53.2542 16.2549 53.7116 15.1767C54.1854 14.0985 54.8388 13.1592 55.672 12.3587C56.5214 11.5583 57.5098 10.9456 58.637 10.5209C59.7642 10.0798 60.9976 9.85929 62.3371 9.85929C63.8237 9.85929 65.1633 10.1207 66.3558 10.6434C67.5647 11.1498 68.5776 11.9013 69.3944 12.8978L66.8459 15.2502C66.2578 14.5805 65.6044 14.0822 64.8856 13.7555C64.1668 13.4124 63.3827 13.2409 62.5332 13.2409C61.7327 13.2409 60.9976 13.3716 60.3278 13.633C59.658 13.8943 59.0781 14.2701 58.588 14.7602C58.0979 15.2502 57.714 15.8302 57.4363 16.5C57.1749 17.1697 57.0442 17.913 57.0442 18.7299C57.0442 19.5467 57.1749 20.29 57.4363 20.9597C57.714 21.6295 58.0979 22.2095 58.588 22.6996C59.0781 23.1896 59.658 23.5654 60.3278 23.8268C60.9976 24.0881 61.7327 24.2188 62.5332 24.2188C63.3827 24.2188 64.1668 24.0555 64.8856 23.7287C65.6044 23.3857 66.2578 22.8711 66.8459 22.185L69.3944 24.5374C68.5776 25.5339 67.5647 26.2935 66.3558 26.8163C65.1633 27.339 63.8156 27.6004 62.3126 27.6004ZM76.6438 27.5024C75.2389 27.5024 73.9892 27.2083 72.8947 26.6202C71.8165 26.0321 70.9588 25.2317 70.3217 24.2188C69.7009 23.1896 69.3906 22.0216 69.3906 20.7147C69.3906 19.3915 69.7009 18.2234 70.3217 17.2106C70.9588 16.1814 71.8165 15.3809 72.8947 14.8092C73.9892 14.2211 75.2389 13.927 76.6438 13.927C78.0324 13.927 79.274 14.2211 80.3685 14.8092C81.463 15.3809 82.3207 16.1732 82.9414 17.1861C83.5622 18.1989 83.8726 19.3751 83.8726 20.7147C83.8726 22.0216 83.5622 23.1896 82.9414 24.2188C82.3207 25.2317 81.463 26.0321 80.3685 26.6202C79.274 27.2083 78.0324 27.5024 76.6438 27.5024ZM76.6438 24.3658C77.2809 24.3658 77.8527 24.2188 78.3591 23.9248C78.8656 23.6307 79.2658 23.2141 79.5598 22.675C79.8539 22.1196 80.0009 21.4662 80.0009 20.7147C80.0009 19.9469 79.8539 19.2935 79.5598 18.7544C79.2658 18.2153 78.8656 17.7987 78.3591 17.5046C77.8527 17.2106 77.2809 17.0636 76.6438 17.0636C76.0067 17.0636 75.435 17.2106 74.9285 17.5046C74.4221 17.7987 74.0137 18.2153 73.7033 18.7544C73.4093 19.2935 73.2622 19.9469 73.2622 20.7147C73.2622 21.4662 73.4093 22.1196 73.7033 22.675C74.0137 23.2141 74.4221 23.6307 74.9285 23.9248C75.435 24.2188 76.0067 24.3658 76.6438 24.3658ZM91.5982 27.5024C90.3566 27.5024 89.2376 27.2247 88.2411 26.6693C87.2446 26.0975 86.4523 25.3052 85.8642 24.2923C85.2924 23.2795 85.0065 22.0869 85.0065 20.7147C85.0065 19.3261 85.2924 18.1254 85.8642 17.1126C86.4523 16.0997 87.2446 15.3156 88.2411 14.7602C89.2376 14.2047 90.3566 13.927 91.5982 13.927C92.709 13.927 93.681 14.172 94.5142 14.6621C95.3473 15.1522 95.9926 15.8955 96.45 16.892C96.9074 17.8885 97.1362 19.1628 97.1362 20.7147C97.1362 22.2503 96.9156 23.5245 96.4745 24.5374C96.0335 25.5339 95.3963 26.2772 94.5632 26.7673C93.7464 27.2574 92.758 27.5024 91.5982 27.5024ZM92.2598 24.3658C92.8806 24.3658 93.4442 24.2188 93.9506 23.9248C94.457 23.6307 94.8572 23.2141 95.1513 22.675C95.4617 22.1196 95.6169 21.4662 95.6169 20.7147C95.6169 19.9469 95.4617 19.2935 95.1513 18.7544C94.8572 18.2153 94.457 17.7987 93.9506 17.5046C93.4442 17.2106 92.8806 17.0636 92.2598 17.0636C91.6227 17.0636 91.0509 17.2106 90.5445 17.5046C90.0381 17.7987 89.6297 18.2153 89.3193 18.7544C89.0252 19.2935 88.8782 19.9469 88.8782 20.7147C88.8782 21.4662 89.0252 22.1196 89.3193 22.675C89.6297 23.2141 90.0381 23.6307 90.5445 23.9248C91.0509 24.2188 91.6227 24.3658 92.2598 24.3658ZM95.7149 27.3064V24.6109L95.7884 20.6902L95.5434 16.794V9.12416H99.366V27.3064H95.7149ZM108.221 27.5024C106.719 27.5024 105.395 27.2083 104.252 26.6202C103.125 26.0321 102.251 25.2317 101.63 24.2188C101.009 23.1896 100.699 22.0216 100.699 20.7147C100.699 19.3915 101.001 18.2234 101.605 17.2106C102.226 16.1814 103.067 15.3809 104.129 14.8092C105.191 14.2211 106.392 13.927 107.731 13.927C109.022 13.927 110.182 14.2047 111.211 14.7602C112.257 15.2992 113.082 16.0834 113.686 17.1126C114.29 18.1254 114.593 19.3425 114.593 20.7637C114.593 20.9107 114.584 21.0823 114.568 21.2783C114.552 21.458 114.535 21.6295 114.519 21.7929H103.811V19.563H112.51L111.039 20.2246C111.039 19.5385 110.901 18.9422 110.623 18.4358C110.345 17.9294 109.961 17.5373 109.471 17.2596C108.981 16.9655 108.409 16.8185 107.756 16.8185C107.102 16.8185 106.523 16.9655 106.016 17.2596C105.526 17.5373 105.142 17.9375 104.864 18.4603C104.587 18.9667 104.448 19.5712 104.448 20.2736V20.8617C104.448 21.5805 104.603 22.2176 104.913 22.7731C105.24 23.3122 105.689 23.7287 106.261 24.0228C106.849 24.3005 107.535 24.4394 108.32 24.4394C109.022 24.4394 109.635 24.3332 110.157 24.1208C110.696 23.9084 111.187 23.5899 111.628 23.1651L113.661 25.3705C113.057 26.0566 112.297 26.5876 111.383 26.9633C110.468 27.3227 109.414 27.5024 108.221 27.5024ZM125.371 27.6004C124.048 27.6004 122.814 27.388 121.671 26.9633C120.544 26.5222 119.564 25.9015 118.73 25.101C117.897 24.3005 117.244 23.3612 116.77 22.283C116.313 21.2048 116.084 20.0204 116.084 18.7299C116.084 17.4393 116.313 16.2549 116.77 15.1767C117.244 14.0985 117.897 13.1592 118.73 12.3587C119.58 11.5583 120.568 10.9456 121.695 10.5209C122.823 10.0798 124.056 9.85929 125.396 9.85929C126.882 9.85929 128.222 10.1207 129.414 10.6434C130.623 11.1498 131.636 11.9013 132.453 12.8978L129.904 15.2502C129.316 14.5805 128.663 14.0822 127.944 13.7555C127.225 13.4124 126.441 13.2409 125.592 13.2409C124.791 13.2409 124.056 13.3716 123.386 13.633C122.716 13.8943 122.136 14.2701 121.646 14.7602C121.156 15.2502 120.772 15.8302 120.495 16.5C120.233 17.1697 120.103 17.913 120.103 18.7299C120.103 19.5467 120.233 20.29 120.495 20.9597C120.772 21.6295 121.156 22.2095 121.646 22.6996C122.136 23.1896 122.716 23.5654 123.386 23.8268C124.056 24.0881 124.791 24.2188 125.592 24.2188C126.441 24.2188 127.225 24.0555 127.944 23.7287C128.663 23.3857 129.316 22.8711 129.904 22.185L132.453 24.5374C131.636 25.5339 130.623 26.2935 129.414 26.8163C128.222 27.339 126.874 27.6004 125.371 27.6004ZM134.374 27.3064V9.12416H138.197V27.3064H134.374ZM149.341 27.3064V24.7334L149.096 24.1698V19.563C149.096 18.7462 148.842 18.1091 148.336 17.6517C147.846 17.1942 147.086 16.9655 146.057 16.9655C145.355 16.9655 144.66 17.0799 143.974 17.3086C143.304 17.521 142.733 17.815 142.259 18.1908L140.887 15.5198C141.605 15.0134 142.471 14.6213 143.484 14.3436C144.497 14.0659 145.526 13.927 146.572 13.927C148.581 13.927 150.141 14.4008 151.252 15.3483C152.363 16.2958 152.918 17.7742 152.918 19.7835V27.3064H149.341ZM145.322 27.5024C144.293 27.5024 143.411 27.3309 142.676 26.9878C141.94 26.6284 141.377 26.1465 140.985 25.5421C140.593 24.9376 140.397 24.2597 140.397 23.5082C140.397 22.7241 140.584 22.0379 140.96 21.4498C141.352 20.8617 141.965 20.4043 142.798 20.0776C143.631 19.7345 144.718 19.563 146.057 19.563H149.561V21.7929H146.474C145.575 21.7929 144.954 21.9399 144.611 22.234C144.285 22.528 144.121 22.8956 144.121 23.3367C144.121 23.8268 144.309 24.2188 144.685 24.5129C145.077 24.7906 145.608 24.9294 146.278 24.9294C146.915 24.9294 147.487 24.7824 147.993 24.4884C148.499 24.178 148.867 23.7287 149.096 23.1406L149.684 24.9049C149.406 25.7544 148.9 26.3997 148.164 26.8408C147.429 27.2819 146.482 27.5024 145.322 27.5024ZM160.813 27.5024C159.686 27.5024 158.6 27.3717 157.554 27.1103C156.525 26.8326 155.708 26.4896 155.104 26.0811L156.378 23.3367C156.982 23.7124 157.693 24.0228 158.51 24.2678C159.343 24.4965 160.16 24.6109 160.96 24.6109C161.843 24.6109 162.463 24.5047 162.823 24.2923C163.198 24.08 163.386 23.7859 163.386 23.4102C163.386 23.0998 163.239 22.8711 162.945 22.7241C162.667 22.5607 162.292 22.4382 161.818 22.3565C161.344 22.2748 160.821 22.1931 160.25 22.1114C159.694 22.0298 159.131 21.9236 158.559 21.7929C157.987 21.6459 157.464 21.4335 156.991 21.1558C156.517 20.8781 156.133 20.5023 155.839 20.0286C155.561 19.5548 155.422 18.9422 155.422 18.1908C155.422 17.3576 155.659 16.6225 156.133 15.9854C156.623 15.3483 157.326 14.85 158.24 14.4906C159.155 14.1149 160.25 13.927 161.524 13.927C162.422 13.927 163.337 14.025 164.268 14.2211C165.2 14.4171 165.976 14.703 166.596 15.0787L165.322 17.7987C164.685 17.423 164.04 17.1697 163.386 17.0391C162.749 16.892 162.128 16.8185 161.524 16.8185C160.674 16.8185 160.054 16.9329 159.662 17.1616C159.27 17.3903 159.074 17.6843 159.074 18.0437C159.074 18.3705 159.212 18.6155 159.49 18.7789C159.784 18.9422 160.168 19.0729 160.642 19.1709C161.116 19.2689 161.63 19.3588 162.186 19.4405C162.757 19.5058 163.329 19.612 163.901 19.759C164.473 19.9061 164.987 20.1184 165.445 20.3961C165.918 20.6575 166.302 21.0251 166.596 21.4988C166.89 21.9563 167.037 22.5607 167.037 23.3122C167.037 24.129 166.792 24.8559 166.302 25.493C165.812 26.1138 165.102 26.6039 164.17 26.9633C163.256 27.3227 162.137 27.5024 160.813 27.5024ZM176.674 13.927C177.719 13.927 178.65 14.1394 179.467 14.5641C180.3 14.9725 180.954 15.6096 181.428 16.4755C181.901 17.3249 182.138 18.4195 182.138 19.759V27.3064H178.316V20.3471C178.316 19.2853 178.079 18.5011 177.605 17.9947C177.147 17.4883 176.494 17.2351 175.645 17.2351C175.04 17.2351 174.493 17.3658 174.003 17.6272C173.529 17.8722 173.153 18.2561 172.876 18.7789C172.614 19.3016 172.484 19.9714 172.484 20.7882V27.3064H168.661V9.12416H172.484V17.7742L171.626 16.6715C172.1 15.7893 172.778 15.1114 173.66 14.6376C174.542 14.1639 175.547 13.927 176.674 13.927Z" fill="#2A3034"/>
<path d="M58.6125 26.9633L58.5214 27.1962L58.5254 27.1977L58.6125 26.9633ZM55.672 25.101L55.4988 25.2813L55.4988 25.2813L55.672 25.101ZM53.7116 22.283L53.4814 22.3806L53.4827 22.3835L53.7116 22.283ZM53.7116 15.1767L53.4827 15.0761L53.4815 15.0791L53.7116 15.1767ZM55.672 12.3587L55.5005 12.1768L55.4988 12.1785L55.672 12.3587ZM58.637 10.5209L58.7251 10.7549L58.7281 10.7537L58.637 10.5209ZM66.3558 10.6434L66.2555 10.8724L66.2593 10.874L66.3558 10.6434ZM69.3944 12.8978L69.564 13.0815L69.7372 12.9216L69.5877 12.7393L69.3944 12.8978ZM66.8459 15.2502L66.6581 15.4152L66.8272 15.6078L67.0155 15.4339L66.8459 15.2502ZM64.8856 13.7555L64.7779 13.9811L64.7821 13.9831L64.8856 13.7555ZM58.588 14.7602L58.7648 14.9369L58.7648 14.9369L58.588 14.7602ZM57.4363 16.5L57.2053 16.4042L57.2034 16.4091L57.4363 16.5ZM57.4363 20.9597L57.2033 21.0507L57.2053 21.0555L57.4363 20.9597ZM58.588 22.6996L58.4112 22.8763L58.4112 22.8763L58.588 22.6996ZM64.8856 23.7287L64.9891 23.9564L64.9933 23.9544L64.8856 23.7287ZM66.8459 22.185L67.0155 22.0013L66.8249 21.8253L66.6561 22.0223L66.8459 22.185ZM69.3944 24.5374L69.5877 24.6959L69.7372 24.5136L69.564 24.3537L69.3944 24.5374ZM66.3558 26.8163L66.2566 26.5868L66.2555 26.5873L66.3558 26.8163ZM62.3126 27.3504C61.0166 27.3504 59.8129 27.1425 58.6995 26.7289L58.5254 27.1977C59.6991 27.6336 60.9622 27.8504 62.3126 27.8504V27.3504ZM58.7036 26.7305C57.6055 26.3008 56.6535 25.6974 55.8452 24.9207L55.4988 25.2813C56.3567 26.1055 57.3651 26.7437 58.5214 27.1961L58.7036 26.7305ZM55.8452 24.9207C55.0361 24.1433 54.4013 23.2312 53.9405 22.1824L53.4827 22.3835C53.9694 23.4911 54.6415 24.4577 55.4988 25.2813L55.8452 24.9207ZM53.9418 22.1853C53.4987 21.141 53.2755 19.9903 53.2755 18.7299H52.7755C52.7755 20.0505 53.0097 21.2685 53.4815 22.3806L53.9418 22.1853ZM53.2755 18.7299C53.2755 17.4694 53.4987 16.3187 53.9418 15.2744L53.4815 15.0791C53.0097 16.1912 52.7755 17.4092 52.7755 18.7299H53.2755ZM53.9405 15.2773C54.4013 14.2285 55.0361 13.3164 55.8452 12.539L55.4988 12.1785C54.6415 13.002 53.9694 13.9686 53.4827 15.0762L53.9405 15.2773ZM55.8434 12.5407C56.6681 11.7636 57.6279 11.1683 58.7251 10.7548L58.5488 10.287C57.3917 10.723 56.3748 11.3529 55.5005 12.1768L55.8434 12.5407ZM58.7281 10.7537C59.8233 10.3251 61.0254 10.1093 62.3371 10.1093V9.60929C60.9697 9.60929 59.7051 9.8345 58.5459 10.2881L58.7281 10.7537ZM62.3371 10.1093C63.7941 10.1093 65.0988 10.3653 66.2555 10.8724L66.4562 10.4145C65.2278 9.87599 63.8534 9.60929 62.3371 9.60929V10.1093ZM66.2593 10.874C67.4312 11.3649 68.4106 12.0919 69.201 13.0563L69.5877 12.7393C68.7446 11.7107 67.6983 10.9348 66.4524 10.4128L66.2593 10.874ZM69.2248 12.7141L66.6764 15.0665L67.0155 15.4339L69.564 13.0815L69.2248 12.7141ZM67.0338 15.0853C66.4253 14.3923 65.744 13.871 64.989 13.5279L64.7821 13.9831C65.4648 14.2933 66.0903 14.7686 66.6581 15.4152L67.0338 15.0853ZM64.9933 13.5299C64.2386 13.1697 63.4174 12.9909 62.5332 12.9909V13.4909C63.3479 13.4909 64.095 13.6551 64.7779 13.9811L64.9933 13.5299ZM62.5332 12.9909C61.7051 12.9909 60.9388 13.1262 60.2369 13.4001L60.4187 13.8658C61.0564 13.617 61.7603 13.4909 62.5332 13.4909V12.9909ZM60.2369 13.4001C59.5361 13.6735 58.9266 14.0679 58.4112 14.5834L58.7648 14.9369C59.2295 14.4722 59.7799 14.1151 60.4187 13.8658L60.2369 13.4001ZM58.4112 14.5834C57.8969 15.0977 57.495 15.7055 57.2053 16.4042L57.6672 16.5957C57.933 15.9548 58.2989 15.4028 58.7648 14.9369L58.4112 14.5834ZM57.2034 16.4091C56.9293 17.1115 56.7942 17.8861 56.7942 18.7299H57.2942C57.2942 17.9399 57.4205 17.228 57.6692 16.5908L57.2034 16.4091ZM56.7942 18.7299C56.7942 19.5736 56.9293 20.3482 57.2034 21.0506L57.6692 20.8689C57.4205 20.2317 57.2942 19.5198 57.2942 18.7299H56.7942ZM57.2053 21.0555C57.495 21.7542 57.8969 22.362 58.4112 22.8763L58.7648 22.5228C58.2989 22.0569 57.933 21.5049 57.6672 20.864L57.2053 21.0555ZM58.4112 22.8763C58.9266 23.3918 59.5361 23.7862 60.2369 24.0596L60.4187 23.5939C59.7799 23.3446 59.2295 22.9875 58.7648 22.5228L58.4112 22.8763ZM60.2369 24.0596C60.9388 24.3335 61.7051 24.4688 62.5332 24.4688V23.9688C61.7603 23.9688 61.0564 23.8427 60.4187 23.5939L60.2369 24.0596ZM62.5332 24.4688C63.4156 24.4688 64.2353 24.2989 64.989 23.9563L64.7821 23.5011C64.0982 23.812 63.3497 23.9688 62.5332 23.9688V24.4688ZM64.9933 23.9544C65.7475 23.5944 66.428 23.0567 67.0357 22.3477L66.6561 22.0223C66.0877 22.6855 65.4613 23.177 64.7779 23.5031L64.9933 23.9544ZM66.6764 22.3687L69.2248 24.7211L69.564 24.3537L67.0155 22.0013L66.6764 22.3687ZM69.201 24.3789C68.4101 25.3439 67.4298 26.0795 66.2566 26.5868L66.4551 27.0457C67.6997 26.5075 68.7451 25.7239 69.5877 24.6959L69.201 24.3789ZM66.2555 26.5873C65.0991 27.0942 63.7863 27.3504 62.3126 27.3504V27.8504C63.8448 27.8504 65.2275 27.5839 66.4562 27.0452L66.2555 26.5873ZM72.8947 26.6202L72.775 26.8397L72.7763 26.8405L72.8947 26.6202ZM70.3217 24.2188L70.1076 24.348L70.1101 24.3519L70.3217 24.2188ZM70.3217 17.2106L70.1091 17.079L70.1086 17.0799L70.3217 17.2106ZM72.8947 14.8092L73.0118 15.03L73.013 15.0294L72.8947 14.8092ZM80.3685 14.8092L80.2502 15.0294L80.2527 15.0307L80.3685 14.8092ZM82.9414 24.2188L83.1546 24.3495L83.1555 24.3479L82.9414 24.2188ZM80.3685 26.6202L80.2502 26.4L80.2502 26.4L80.3685 26.6202ZM78.3591 23.9248L78.4847 24.141L78.4847 24.141L78.3591 23.9248ZM79.5598 22.675L79.7793 22.7948L79.7808 22.792L79.5598 22.675ZM79.5598 18.7544L79.3404 18.8741L79.3404 18.8741L79.5598 18.7544ZM78.3591 17.5046L78.2336 17.7208L78.2336 17.7208L78.3591 17.5046ZM74.9285 17.5046L75.0541 17.7208L75.0541 17.7208L74.9285 17.5046ZM73.7033 18.7544L73.4866 18.6296L73.4838 18.6346L73.7033 18.7544ZM73.7033 22.675L73.4822 22.7921L73.4867 22.7998L73.7033 22.675ZM74.9285 23.9248L75.0541 23.7086L75.0541 23.7086L74.9285 23.9248ZM76.6438 27.2524C75.2747 27.2524 74.0666 26.9661 73.013 26.4L72.7763 26.8405C73.9118 27.4506 75.2031 27.7524 76.6438 27.7524V27.2524ZM73.0144 26.4008C71.9727 25.8326 71.1471 25.0614 70.5333 24.0857L70.1101 24.3519C70.7706 25.4019 71.6603 26.2317 72.775 26.8397L73.0144 26.4008ZM70.5358 24.0897C69.9406 23.1029 69.6406 21.9802 69.6406 20.7147H69.1406C69.1406 22.063 69.4613 23.2764 70.1076 24.3479L70.5358 24.0897ZM69.6406 20.7147C69.6406 19.4322 69.9409 18.3104 70.5349 17.3412L70.1086 17.0799C69.461 18.1365 69.1406 19.3508 69.1406 20.7147H69.6406ZM70.5343 17.3422C71.1479 16.351 71.9724 15.5812 73.0118 15.03L72.7775 14.5883C71.6605 15.1807 70.7698 16.0118 70.1092 17.079L70.5343 17.3422ZM73.013 15.0294C74.0666 14.4633 75.2747 14.177 76.6438 14.177V13.677C75.2031 13.677 73.9118 13.9789 72.7763 14.5889L73.013 15.0294ZM76.6438 14.177C77.9961 14.177 79.1961 14.463 80.2502 15.0294L80.4868 14.5889C79.3518 13.9791 78.0688 13.677 76.6438 13.677V14.177ZM80.2527 15.0307C81.3088 15.5824 82.1321 16.344 82.7283 17.3167L83.1546 17.0554C82.5092 16.0025 81.6172 15.1794 80.4842 14.5876L80.2527 15.0307ZM82.7283 17.3167C83.322 18.2854 83.6226 19.4152 83.6226 20.7147H84.1226C84.1226 19.3351 83.8024 18.1124 83.1546 17.0554L82.7283 17.3167ZM83.6226 20.7147C83.6226 21.9802 83.3226 23.1029 82.7274 24.0897L83.1555 24.3479C83.8018 23.2764 84.1226 22.063 84.1226 20.7147H83.6226ZM82.7283 24.0882C82.1317 25.0615 81.3076 25.8319 80.2502 26.4L80.4868 26.8405C81.6185 26.2324 82.5096 25.4018 83.1546 24.3495L82.7283 24.0882ZM80.2502 26.4C79.1961 26.9664 77.996 27.2524 76.6438 27.2524V27.7524C78.0688 27.7524 79.3518 27.4503 80.4868 26.8405L80.2502 26.4ZM76.6438 24.6158C77.321 24.6158 77.9368 24.4591 78.4847 24.141L78.2336 23.7086C77.7686 23.9786 77.2409 24.1158 76.6438 24.1158V24.6158ZM78.4847 24.141C79.0326 23.8228 79.4645 23.372 79.7793 22.7948L79.3404 22.5553C79.0671 23.0563 78.6985 23.4386 78.2336 23.7086L78.4847 24.141ZM79.7808 22.792C80.0973 22.1941 80.2509 21.499 80.2509 20.7147H79.7509C79.7509 21.4333 79.6105 22.0451 79.3389 22.5581L79.7808 22.792ZM80.2509 20.7147C80.2509 19.9154 80.0978 19.2185 79.7793 18.6346L79.3404 18.8741C79.61 19.3684 79.7509 19.9784 79.7509 20.7147H80.2509ZM79.7793 18.6346C79.4645 18.0574 79.0326 17.6066 78.4847 17.2884L78.2336 17.7208C78.6985 17.9908 79.0671 18.3731 79.3404 18.8741L79.7793 18.6346ZM78.4847 17.2884C77.9368 16.9703 77.321 16.8136 76.6438 16.8136V17.3136C77.2409 17.3136 77.7686 17.4508 78.2336 17.7208L78.4847 17.2884ZM76.6438 16.8136C75.9666 16.8136 75.3509 16.9703 74.803 17.2884L75.0541 17.7208C75.519 17.4508 76.0468 17.3136 76.6438 17.3136V16.8136ZM74.803 17.2884C74.2563 17.6058 73.8175 18.055 73.4867 18.6296L73.92 18.8791C74.2099 18.3755 74.5879 17.9915 75.0541 17.7208L74.803 17.2884ZM73.4838 18.6346C73.1653 19.2185 73.0122 19.9154 73.0122 20.7147H73.5122C73.5122 19.9784 73.6532 19.3684 73.9228 18.8741L73.4838 18.6346ZM73.0122 20.7147C73.0122 21.499 73.1658 22.1941 73.4824 22.792L73.9243 22.5581C73.6527 22.0451 73.5122 21.4333 73.5122 20.7147H73.0122ZM73.4867 22.7998C73.8175 23.3744 74.2563 23.8236 74.803 24.141L75.0541 23.7086C74.5879 23.4379 74.2099 23.0539 73.92 22.5503L73.4867 22.7998ZM74.803 24.141C75.3509 24.4591 75.9666 24.6158 76.6438 24.6158V24.1158C76.0468 24.1158 75.519 23.9786 75.0541 23.7086L74.803 24.141ZM88.2411 26.6693L88.1167 26.8861L88.1194 26.8876L88.2411 26.6693ZM85.8642 24.2923L85.6464 24.4152L85.648 24.4179L85.8642 24.2923ZM85.8642 17.1126L85.6479 16.987L85.6465 16.9897L85.8642 17.1126ZM88.2411 14.7602L88.1194 14.5418L88.1194 14.5418L88.2411 14.7602ZM94.5142 14.6621L94.6409 14.4466L94.6409 14.4466L94.5142 14.6621ZM96.45 16.892L96.6772 16.7877L96.6772 16.7877L96.45 16.892ZM96.4745 24.5374L96.7031 24.6386L96.7037 24.6372L96.4745 24.5374ZM94.5632 26.7673L94.4364 26.5518L94.4346 26.5529L94.5632 26.7673ZM93.9506 23.9248L93.8251 23.7086L93.8251 23.7086L93.9506 23.9248ZM95.1513 22.675L94.9331 22.5531L94.9318 22.5553L95.1513 22.675ZM95.1513 18.7544L94.9318 18.8741L94.9346 18.8791L95.1513 18.7544ZM93.9506 17.5046L93.8251 17.7208L93.8251 17.7208L93.9506 17.5046ZM90.5445 17.5046L90.67 17.7208L90.67 17.7208L90.5445 17.5046ZM89.3193 18.7544L89.1026 18.6296L89.0998 18.6346L89.3193 18.7544ZM89.3193 22.675L89.0982 22.7921L89.1026 22.7998L89.3193 22.675ZM90.5445 23.9248L90.67 23.7086L90.67 23.7086L90.5445 23.9248ZM95.7149 27.3064H95.4649V27.5564H95.7149V27.3064ZM95.7149 24.6109L95.4649 24.6062V24.6109H95.7149ZM95.7884 20.6902L96.0384 20.6949L96.0386 20.6847L96.0379 20.6745L95.7884 20.6902ZM95.5434 16.794H95.2934V16.8019L95.2939 16.8097L95.5434 16.794ZM95.5434 9.12416V8.87416H95.2934V9.12416H95.5434ZM99.366 9.12416H99.616V8.87416H99.366V9.12416ZM99.366 27.3064V27.5564H99.616V27.3064H99.366ZM91.5982 27.2524C90.3954 27.2524 89.3189 26.9838 88.3628 26.4509L88.1194 26.8876C89.1563 27.4656 90.3179 27.7524 91.5982 27.7524V27.2524ZM88.3655 26.4524C87.4078 25.9029 86.6469 25.1425 86.0804 24.1668L85.648 24.4179C86.2577 25.4679 87.0813 26.292 88.1167 26.8861L88.3655 26.4524ZM86.0819 24.1694C85.5348 23.2003 85.2565 22.0517 85.2565 20.7147H84.7565C84.7565 22.1222 85.05 23.3586 85.6465 24.4152L86.0819 24.1694ZM85.2565 20.7147C85.2565 19.3608 85.535 18.2041 86.0819 17.2355L85.6465 16.9897C85.0498 18.0467 84.7565 19.2914 84.7565 20.7147H85.2565ZM86.0804 17.2381C86.6465 16.263 87.4066 15.5115 88.3628 14.9785L88.1194 14.5418C87.0825 15.1197 86.258 15.9364 85.648 16.987L86.0804 17.2381ZM88.3628 14.9785C89.3189 14.4456 90.3954 14.177 91.5982 14.177V13.677C90.3179 13.677 89.1563 13.9638 88.1194 14.5418L88.3628 14.9785ZM91.5982 14.177C92.6712 14.177 93.5981 14.4133 94.3874 14.8776L94.6409 14.4466C93.7639 13.9308 92.7469 13.677 91.5982 13.677V14.177ZM94.3874 14.8776C95.1707 15.3384 95.7838 16.0398 96.2228 16.9963L96.6772 16.7877C96.2015 15.7512 95.5239 14.966 94.6409 14.4466L94.3874 14.8776ZM96.2228 16.9963C96.6603 17.9495 96.8862 19.1848 96.8862 20.7147H97.3862C97.3862 19.1407 97.1546 17.8276 96.6772 16.7877L96.2228 16.9963ZM96.8862 20.7147C96.8862 22.2285 96.6684 23.4659 96.2453 24.4376L96.7037 24.6372C97.1628 23.5831 97.3862 22.2721 97.3862 20.7147H96.8862ZM96.2459 24.4362C95.8232 25.3912 95.2189 26.0915 94.4364 26.5518L94.69 26.9828C95.5738 26.4628 96.2437 25.6765 96.7031 24.6386L96.2459 24.4362ZM94.4346 26.5529C93.6643 27.0151 92.7226 27.2524 91.5982 27.2524V27.7524C92.7935 27.7524 93.8285 27.4996 94.6918 26.9816L94.4346 26.5529ZM92.2598 24.6158C92.9219 24.6158 93.5293 24.4585 94.0761 24.141L93.8251 23.7086C93.3591 23.9791 92.8392 24.1158 92.2598 24.1158V24.6158ZM94.0761 24.141C94.6241 23.8228 95.0559 23.372 95.3708 22.7948L94.9318 22.5553C94.6586 23.0563 94.29 23.4386 93.8251 23.7086L94.0761 24.141ZM95.3695 22.797C95.7042 22.1981 95.8669 21.5011 95.8669 20.7147H95.3669C95.3669 21.4312 95.2191 22.0412 94.9331 22.5531L95.3695 22.797ZM95.8669 20.7147C95.8669 19.9133 95.7048 19.2146 95.368 18.6296L94.9346 18.8791C95.2186 19.3723 95.3669 19.9805 95.3669 20.7147H95.8669ZM95.3708 18.6346C95.0559 18.0574 94.6241 17.6066 94.0761 17.2884L93.8251 17.7208C94.29 17.9908 94.6586 18.3731 94.9318 18.8741L95.3708 18.6346ZM94.0761 17.2884C93.5293 16.9709 92.9219 16.8136 92.2598 16.8136V17.3136C92.8392 17.3136 93.3591 17.4503 93.8251 17.7208L94.0761 17.2884ZM92.2598 16.8136C91.5826 16.8136 90.9668 16.9703 90.419 17.2884L90.67 17.7208C91.135 17.4508 91.6628 17.3136 92.2598 17.3136V16.8136ZM90.419 17.2884C89.8723 17.6058 89.4334 18.055 89.1026 18.6296L89.5359 18.8791C89.8259 18.3755 90.2038 17.9915 90.67 17.7208L90.419 17.2884ZM89.0998 18.6346C88.7813 19.2185 88.6282 19.9154 88.6282 20.7147H89.1282C89.1282 19.9784 89.2691 19.3684 89.5387 18.8741L89.0998 18.6346ZM88.6282 20.7147C88.6282 21.499 88.7818 22.1941 89.0983 22.792L89.5402 22.5581C89.2686 22.0451 89.1282 21.4333 89.1282 20.7147H88.6282ZM89.1026 22.7998C89.4334 23.3744 89.8723 23.8236 90.419 24.141L90.67 23.7086C90.2038 23.4379 89.8259 23.0539 89.5359 22.5503L89.1026 22.7998ZM90.419 24.141C90.9668 24.4591 91.5826 24.6158 92.2598 24.6158V24.1158C91.6628 24.1158 91.135 23.9786 90.67 23.7086L90.419 24.141ZM95.9649 27.3064V24.6109H95.4649V27.3064H95.9649ZM95.9649 24.6156L96.0384 20.6949L95.5385 20.6855L95.4649 24.6062L95.9649 24.6156ZM96.0379 20.6745L95.7929 16.7783L95.2939 16.8097L95.5389 20.7059L96.0379 20.6745ZM95.7934 16.794V9.12416H95.2934V16.794H95.7934ZM95.5434 9.37416H99.366V8.87416H95.5434V9.37416ZM99.116 9.12416V27.3064H99.616V9.12416H99.116ZM99.366 27.0564H95.7149V27.5564H99.366V27.0564ZM104.252 26.6202L104.136 26.8419L104.137 26.8426L104.252 26.6202ZM101.63 24.2188L101.416 24.3479L101.417 24.3495L101.63 24.2188ZM101.605 17.2106L101.391 17.0815L101.391 17.0825L101.605 17.2106ZM104.129 14.8092L104.248 15.0293L104.25 15.0279L104.129 14.8092ZM111.211 14.7602L111.092 14.9802L111.096 14.9824L111.211 14.7602ZM113.686 17.1126L113.47 17.2392L113.471 17.2407L113.686 17.1126ZM114.568 21.2783L114.817 21.3009L114.817 21.2991L114.568 21.2783ZM114.519 21.7929V22.0429H114.745L114.768 21.8178L114.519 21.7929ZM103.811 21.7929H103.561V22.0429H103.811V21.7929ZM103.811 19.563V19.313H103.561V19.563H103.811ZM112.51 19.563L112.612 19.791L112.51 19.313V19.563ZM111.039 20.2246H110.789V20.6113L111.142 20.4526L111.039 20.2246ZM110.623 18.4358L110.404 18.556L110.404 18.556L110.623 18.4358ZM109.471 17.2596L109.343 17.474L109.348 17.4771L109.471 17.2596ZM106.016 17.2596L106.139 17.4771L106.142 17.4758L106.016 17.2596ZM104.864 18.4603L105.084 18.5805L105.085 18.5776L104.864 18.4603ZM104.913 22.7731L104.695 22.8951L104.7 22.9026L104.913 22.7731ZM106.261 24.0228L106.147 24.2452L106.154 24.2488L106.261 24.0228ZM110.157 24.1208L110.066 23.8882L110.063 23.8892L110.157 24.1208ZM111.628 23.1651L111.811 22.9956L111.638 22.8079L111.454 22.9851L111.628 23.1651ZM113.661 25.3705L113.849 25.5358L113.998 25.3667L113.845 25.201L113.661 25.3705ZM111.383 26.9633L111.474 27.196L111.478 27.1946L111.383 26.9633ZM108.221 27.2524C106.752 27.2524 105.469 26.965 104.366 26.3979L104.137 26.8426C105.322 27.4517 106.685 27.7524 108.221 27.7524V27.2524ZM104.367 26.3986C103.277 25.8299 102.438 25.0597 101.843 24.0882L101.417 24.3495C102.063 25.4036 102.972 26.2344 104.136 26.8419L104.367 26.3986ZM101.844 24.0897C101.249 23.1029 100.949 21.9802 100.949 20.7147H100.449C100.449 22.063 100.769 23.2764 101.416 24.3479L101.844 24.0897ZM100.949 20.7147C100.949 19.4309 101.241 18.3082 101.82 17.3387L101.391 17.0825C100.76 18.1386 100.449 19.352 100.449 20.7147H100.949ZM101.819 17.3397C102.417 16.349 103.225 15.5799 104.248 15.0293L104.011 14.589C102.91 15.182 102.035 16.0138 101.391 17.0815L101.819 17.3397ZM104.25 15.0279C105.271 14.4624 106.43 14.177 107.731 14.177V13.677C106.354 13.677 105.111 13.9798 104.008 14.5905L104.25 15.0279ZM107.731 14.177C108.985 14.177 110.103 14.4464 111.092 14.9802L111.33 14.5401C110.26 13.963 109.059 13.677 107.731 13.677V14.177ZM111.096 14.9824C112.099 15.4994 112.89 16.2501 113.47 17.2392L113.902 16.986C113.274 15.9166 112.414 15.0991 111.326 14.5379L111.096 14.9824ZM113.471 17.2407C114.048 18.2075 114.343 19.3783 114.343 20.7637H114.843C114.843 19.3066 114.533 18.0433 113.901 16.9845L113.471 17.2407ZM114.343 20.7637C114.343 20.9019 114.335 21.0663 114.319 21.2575L114.817 21.2991C114.834 21.0983 114.843 20.9195 114.843 20.7637H114.343ZM114.319 21.2557C114.303 21.4347 114.287 21.6055 114.27 21.768L114.768 21.8178C114.784 21.6536 114.801 21.4813 114.817 21.3009L114.319 21.2557ZM114.519 21.5429H103.811V22.0429H114.519V21.5429ZM104.061 21.7929V19.563H103.561V21.7929H104.061ZM103.811 19.813H112.51V19.313H103.811V19.813ZM112.407 19.335L110.937 19.9966L111.142 20.4526L112.612 19.791L112.407 19.335ZM111.289 20.2246C111.289 19.5044 111.144 18.8652 110.842 18.3156L110.404 18.556C110.658 19.0192 110.789 19.5726 110.789 20.2246H111.289ZM110.842 18.3156C110.543 17.7695 110.126 17.3433 109.594 17.0421L109.348 17.4771C109.797 17.7313 110.148 18.0892 110.404 18.556L110.842 18.3156ZM109.6 17.0452C109.066 16.7247 108.448 16.5685 107.756 16.5685V17.0685C108.371 17.0685 108.897 17.2064 109.343 17.474L109.6 17.0452ZM107.756 16.5685C107.064 16.5685 106.439 16.7247 105.891 17.0434L106.142 17.4758C106.606 17.2064 107.141 17.0685 107.756 17.0685V16.5685ZM105.893 17.0421C105.359 17.3445 104.942 17.7805 104.644 18.343L105.085 18.5776C105.342 18.0946 105.693 17.7301 106.139 17.4771L105.893 17.0421ZM104.645 18.3401C104.343 18.8905 104.198 19.5382 104.198 20.2736H104.698C104.698 19.6042 104.83 19.0429 105.084 18.5805L104.645 18.3401ZM104.198 20.2736V20.8617H104.698V20.2736H104.198ZM104.198 20.8617C104.198 21.6176 104.361 22.2977 104.695 22.895L105.132 22.6511C104.845 22.1376 104.698 21.5435 104.698 20.8617H104.198ZM104.7 22.9026C105.051 23.4821 105.535 23.9304 106.147 24.2451L106.375 23.8005C105.844 23.5271 105.429 23.1423 105.127 22.6435L104.7 22.9026ZM106.154 24.2488C106.782 24.5452 107.506 24.6894 108.32 24.6894V24.1894C107.565 24.1894 106.916 24.0558 106.368 23.7967L106.154 24.2488ZM108.32 24.6894C109.047 24.6894 109.692 24.5795 110.251 24.3524L110.063 23.8892C109.577 24.0868 108.997 24.1894 108.32 24.1894V24.6894ZM110.249 24.3534C110.82 24.1284 111.338 23.7913 111.801 23.3452L111.454 22.9851C111.035 23.3884 110.573 23.6885 110.066 23.8882L110.249 24.3534ZM111.444 23.3346L113.478 25.54L113.845 25.201L111.811 22.9956L111.444 23.3346ZM113.474 25.2053C112.897 25.8603 112.17 26.3697 111.288 26.7321L111.478 27.1946C112.425 26.8054 113.217 26.253 113.849 25.5358L113.474 25.2053ZM111.291 26.7306C110.411 27.0764 109.389 27.2524 108.221 27.2524V27.7524C109.439 27.7524 110.525 27.569 111.474 27.196L111.291 26.7306ZM121.671 26.9633L121.58 27.1962L121.584 27.1977L121.671 26.9633ZM118.73 25.101L118.557 25.2813L118.557 25.2813L118.73 25.101ZM116.77 22.283L116.54 22.3806L116.541 22.3835L116.77 22.283ZM116.77 15.1767L116.541 15.0761L116.54 15.0791L116.77 15.1767ZM118.73 12.3587L118.559 12.1768L118.557 12.1785L118.73 12.3587ZM121.695 10.5209L121.784 10.7549L121.787 10.7537L121.695 10.5209ZM129.414 10.6434L129.314 10.8724L129.318 10.874L129.414 10.6434ZM132.453 12.8978L132.622 13.0815L132.796 12.9216L132.646 12.7393L132.453 12.8978ZM129.904 15.2502L129.717 15.4152L129.886 15.6078L130.074 15.4339L129.904 15.2502ZM127.944 13.7555L127.836 13.9811L127.841 13.9831L127.944 13.7555ZM121.646 14.7602L121.823 14.9369L121.823 14.9369L121.646 14.7602ZM120.495 16.5L120.264 16.4042L120.262 16.4091L120.495 16.5ZM120.495 20.9597L120.262 21.0507L120.264 21.0555L120.495 20.9597ZM121.646 22.6996L121.47 22.8763L121.47 22.8763L121.646 22.6996ZM127.944 23.7287L128.047 23.9564L128.052 23.9544L127.944 23.7287ZM129.904 22.185L130.074 22.0013L129.883 21.8253L129.715 22.0223L129.904 22.185ZM132.453 24.5374L132.646 24.6959L132.796 24.5136L132.622 24.3537L132.453 24.5374ZM129.414 26.8163L129.315 26.5868L129.314 26.5873L129.414 26.8163ZM125.371 27.3504C124.075 27.3504 122.871 27.1425 121.758 26.7289L121.584 27.1977C122.758 27.6336 124.021 27.8504 125.371 27.8504V27.3504ZM121.762 26.7305C120.664 26.3008 119.712 25.6974 118.904 24.9207L118.557 25.2813C119.415 26.1055 120.424 26.7437 121.58 27.1961L121.762 26.7305ZM118.904 24.9207C118.095 24.1433 117.46 23.2312 116.999 22.1824L116.541 22.3835C117.028 23.4911 117.7 24.4577 118.557 25.2813L118.904 24.9207ZM117 22.1853C116.557 21.141 116.334 19.9903 116.334 18.7299H115.834C115.834 20.0505 116.068 21.2685 116.54 22.3806L117 22.1853ZM116.334 18.7299C116.334 17.4694 116.557 16.3187 117 15.2744L116.54 15.0791C116.068 16.1912 115.834 17.4092 115.834 18.7299H116.334ZM116.999 15.2773C117.46 14.2285 118.095 13.3164 118.904 12.539L118.557 12.1785C117.7 13.002 117.028 13.9686 116.541 15.0762L116.999 15.2773ZM118.902 12.5407C119.727 11.7636 120.686 11.1683 121.784 10.7548L121.607 10.287C120.45 10.723 119.433 11.3529 118.559 12.1768L118.902 12.5407ZM121.787 10.7537C122.882 10.3251 124.084 10.1093 125.396 10.1093V9.60929C124.028 9.60929 122.763 9.8345 121.604 10.2881L121.787 10.7537ZM125.396 10.1093C126.852 10.1093 128.157 10.3653 129.314 10.8724L129.515 10.4145C128.286 9.87599 126.912 9.60929 125.396 9.60929V10.1093ZM129.318 10.874C130.49 11.3649 131.469 12.0919 132.259 13.0563L132.646 12.7393C131.803 11.7107 130.757 10.9348 129.511 10.4128L129.318 10.874ZM132.283 12.7141L129.735 15.0665L130.074 15.4339L132.622 13.0815L132.283 12.7141ZM130.092 15.0853C129.484 14.3923 128.802 13.871 128.047 13.5279L127.841 13.9831C128.523 14.2933 129.149 14.7686 129.717 15.4152L130.092 15.0853ZM128.052 13.5299C127.297 13.1697 126.476 12.9909 125.592 12.9909V13.4909C126.406 13.4909 127.153 13.6551 127.836 13.9811L128.052 13.5299ZM125.592 12.9909C124.764 12.9909 123.997 13.1262 123.295 13.4001L123.477 13.8658C124.115 13.617 124.819 13.4909 125.592 13.4909V12.9909ZM123.295 13.4001C122.595 13.6735 121.985 14.0679 121.47 14.5834L121.823 14.9369C122.288 14.4722 122.838 14.1151 123.477 13.8658L123.295 13.4001ZM121.47 14.5834C120.955 15.0977 120.553 15.7055 120.264 16.4042L120.726 16.5957C120.991 15.9548 121.357 15.4028 121.823 14.9369L121.47 14.5834ZM120.262 16.4091C119.988 17.1115 119.853 17.8861 119.853 18.7299H120.353C120.353 17.9399 120.479 17.228 120.728 16.5908L120.262 16.4091ZM119.853 18.7299C119.853 19.5736 119.988 20.3482 120.262 21.0506L120.728 20.8689C120.479 20.2317 120.353 19.5198 120.353 18.7299H119.853ZM120.264 21.0555C120.553 21.7542 120.955 22.362 121.47 22.8763L121.823 22.5228C121.357 22.0569 120.991 21.5049 120.726 20.864L120.264 21.0555ZM121.47 22.8763C121.985 23.3918 122.595 23.7862 123.295 24.0596L123.477 23.5939C122.838 23.3446 122.288 22.9875 121.823 22.5228L121.47 22.8763ZM123.295 24.0596C123.997 24.3335 124.764 24.4688 125.592 24.4688V23.9688C124.819 23.9688 124.115 23.8427 123.477 23.5939L123.295 24.0596ZM125.592 24.4688C126.474 24.4688 127.294 24.2989 128.047 23.9563L127.841 23.5011C127.157 23.812 126.408 23.9688 125.592 23.9688V24.4688ZM128.052 23.9544C128.806 23.5944 129.486 23.0567 130.094 22.3477L129.715 22.0223C129.146 22.6855 128.52 23.177 127.836 23.5031L128.052 23.9544ZM129.735 22.3687L132.283 24.7211L132.622 24.3537L130.074 22.0013L129.735 22.3687ZM132.259 24.3789C131.469 25.3439 130.488 26.0795 129.315 26.5868L129.514 27.0457C130.758 26.5075 131.804 25.7239 132.646 24.6959L132.259 24.3789ZM129.314 26.5873C128.158 27.0942 126.845 27.3504 125.371 27.3504V27.8504C126.903 27.8504 128.286 27.5839 129.515 27.0452L129.314 26.5873ZM134.374 27.3064H134.124V27.5564H134.374V27.3064ZM134.374 9.12416V8.87416H134.124V9.12416H134.374ZM138.197 9.12416H138.447V8.87416H138.197V9.12416ZM138.197 27.3064V27.5564H138.447V27.3064H138.197ZM134.624 27.3064V9.12416H134.124V27.3064H134.624ZM134.374 9.37416H138.197V8.87416H134.374V9.37416ZM137.947 9.12416V27.3064H138.447V9.12416H137.947ZM138.197 27.0564H134.374V27.5564H138.197V27.0564ZM149.341 27.3064H149.091V27.5564H149.341V27.3064ZM149.341 24.7334H149.591V24.6814L149.57 24.6337L149.341 24.7334ZM149.096 24.1698H148.846V24.2218L148.866 24.2695L149.096 24.1698ZM148.336 17.6517L148.165 17.8344L148.168 17.8372L148.336 17.6517ZM143.974 17.3086L144.05 17.5469L144.053 17.5458L143.974 17.3086ZM142.259 18.1908L142.037 18.305L142.176 18.5758L142.414 18.3866L142.259 18.1908ZM140.887 15.5198L140.743 15.3154L140.565 15.4406L140.664 15.634L140.887 15.5198ZM143.484 14.3436L143.418 14.1025L143.418 14.1025L143.484 14.3436ZM151.252 15.3483L151.414 15.158L151.414 15.158L151.252 15.3483ZM152.918 27.3064V27.5564H153.168V27.3064H152.918ZM142.676 26.9878L142.566 27.2124L142.57 27.2144L142.676 26.9878ZM140.985 25.5421L141.194 25.406L141.194 25.406L140.985 25.5421ZM140.96 21.4498L140.752 21.3111L140.75 21.3152L140.96 21.4498ZM142.798 20.0776L142.889 20.3104L142.893 20.3088L142.798 20.0776ZM149.561 19.563H149.811V19.313H149.561V19.563ZM149.561 21.7929V22.0429H149.811V21.7929H149.561ZM144.611 22.234L144.449 22.0441L144.444 22.0481L144.611 22.234ZM144.685 24.5129L144.531 24.71L144.54 24.7169L144.685 24.5129ZM147.993 24.4884L148.119 24.7046L148.124 24.7015L147.993 24.4884ZM149.096 23.1406L149.333 23.0616L149.114 22.4043L148.863 23.05L149.096 23.1406ZM149.684 24.9049L149.921 24.9826L149.947 24.9042L149.921 24.8259L149.684 24.9049ZM148.164 26.8408L148.036 26.6264L148.036 26.6264L148.164 26.8408ZM149.591 27.3064V24.7334H149.091V27.3064H149.591ZM149.57 24.6337L149.325 24.0701L148.866 24.2695L149.111 24.8331L149.57 24.6337ZM149.346 24.1698V19.563H148.846V24.1698H149.346ZM149.346 19.563C149.346 18.6906 149.073 17.9802 148.504 17.4661L148.168 17.8372C148.612 18.2379 148.846 18.8017 148.846 19.563H149.346ZM148.507 17.4689C147.951 16.9501 147.117 16.7155 146.057 16.7155V17.2155C147.056 17.2155 147.741 17.4384 148.165 17.8344L148.507 17.4689ZM146.057 16.7155C145.327 16.7155 144.606 16.8345 143.895 17.0714L144.053 17.5458C144.715 17.3253 145.382 17.2155 146.057 17.2155V16.7155ZM143.899 17.0703C143.205 17.2904 142.605 17.5975 142.104 17.9949L142.414 18.3866C142.861 18.0326 143.404 17.7516 144.05 17.5469L143.899 17.0703ZM142.481 18.0765L141.109 15.4055L140.664 15.634L142.037 18.305L142.481 18.0765ZM141.031 15.7242C141.722 15.2373 142.56 14.8562 143.55 14.5847L143.418 14.1025C142.383 14.3864 141.489 14.7895 140.743 15.3154L141.031 15.7242ZM143.55 14.5847C144.542 14.3128 145.549 14.177 146.572 14.177V13.677C145.504 13.677 144.452 13.8189 143.418 14.1025L143.55 14.5847ZM146.572 14.177C148.544 14.177 150.039 14.6419 151.09 15.5385L151.414 15.158C150.244 14.1596 148.618 13.677 146.572 13.677V14.177ZM151.09 15.5385C152.126 16.4225 152.668 17.8185 152.668 19.7835H153.168C153.168 17.7299 152.6 16.169 151.414 15.158L151.09 15.5385ZM152.668 19.7835V27.3064H153.168V19.7835H152.668ZM152.918 27.0564H149.341V27.5564H152.918V27.0564ZM145.322 27.2524C144.32 27.2524 143.476 27.0853 142.781 26.7613L142.57 27.2144C143.346 27.5764 144.266 27.7524 145.322 27.7524V27.2524ZM142.785 26.7632C142.085 26.421 141.559 25.9675 141.194 25.406L140.775 25.6781C141.195 26.3255 141.796 26.8359 142.566 27.2124L142.785 26.7632ZM141.194 25.406C140.83 24.8439 140.647 24.2136 140.647 23.5082H140.147C140.147 24.3058 140.355 25.0314 140.775 25.6781L141.194 25.406ZM140.647 23.5082C140.647 22.7657 140.824 22.1275 141.171 21.5844L140.75 21.3152C140.345 21.9484 140.147 22.6824 140.147 23.5082H140.647ZM141.168 21.5885C141.525 21.0531 142.091 20.6234 142.889 20.3103L142.707 19.8448C141.839 20.1853 141.179 20.6704 140.752 21.3112L141.168 21.5885ZM142.893 20.3088C143.685 19.9826 144.736 19.813 146.057 19.813V19.313C144.699 19.313 143.577 19.4864 142.703 19.8464L142.893 20.3088ZM146.057 19.813H149.561V19.313H146.057V19.813ZM149.311 19.563V21.7929H149.811V19.563H149.311ZM149.561 21.5429H146.474V22.0429H149.561V21.5429ZM146.474 21.5429C145.566 21.5429 144.864 21.6878 144.449 22.0442L144.774 22.4238C145.044 22.192 145.585 22.0429 146.474 22.0429V21.5429ZM144.444 22.0481C144.065 22.3898 143.871 22.825 143.871 23.3367H144.371C144.371 22.9662 144.505 22.6662 144.779 22.4198L144.444 22.0481ZM143.871 23.3367C143.871 23.9012 144.093 24.3668 144.531 24.7097L144.839 24.316C144.526 24.0708 144.371 23.7523 144.371 23.3367H143.871ZM144.54 24.7169C144.988 25.0342 145.576 25.1794 146.278 25.1794V24.6794C145.64 24.6794 145.166 24.547 144.829 24.3089L144.54 24.7169ZM146.278 25.1794C146.955 25.1794 147.571 25.0227 148.118 24.7046L147.867 24.2722C147.402 24.5422 146.875 24.6794 146.278 24.6794V25.1794ZM148.124 24.7015C148.68 24.3607 149.081 23.8669 149.329 23.2312L148.863 23.05C148.652 23.5906 148.319 23.9952 147.862 24.2752L148.124 24.7015ZM148.858 23.2197L149.447 24.984L149.921 24.8259L149.333 23.0616L148.858 23.2197ZM149.446 24.8273C149.186 25.6222 148.717 26.2177 148.036 26.6264L148.293 27.0552C149.082 26.5817 149.626 25.8867 149.921 24.9826L149.446 24.8273ZM148.036 26.6264C147.351 27.0373 146.452 27.2524 145.322 27.2524V27.7524C146.512 27.7524 147.508 27.5264 148.293 27.0552L148.036 26.6264ZM157.554 27.1103L157.489 27.3517L157.494 27.3529L157.554 27.1103ZM155.104 26.0811L154.877 25.9759L154.787 26.1691L154.964 26.2883L155.104 26.0811ZM156.378 23.3367L156.51 23.1243L156.27 22.9753L156.151 23.2314L156.378 23.3367ZM158.51 24.2678L158.438 24.5074L158.444 24.5089L158.51 24.2678ZM162.823 24.2923L162.7 24.0747L162.695 24.0771L162.823 24.2923ZM162.945 22.7241L162.818 22.9395L162.826 22.9439L162.833 22.9477L162.945 22.7241ZM161.818 22.3565L161.776 22.6029L161.776 22.6029L161.818 22.3565ZM160.25 22.1114L160.213 22.3588L160.214 22.3589L160.25 22.1114ZM158.559 21.7929L158.497 22.0351L158.503 22.0366L158.559 21.7929ZM156.991 21.1558L157.117 20.9401L157.117 20.9401L156.991 21.1558ZM155.839 20.0286L155.623 20.1551L155.627 20.1604L155.839 20.0286ZM156.133 15.9854L155.935 15.8329L155.932 15.8362L156.133 15.9854ZM158.24 14.4906L158.332 14.7233L158.335 14.7219L158.24 14.4906ZM164.268 14.2211L164.32 13.9764L164.32 13.9764L164.268 14.2211ZM166.596 15.0787L166.823 15.1848L166.918 14.9812L166.726 14.8648L166.596 15.0787ZM165.322 17.7987L165.195 18.014L165.432 18.1537L165.549 17.9047L165.322 17.7987ZM163.386 17.0391L163.33 17.2828L163.337 17.2842L163.386 17.0391ZM159.662 17.1616L159.536 16.9456L159.536 16.9456L159.662 17.1616ZM159.49 18.7789L159.363 18.9944L159.369 18.9974L159.49 18.7789ZM162.186 19.4405L162.149 19.6879L162.157 19.6889L162.186 19.4405ZM163.901 19.759L163.963 19.5169L163.963 19.5169L163.901 19.759ZM165.445 20.3961L165.315 20.61L165.324 20.615L165.445 20.3961ZM166.596 21.4988L166.384 21.6307L166.386 21.634L166.596 21.4988ZM166.302 25.493L166.499 25.648L166.5 25.6455L166.302 25.493ZM164.17 26.9633L164.08 26.7301L164.079 26.7306L164.17 26.9633ZM160.813 27.2524C159.706 27.2524 158.64 27.124 157.615 26.8678L157.494 27.3529C158.56 27.6194 159.667 27.7524 160.813 27.7524V27.2524ZM157.619 26.869C156.606 26.5954 155.817 26.2616 155.244 25.874L154.964 26.2883C155.599 26.7175 156.444 27.0698 157.489 27.3517L157.619 26.869ZM155.331 26.1864L156.605 23.4419L156.151 23.2314L154.877 25.9759L155.331 26.1864ZM156.246 23.549C156.873 23.9384 157.604 24.2571 158.438 24.5073L158.582 24.0284C157.782 23.7885 157.092 23.4864 156.51 23.1243L156.246 23.549ZM158.444 24.5089C159.297 24.7431 160.136 24.8609 160.96 24.8609V24.3609C160.184 24.3609 159.389 24.25 158.576 24.0267L158.444 24.5089ZM160.96 24.8609C161.848 24.8609 162.528 24.7567 162.95 24.5076L162.695 24.0771C162.398 24.2527 161.837 24.3609 160.96 24.3609V24.8609ZM162.946 24.51C163.386 24.2612 163.636 23.8911 163.636 23.4102H163.136C163.136 23.6807 163.011 23.8987 162.7 24.0747L162.946 24.51ZM163.636 23.4102C163.636 23.214 163.589 23.0308 163.486 22.8707C163.384 22.7113 163.236 22.5898 163.057 22.5005L162.833 22.9477C162.949 23.0053 163.021 23.0717 163.066 23.141C163.11 23.2096 163.136 23.296 163.136 23.4102H163.636ZM163.072 22.5086C162.759 22.3243 162.351 22.1947 161.86 22.1101L161.776 22.6029C162.233 22.6817 162.576 22.797 162.818 22.9395L163.072 22.5086ZM161.86 22.1101C161.384 22.028 160.859 21.9459 160.285 21.864L160.214 22.3589C160.784 22.4403 161.305 22.5217 161.776 22.6029L161.86 22.1101ZM160.286 21.8641C159.737 21.7834 159.18 21.6785 158.615 21.5492L158.503 22.0366C159.081 22.1687 159.651 22.2761 160.213 22.3588L160.286 21.8641ZM158.621 21.5508C158.07 21.4091 157.569 21.2052 157.117 20.9401L156.864 21.3715C157.359 21.6618 157.904 21.8826 158.497 22.035L158.621 21.5508ZM157.117 20.9401C156.679 20.6833 156.324 20.3365 156.051 19.8967L155.627 20.1604C155.942 20.6681 156.355 21.0729 156.864 21.3715L157.117 20.9401ZM156.055 19.9022C155.806 19.4783 155.672 18.9135 155.672 18.1908H155.172C155.172 18.971 155.316 19.6313 155.623 20.155L156.055 19.9022ZM155.672 18.1908C155.672 17.4085 155.894 16.7263 156.334 16.1345L155.932 15.8362C155.425 16.5186 155.172 17.3067 155.172 18.1908H155.672ZM156.331 16.1378C156.788 15.5439 157.45 15.0698 158.332 14.7233L158.149 14.2579C157.201 14.6302 156.458 15.1527 155.935 15.8329L156.331 16.1378ZM158.335 14.7219C159.213 14.3615 160.273 14.177 161.524 14.177V13.677C160.226 13.677 159.098 13.8682 158.145 14.2593L158.335 14.7219ZM161.524 14.177C162.404 14.177 163.302 14.273 164.217 14.4657L164.32 13.9764C163.373 13.777 162.441 13.677 161.524 13.677V14.177ZM164.217 14.4657C165.129 14.6576 165.876 14.9352 166.467 15.2926L166.726 14.8648C166.075 14.4708 165.271 14.1765 164.32 13.9764L164.217 14.4657ZM166.37 14.9727L165.096 17.6926L165.549 17.9047L166.823 15.1848L166.37 14.9727ZM165.449 17.5833C164.79 17.1949 164.119 16.9307 163.435 16.7939L163.337 17.2842C163.96 17.4088 164.58 17.651 165.195 18.014L165.449 17.5833ZM163.442 16.7955C162.788 16.6445 162.149 16.5685 161.524 16.5685V17.0685C162.108 17.0685 162.71 17.1395 163.33 17.2827L163.442 16.7955ZM161.524 16.5685C160.663 16.5685 159.987 16.6825 159.536 16.9456L159.788 17.3775C160.121 17.1832 160.686 17.0685 161.524 17.0685V16.5685ZM159.536 16.9456C159.09 17.2055 158.824 17.5713 158.824 18.0437H159.324C159.324 17.7974 159.449 17.5751 159.788 17.3775L159.536 16.9456ZM158.824 18.0437C158.824 18.4575 159.008 18.7853 159.363 18.9943L159.617 18.5634C159.417 18.4457 159.324 18.2834 159.324 18.0437H158.824ZM159.369 18.9974C159.692 19.1771 160.102 19.3146 160.591 19.4157L160.692 18.9261C160.234 18.8312 159.876 18.7073 159.611 18.5603L159.369 18.9974ZM160.591 19.4157C161.07 19.5149 161.59 19.6055 162.149 19.6878L162.222 19.1931C161.671 19.1121 161.161 19.023 160.692 18.9261L160.591 19.4157ZM162.157 19.6889C162.717 19.7529 163.278 19.8569 163.839 20.0012L163.963 19.5169C163.381 19.3671 162.797 19.2588 162.214 19.1921L162.157 19.6889ZM163.839 20.0012C164.389 20.1427 164.88 20.3461 165.315 20.6098L165.574 20.1824C165.094 19.8908 164.556 19.6694 163.963 19.5169L163.839 20.0012ZM165.324 20.615C165.759 20.8551 166.112 21.1922 166.384 21.6307L166.809 21.367C166.493 20.858 166.078 20.46 165.565 20.1773L165.324 20.615ZM166.386 21.634C166.646 22.0385 166.787 22.591 166.787 23.3122H167.287C167.287 22.5304 167.135 21.874 166.807 21.3637L166.386 21.634ZM166.787 23.3122C166.787 24.0748 166.56 24.748 166.104 25.3406L166.5 25.6455C167.025 24.9639 167.287 24.1831 167.287 23.3122H166.787ZM166.106 25.3381C165.65 25.9157 164.981 26.3826 164.08 26.7301L164.26 27.1965C165.223 26.8252 165.974 26.312 166.499 25.648L166.106 25.3381ZM164.079 26.7306C163.201 27.0754 162.115 27.2524 160.813 27.2524V27.7524C162.158 27.7524 163.31 27.57 164.262 27.196L164.079 26.7306ZM179.467 14.5641L179.352 14.786L179.357 14.7886L179.467 14.5641ZM181.428 16.4755L181.208 16.5955L181.209 16.5972L181.428 16.4755ZM182.138 27.3064V27.5564H182.388V27.3064H182.138ZM178.316 27.3064H178.066V27.5564H178.316V27.3064ZM177.605 17.9947L177.419 18.1623L177.422 18.1655L177.605 17.9947ZM174.003 17.6272L174.118 17.8492L174.12 17.8477L174.003 17.6272ZM172.876 18.7789L172.655 18.6615L172.652 18.6671L172.876 18.7789ZM172.484 27.3064V27.5564H172.734V27.3064H172.484ZM168.661 27.3064H168.411V27.5564H168.661V27.3064ZM168.661 9.12416V8.87416H168.411V9.12416H168.661ZM172.484 9.12416H172.734V8.87416H172.484V9.12416ZM172.484 17.7742L172.286 17.9277L172.734 18.5028V17.7742H172.484ZM171.626 16.6715L171.406 16.5532L171.329 16.6965L171.429 16.825L171.626 16.6715ZM173.66 14.6376L173.778 14.8579L173.778 14.8579L173.66 14.6376ZM176.674 14.177C177.685 14.177 178.575 14.3821 179.352 14.7859L179.583 14.3423C178.726 13.8967 177.754 13.677 176.674 13.677V14.177ZM179.357 14.7886C180.141 15.1728 180.758 15.7719 181.208 16.5955L181.647 16.3555C181.15 15.4474 180.46 14.7722 179.577 14.3396L179.357 14.7886ZM181.209 16.5972C181.656 17.3981 181.888 18.4468 181.888 19.759H182.388C182.388 18.3922 182.147 17.2518 181.646 16.3537L181.209 16.5972ZM181.888 19.759V27.3064H182.388V19.759H181.888ZM182.138 27.0564H178.316V27.5564H182.138V27.0564ZM178.566 27.3064V20.3471H178.066V27.3064H178.566ZM178.566 20.3471C178.566 19.2546 178.323 18.396 177.787 17.8239L177.422 18.1655C177.835 18.6063 178.066 19.316 178.066 20.3471H178.566ZM177.79 17.8271C177.274 17.2559 176.546 16.9851 175.645 16.9851V17.4851C176.442 17.4851 177.021 17.7207 177.419 18.1623L177.79 17.8271ZM175.645 16.9851C175.003 16.9851 174.415 17.1242 173.885 17.4066L174.12 17.8477C174.571 17.6073 175.077 17.4851 175.645 17.4851V16.9851ZM173.888 17.4051C173.364 17.676 172.954 18.0991 172.655 18.6616L173.096 18.8961C173.353 18.4131 173.694 18.0684 174.118 17.8492L173.888 17.4051ZM172.652 18.6671C172.368 19.2355 172.234 19.9471 172.234 20.7882H172.734C172.734 19.9957 172.861 19.3677 173.099 18.8907L172.652 18.6671ZM172.234 20.7882V27.3064H172.734V20.7882H172.234ZM172.484 27.0564H168.661V27.5564H172.484V27.0564ZM168.911 27.3064V9.12416H168.411V27.3064H168.911ZM168.661 9.37416H172.484V8.87416H168.661V9.37416ZM172.234 9.12416V17.7742H172.734V9.12416H172.234ZM172.681 17.6207L171.823 16.518L171.429 16.825L172.286 17.9277L172.681 17.6207ZM171.846 16.7898C172.297 15.9509 172.939 15.3084 173.778 14.8579L173.541 14.4174C172.616 14.9144 171.903 15.6278 171.406 16.5532L171.846 16.7898ZM173.778 14.8579C174.619 14.406 175.583 14.177 176.674 14.177V13.677C175.511 13.677 174.464 13.9218 173.541 14.4174L173.778 14.8579Z" fill="#2A3034" mask="url(#path-6-outside-1_361_188)"/>
</svg>
