<svg width="187" height="36" viewBox="0 0 187 36" fill="none" xmlns="http://www.w3.org/2000/svg">
<rect x="39.6063" y="8.10168" width="8.60038" height="6.74084" rx="3.37042" transform="rotate(135 39.6063 8.10168)" fill="#41BCFF"/>
<rect x="21.7377" y="25.9704" width="8.60038" height="6.74084" rx="3.37042" transform="rotate(135 21.7377 25.9704)" fill="#41BCFF"/>
<path fill-rule="evenodd" clip-rule="evenodd" d="M23.2339 15.1081C23.0597 15.2824 22.7771 15.2824 22.6028 15.1081C22.4286 14.9338 22.4286 14.6513 22.6029 14.477L29.6836 7.39625C31.0452 6.03463 31.0452 3.82701 29.6836 2.46539C28.322 1.10378 26.1144 1.10378 24.7527 2.4654L15.133 12.0852C13.6377 13.5804 13.6377 16.0047 15.133 17.4999L20.155 22.5219C21.5142 23.8811 23.7179 23.8811 25.0771 22.5219L27.2003 20.3987C27.3869 20.2121 27.6895 20.2121 27.8761 20.3987C28.0627 20.5853 28.0627 20.8879 27.8761 21.0745L20.8418 28.1088C19.4801 29.4704 19.4801 31.678 20.8418 33.0396C22.2034 34.4013 24.411 34.4013 25.7726 33.0396L35.6343 23.1779C36.9959 21.8163 36.9959 19.6087 35.6343 18.2471L33.1809 15.7937C33.1743 15.787 33.1635 15.787 33.1569 15.7937C33.1502 15.8003 33.1394 15.8003 33.1328 15.7937L30.3016 12.9626C28.9424 11.6033 26.7387 11.6033 25.3795 12.9626L23.2339 15.1081Z" fill="#FFC80B"/>
<path fill-rule="evenodd" clip-rule="evenodd" d="M41.8268 12.6131C40.4811 11.2673 38.2992 11.2673 36.9535 12.6131L36.8959 12.6706C35.5502 14.0164 35.5502 16.1982 36.8959 17.5439L37.7753 18.4233C39.1211 19.7691 39.1211 21.9509 37.7753 23.2966L36.896 24.176C35.5503 25.5217 35.5503 27.7035 36.896 29.0492L36.9536 29.1068C38.2993 30.4525 40.4811 30.4525 41.8269 29.1068L47.6371 23.2966C48.9828 21.9508 48.9828 19.769 47.6371 18.4233L45.1429 15.9291C45.1429 15.9291 45.1429 15.9291 45.1429 15.9291C45.1428 15.9291 45.1428 15.9291 45.1428 15.9291L41.8268 12.6131Z" fill="#E54671"/>
<path fill-rule="evenodd" clip-rule="evenodd" d="M12.2984 12.2527C10.9527 13.5984 10.9527 15.7802 12.2984 17.1259L13.1778 18.0054C14.5235 19.3511 14.5235 21.5329 13.1778 22.8786L13.1202 22.9362C11.7745 24.2819 9.59267 24.2819 8.24695 22.9362L4.93093 19.6202C4.93092 19.6202 4.9309 19.6202 4.93089 19.6202C4.93088 19.6202 4.93086 19.6202 4.93085 19.6202L2.43665 17.126C1.09093 15.7803 1.09093 13.5984 2.43665 12.2527L8.2469 6.44246C9.59261 5.09675 11.7745 5.09675 13.1202 6.44246L13.1778 6.50005C14.5235 7.84576 14.5235 10.0276 13.1778 11.3733L12.2984 12.2527Z" fill="#E54671"/>
<mask id="path-6-outside-1_361_188" maskUnits="userSpaceOnUse" x="52.0698" y="8.30637" width="133" height="20" fill="black">
<rect fill="white" x="52.0698" y="8.30637" width="133" height="20"/>
<path d="M62.3126 27.6004C60.9894 27.6004 59.756 27.388 58.6125 26.9633C57.4853 26.5222 56.5051 25.9015 55.672 25.101C54.8388 24.3005 54.1854 23.3612 53.7116 22.283C53.2542 21.2048 53.0255 20.0204 53.0255 18.7299C53.0255 17.4393 53.2542 16.2549 53.7116 15.1767C54.1854 14.0985 54.8388 13.1592 55.672 12.3587C56.5214 11.5583 57.5098 10.9456 58.637 10.5209C59.7642 10.0798 60.9976 9.85929 62.3371 9.85929C63.8237 9.85929 65.1633 10.1207 66.3558 10.6434C67.5647 11.1498 68.5776 11.9013 69.3944 12.8978L66.8459 15.2502C66.2578 14.5805 65.6044 14.0822 64.8856 13.7555C64.1668 13.4124 63.3827 13.2409 62.5332 13.2409C61.7327 13.2409 60.9976 13.3716 60.3278 13.633C59.658 13.8943 59.0781 14.2701 58.588 14.7602C58.0979 15.2502 57.714 15.8302 57.4363 16.5C57.1749 17.1697 57.0442 17.913 57.0442 18.7299C57.0442 19.5467 57.1749 20.29 57.4363 20.9597C57.714 21.6295 58.0979 22.2095 58.588 22.6996C59.0781 23.1896 59.658 23.5654 60.3278 23.8268C60.9976 24.0881 61.7327 24.2188 62.5332 24.2188C63.3827 24.2188 64.1668 24.0555 64.8856 23.7287C65.6044 23.3857 66.2578 22.8711 66.8459 22.185L69.3944 24.5374C68.5776 25.5339 67.5647 26.2935 66.3558 26.8163C65.1633 27.339 63.8156 27.6004 62.3126 27.6004ZM76.6438 27.5024C75.2389 27.5024 73.9892 27.2083 72.8947 26.6202C71.8165 26.0321 70.9588 25.2317 70.3217 24.2188C69.7009 23.1896 69.3906 22.0216 69.3906 20.7147C69.3906 19.3915 69.7009 18.2234 70.3217 17.2106C70.9588 16.1814 71.8165 15.3809 72.8947 14.8092C73.9892 14.2211 75.2389 13.927 76.6438 13.927C78.0324 13.927 79.274 14.2211 80.3685 14.8092C81.463 15.3809 82.3207 16.1732 82.9414 17.1861C83.5622 18.1989 83.8726 19.3751 83.8726 20.7147C83.8726 22.0216 83.5622 23.1896 82.9414 24.2188C82.3207 25.2317 81.463 26.0321 80.3685 26.6202C79.274 27.2083 78.0324 27.5024 76.6438 27.5024ZM76.6438 24.3658C77.2809 24.3658 77.8527 24.2188 78.3591 23.9248C78.8656 23.6307 79.2658 23.2141 79.5598 22.675C79.8539 22.1196 80.0009 21.4662 80.0009 20.7147C80.0009 19.9469 79.8539 19.2935 79.5598 18.7544C79.2658 18.2153 78.8656 17.7987 78.3591 17.5046C77.8527 17.2106 77.2809 17.0636 76.6438 17.0636C76.0067 17.0636 75.435 17.2106 74.9285 17.5046C74.4221 17.7987 74.0137 18.2153 73.7033 18.7544C73.4093 19.2935 73.2622 19.9469 73.2622 20.7147C73.2622 21.4662 73.4093 22.1196 73.7033 22.675C74.0137 23.2141 74.4221 23.6307 74.9285 23.9248C75.435 24.2188 76.0067 24.3658 76.6438 24.3658ZM91.5982 27.5024C90.3566 27.5024 89.2376 27.2247 88.2411 26.6693C87.2446 26.0975 86.4523 25.3052 85.8642 24.2923C85.2924 23.2795 85.0065 22.0869 85.0065 20.7147C85.0065 19.3261 85.2924 18.1254 85.8642 17.1126C86.4523 16.0997 87.2446 15.3156 88.2411 14.7602C89.2376 14.2047 90.3566 13.927 91.5982 13.927C92.709 13.927 93.681 14.172 94.5142 14.6621C95.3473 15.1522 95.9926 15.8955 96.45 16.892C96.9074 17.8885 97.1362 19.1628 97.1362 20.7147C97.1362 22.2503 96.9156 23.5245 96.4745 24.5374C96.0335 25.5339 95.3963 26.2772 94.5632 26.7673C93.7464 27.2574 92.758 27.5024 91.5982 27.5024ZM92.2598 24.3658C92.8806 24.3658 93.4442 24.2188 93.9506 23.9248C94.457 23.6307 94.8572 23.2141 95.1513 22.675C95.4617 22.1196 95.6169 21.4662 95.6169 20.7147C95.6169 19.9469 95.4617 19.2935 95.1513 18.7544C94.8572 18.2153 94.457 17.7987 93.9506 17.5046C93.4442 17.2106 92.8806 17.0636 92.2598 17.0636C91.6227 17.0636 91.0509 17.2106 90.5445 17.5046C90.0381 17.7987 89.6297 18.2153 89.3193 18.7544C89.0252 19.2935 88.8782 19.9469 88.8782 20.7147C88.8782 21.4662 89.0252 22.1196 89.3193 22.675C89.6297 23.2141 90.0381 23.6307 90.5445 23.9248C91.0509 24.2188 91.6227 24.3658 92.2598 24.3658ZM95.7149 27.3064V24.6109L95.7884 20.6902L95.5434 16.794V9.12416H99.366V27.3064H95.7149ZM108.221 27.5024C106.719 27.5024 105.395 27.2083 104.252 26.6202C103.125 26.0321 102.251 25.2317 101.63 24.2188C101.009 23.1896 100.699 22.0216 100.699 20.7147C100.699 19.3915 101.001 18.2234 101.605 17.2106C102.226 16.1814 103.067 15.3809 104.129 14.8092C105.191 14.2211 106.392 13.927 107.731 13.927C109.022 13.927 110.182 14.2047 111.211 14.7602C112.257 15.2992 113.082 16.0834 113.686 17.1126C114.29 18.1254 114.593 19.3425 114.593 20.7637C114.593 20.9107 114.584 21.0823 114.568 21.2783C114.552 21.458 114.535 21.6295 114.519 21.7929H103.811V19.563H112.51L111.039 20.2246C111.039 19.5385 110.901 18.9422 110.623 18.4358C110.345 17.9294 109.961 17.5373 109.471 17.2596C108.981 16.9655 108.409 16.8185 107.756 16.8185C107.102 16.8185 106.523 16.9655 106.016 17.2596C105.526 17.5373 105.142 17.9375 104.864 18.4603C104.587 18.9667 104.448 19.5712 104.448 20.2736V20.8617C104.448 21.5805 104.603 22.2176 104.913 22.7731C105.24 23.3122 105.689 23.7287 106.261 24.0228C106.849 24.3005 107.535 24.4394 108.32 24.4394C109.022 24.4394 109.635 24.3332 110.157 24.1208C110.696 23.9084 111.187 23.5899 111.628 23.1651L113.661 25.3705C113.057 26.0566 112.297 26.5876 111.383 26.9633C110.468 27.3227 109.414 27.5024 108.221 27.5024ZM125.371 27.6004C124.048 27.6004 122.814 27.388 121.671 26.9633C120.544 26.5222 119.564 25.9015 118.73 25.101C117.897 24.3005 117.244 23.3612 116.77 22.283C116.313 21.2048 116.084 20.0204 116.084 18.7299C116.084 17.4393 116.313 16.2549 116.77 15.1767C117.244 14.0985 117.897 13.1592 118.73 12.3587C119.58 11.5583 120.568 10.9456 121.695 10.5209C122.823 10.0798 124.056 9.85929 125.396 9.85929C126.882 9.85929 128.222 10.1207 129.414 10.6434C130.623 11.1498 131.636 11.9013 132.453 12.8978L129.904 15.2502C129.316 14.5805 128.663 14.0822 127.944 13.7555C127.225 13.4124 126.441 13.2409 125.592 13.2409C124.791 13.2409 124.056 13.3716 123.386 13.633C122.716 13.8943 122.136 14.2701 121.646 14.7602C121.156 15.2502 120.772 15.8302 120.495 16.5C120.233 17.1697 120.103 17.913 120.103 18.7299C120.103 19.5467 120.233 20.29 120.495 20.9597C120.772 21.6295 121.156 22.2095 121.646 22.6996C122.136 23.1896 122.716 23.5654 123.386 23.8268C124.056 24.0881 124.791 24.2188 125.592 24.2188C126.441 24.2188 127.225 24.0555 127.944 23.7287C128.663 23.3857 129.316 22.8711 129.904 22.185L132.453 24.5374C131.636 25.5339 130.623 26.2935 129.414 26.8163C128.222 27.339 126.874 27.6004 125.371 27.6004ZM134.374 27.3064V14.123H138.025V17.8477L137.51 16.7695C137.903 15.8383 138.531 15.1359 139.397 14.6621C140.263 14.172 141.317 13.927 142.558 13.927V17.4556C142.395 17.4393 142.248 17.4311 142.117 17.4311C141.987 17.4148 141.848 17.4066 141.701 17.4066C140.655 17.4066 139.806 17.7088 139.152 18.3133C138.515 18.9014 138.197 19.8244 138.197 21.0823V27.3064H134.374ZM151.566 27.3064V24.7334L151.321 24.1698V19.563C151.321 18.7462 151.068 18.1091 150.562 17.6517C150.071 17.1942 149.312 16.9655 148.283 16.9655C147.58 16.9655 146.886 17.0799 146.2 17.3086C145.53 17.521 144.958 17.815 144.484 18.1908L143.112 15.5198C143.831 15.0134 144.697 14.6213 145.71 14.3436C146.723 14.0659 147.752 13.927 148.797 13.927C150.807 13.927 152.367 14.4008 153.478 15.3483C154.588 16.2958 155.144 17.7742 155.144 19.7835V27.3064H151.566ZM147.547 27.5024C146.518 27.5024 145.636 27.3309 144.901 26.9878C144.166 26.6284 143.602 26.1465 143.21 25.5421C142.818 24.9376 142.622 24.2597 142.622 23.5082C142.622 22.7241 142.81 22.0379 143.186 21.4498C143.578 20.8617 144.19 20.4043 145.024 20.0776C145.857 19.7345 146.943 19.563 148.283 19.563H151.787V21.7929H148.699C147.801 21.7929 147.18 21.9399 146.837 22.234C146.51 22.528 146.347 22.8956 146.347 23.3367C146.347 23.8268 146.535 24.2188 146.91 24.5129C147.302 24.7906 147.833 24.9294 148.503 24.9294C149.14 24.9294 149.712 24.7824 150.218 24.4884C150.725 24.178 151.092 23.7287 151.321 23.1406L151.909 24.9049C151.632 25.7544 151.125 26.3997 150.39 26.8408C149.655 27.2819 148.707 27.5024 147.547 27.5024ZM163.039 27.5024C161.912 27.5024 160.825 27.3717 159.78 27.1103C158.751 26.8326 157.934 26.4896 157.329 26.0811L158.604 23.3367C159.208 23.7124 159.919 24.0228 160.735 24.2678C161.569 24.4965 162.385 24.6109 163.186 24.6109C164.068 24.6109 164.689 24.5047 165.048 24.2923C165.424 24.08 165.612 23.7859 165.612 23.4102C165.612 23.0998 165.465 22.8711 165.171 22.7241C164.893 22.5607 164.517 22.4382 164.043 22.3565C163.57 22.2748 163.047 22.1931 162.475 22.1114C161.92 22.0298 161.356 21.9236 160.784 21.7929C160.213 21.6459 159.69 21.4335 159.216 21.1558C158.742 20.8781 158.358 20.5023 158.064 20.0286C157.787 19.5548 157.648 18.9422 157.648 18.1908C157.648 17.3576 157.885 16.6225 158.358 15.9854C158.849 15.3483 159.551 14.85 160.466 14.4906C161.381 14.1149 162.475 13.927 163.749 13.927C164.648 13.927 165.563 14.025 166.494 14.2211C167.425 14.4171 168.201 14.703 168.822 15.0787L167.548 17.7987C166.91 17.423 166.265 17.1697 165.612 17.0391C164.975 16.892 164.354 16.8185 163.749 16.8185C162.9 16.8185 162.279 16.9329 161.887 17.1616C161.495 17.3903 161.299 17.6843 161.299 18.0437C161.299 18.3705 161.438 18.6155 161.716 18.7789C162.01 18.9422 162.394 19.0729 162.867 19.1709C163.341 19.2689 163.856 19.3588 164.411 19.4405C164.983 19.5058 165.555 19.612 166.126 19.759C166.698 19.9061 167.213 20.1184 167.67 20.3961C168.144 20.6575 168.528 21.0251 168.822 21.4988C169.116 21.9563 169.263 22.5607 169.263 23.3122C169.263 24.129 169.018 24.8559 168.528 25.493C168.038 26.1138 167.327 26.6039 166.396 26.9633C165.481 27.3227 164.362 27.5024 163.039 27.5024ZM178.899 13.927C179.945 13.927 180.876 14.1394 181.693 14.5641C182.526 14.9725 183.179 15.6096 183.653 16.4755C184.127 17.3249 184.364 18.4195 184.364 19.759V27.3064H180.541V20.3471C180.541 19.2853 180.304 18.5011 179.83 17.9947C179.373 17.4883 178.72 17.2351 177.87 17.2351C177.266 17.2351 176.718 17.3658 176.228 17.6272C175.755 17.8722 175.379 18.2561 175.101 18.7789C174.84 19.3016 174.709 19.9714 174.709 20.7882V27.3064H170.886V9.12416H174.709V17.7742L173.851 16.6715C174.325 15.7893 175.003 15.1114 175.885 14.6376C176.767 14.1639 177.772 13.927 178.899 13.927Z"/>
</mask>
<path d="M62.3126 27.6004C60.9894 27.6004 59.756 27.388 58.6125 26.9633C57.4853 26.5222 56.5051 25.9015 55.672 25.101C54.8388 24.3005 54.1854 23.3612 53.7116 22.283C53.2542 21.2048 53.0255 20.0204 53.0255 18.7299C53.0255 17.4393 53.2542 16.2549 53.7116 15.1767C54.1854 14.0985 54.8388 13.1592 55.672 12.3587C56.5214 11.5583 57.5098 10.9456 58.637 10.5209C59.7642 10.0798 60.9976 9.85929 62.3371 9.85929C63.8237 9.85929 65.1633 10.1207 66.3558 10.6434C67.5647 11.1498 68.5776 11.9013 69.3944 12.8978L66.8459 15.2502C66.2578 14.5805 65.6044 14.0822 64.8856 13.7555C64.1668 13.4124 63.3827 13.2409 62.5332 13.2409C61.7327 13.2409 60.9976 13.3716 60.3278 13.633C59.658 13.8943 59.0781 14.2701 58.588 14.7602C58.0979 15.2502 57.714 15.8302 57.4363 16.5C57.1749 17.1697 57.0442 17.913 57.0442 18.7299C57.0442 19.5467 57.1749 20.29 57.4363 20.9597C57.714 21.6295 58.0979 22.2095 58.588 22.6996C59.0781 23.1896 59.658 23.5654 60.3278 23.8268C60.9976 24.0881 61.7327 24.2188 62.5332 24.2188C63.3827 24.2188 64.1668 24.0555 64.8856 23.7287C65.6044 23.3857 66.2578 22.8711 66.8459 22.185L69.3944 24.5374C68.5776 25.5339 67.5647 26.2935 66.3558 26.8163C65.1633 27.339 63.8156 27.6004 62.3126 27.6004ZM76.6438 27.5024C75.2389 27.5024 73.9892 27.2083 72.8947 26.6202C71.8165 26.0321 70.9588 25.2317 70.3217 24.2188C69.7009 23.1896 69.3906 22.0216 69.3906 20.7147C69.3906 19.3915 69.7009 18.2234 70.3217 17.2106C70.9588 16.1814 71.8165 15.3809 72.8947 14.8092C73.9892 14.2211 75.2389 13.927 76.6438 13.927C78.0324 13.927 79.274 14.2211 80.3685 14.8092C81.463 15.3809 82.3207 16.1732 82.9414 17.1861C83.5622 18.1989 83.8726 19.3751 83.8726 20.7147C83.8726 22.0216 83.5622 23.1896 82.9414 24.2188C82.3207 25.2317 81.463 26.0321 80.3685 26.6202C79.274 27.2083 78.0324 27.5024 76.6438 27.5024ZM76.6438 24.3658C77.2809 24.3658 77.8527 24.2188 78.3591 23.9248C78.8656 23.6307 79.2658 23.2141 79.5598 22.675C79.8539 22.1196 80.0009 21.4662 80.0009 20.7147C80.0009 19.9469 79.8539 19.2935 79.5598 18.7544C79.2658 18.2153 78.8656 17.7987 78.3591 17.5046C77.8527 17.2106 77.2809 17.0636 76.6438 17.0636C76.0067 17.0636 75.435 17.2106 74.9285 17.5046C74.4221 17.7987 74.0137 18.2153 73.7033 18.7544C73.4093 19.2935 73.2622 19.9469 73.2622 20.7147C73.2622 21.4662 73.4093 22.1196 73.7033 22.675C74.0137 23.2141 74.4221 23.6307 74.9285 23.9248C75.435 24.2188 76.0067 24.3658 76.6438 24.3658ZM91.5982 27.5024C90.3566 27.5024 89.2376 27.2247 88.2411 26.6693C87.2446 26.0975 86.4523 25.3052 85.8642 24.2923C85.2924 23.2795 85.0065 22.0869 85.0065 20.7147C85.0065 19.3261 85.2924 18.1254 85.8642 17.1126C86.4523 16.0997 87.2446 15.3156 88.2411 14.7602C89.2376 14.2047 90.3566 13.927 91.5982 13.927C92.709 13.927 93.681 14.172 94.5142 14.6621C95.3473 15.1522 95.9926 15.8955 96.45 16.892C96.9074 17.8885 97.1362 19.1628 97.1362 20.7147C97.1362 22.2503 96.9156 23.5245 96.4745 24.5374C96.0335 25.5339 95.3963 26.2772 94.5632 26.7673C93.7464 27.2574 92.758 27.5024 91.5982 27.5024ZM92.2598 24.3658C92.8806 24.3658 93.4442 24.2188 93.9506 23.9248C94.457 23.6307 94.8572 23.2141 95.1513 22.675C95.4617 22.1196 95.6169 21.4662 95.6169 20.7147C95.6169 19.9469 95.4617 19.2935 95.1513 18.7544C94.8572 18.2153 94.457 17.7987 93.9506 17.5046C93.4442 17.2106 92.8806 17.0636 92.2598 17.0636C91.6227 17.0636 91.0509 17.2106 90.5445 17.5046C90.0381 17.7987 89.6297 18.2153 89.3193 18.7544C89.0252 19.2935 88.8782 19.9469 88.8782 20.7147C88.8782 21.4662 89.0252 22.1196 89.3193 22.675C89.6297 23.2141 90.0381 23.6307 90.5445 23.9248C91.0509 24.2188 91.6227 24.3658 92.2598 24.3658ZM95.7149 27.3064V24.6109L95.7884 20.6902L95.5434 16.794V9.12416H99.366V27.3064H95.7149ZM108.221 27.5024C106.719 27.5024 105.395 27.2083 104.252 26.6202C103.125 26.0321 102.251 25.2317 101.63 24.2188C101.009 23.1896 100.699 22.0216 100.699 20.7147C100.699 19.3915 101.001 18.2234 101.605 17.2106C102.226 16.1814 103.067 15.3809 104.129 14.8092C105.191 14.2211 106.392 13.927 107.731 13.927C109.022 13.927 110.182 14.2047 111.211 14.7602C112.257 15.2992 113.082 16.0834 113.686 17.1126C114.29 18.1254 114.593 19.3425 114.593 20.7637C114.593 20.9107 114.584 21.0823 114.568 21.2783C114.552 21.458 114.535 21.6295 114.519 21.7929H103.811V19.563H112.51L111.039 20.2246C111.039 19.5385 110.901 18.9422 110.623 18.4358C110.345 17.9294 109.961 17.5373 109.471 17.2596C108.981 16.9655 108.409 16.8185 107.756 16.8185C107.102 16.8185 106.523 16.9655 106.016 17.2596C105.526 17.5373 105.142 17.9375 104.864 18.4603C104.587 18.9667 104.448 19.5712 104.448 20.2736V20.8617C104.448 21.5805 104.603 22.2176 104.913 22.7731C105.24 23.3122 105.689 23.7287 106.261 24.0228C106.849 24.3005 107.535 24.4394 108.32 24.4394C109.022 24.4394 109.635 24.3332 110.157 24.1208C110.696 23.9084 111.187 23.5899 111.628 23.1651L113.661 25.3705C113.057 26.0566 112.297 26.5876 111.383 26.9633C110.468 27.3227 109.414 27.5024 108.221 27.5024ZM125.371 27.6004C124.048 27.6004 122.814 27.388 121.671 26.9633C120.544 26.5222 119.564 25.9015 118.73 25.101C117.897 24.3005 117.244 23.3612 116.77 22.283C116.313 21.2048 116.084 20.0204 116.084 18.7299C116.084 17.4393 116.313 16.2549 116.77 15.1767C117.244 14.0985 117.897 13.1592 118.73 12.3587C119.58 11.5583 120.568 10.9456 121.695 10.5209C122.823 10.0798 124.056 9.85929 125.396 9.85929C126.882 9.85929 128.222 10.1207 129.414 10.6434C130.623 11.1498 131.636 11.9013 132.453 12.8978L129.904 15.2502C129.316 14.5805 128.663 14.0822 127.944 13.7555C127.225 13.4124 126.441 13.2409 125.592 13.2409C124.791 13.2409 124.056 13.3716 123.386 13.633C122.716 13.8943 122.136 14.2701 121.646 14.7602C121.156 15.2502 120.772 15.8302 120.495 16.5C120.233 17.1697 120.103 17.913 120.103 18.7299C120.103 19.5467 120.233 20.29 120.495 20.9597C120.772 21.6295 121.156 22.2095 121.646 22.6996C122.136 23.1896 122.716 23.5654 123.386 23.8268C124.056 24.0881 124.791 24.2188 125.592 24.2188C126.441 24.2188 127.225 24.0555 127.944 23.7287C128.663 23.3857 129.316 22.8711 129.904 22.185L132.453 24.5374C131.636 25.5339 130.623 26.2935 129.414 26.8163C128.222 27.339 126.874 27.6004 125.371 27.6004ZM134.374 27.3064V14.123H138.025V17.8477L137.51 16.7695C137.903 15.8383 138.531 15.1359 139.397 14.6621C140.263 14.172 141.317 13.927 142.558 13.927V17.4556C142.395 17.4393 142.248 17.4311 142.117 17.4311C141.987 17.4148 141.848 17.4066 141.701 17.4066C140.655 17.4066 139.806 17.7088 139.152 18.3133C138.515 18.9014 138.197 19.8244 138.197 21.0823V27.3064H134.374ZM151.566 27.3064V24.7334L151.321 24.1698V19.563C151.321 18.7462 151.068 18.1091 150.562 17.6517C150.071 17.1942 149.312 16.9655 148.283 16.9655C147.58 16.9655 146.886 17.0799 146.2 17.3086C145.53 17.521 144.958 17.815 144.484 18.1908L143.112 15.5198C143.831 15.0134 144.697 14.6213 145.71 14.3436C146.723 14.0659 147.752 13.927 148.797 13.927C150.807 13.927 152.367 14.4008 153.478 15.3483C154.588 16.2958 155.144 17.7742 155.144 19.7835V27.3064H151.566ZM147.547 27.5024C146.518 27.5024 145.636 27.3309 144.901 26.9878C144.166 26.6284 143.602 26.1465 143.21 25.5421C142.818 24.9376 142.622 24.2597 142.622 23.5082C142.622 22.7241 142.81 22.0379 143.186 21.4498C143.578 20.8617 144.19 20.4043 145.024 20.0776C145.857 19.7345 146.943 19.563 148.283 19.563H151.787V21.7929H148.699C147.801 21.7929 147.18 21.9399 146.837 22.234C146.51 22.528 146.347 22.8956 146.347 23.3367C146.347 23.8268 146.535 24.2188 146.91 24.5129C147.302 24.7906 147.833 24.9294 148.503 24.9294C149.14 24.9294 149.712 24.7824 150.218 24.4884C150.725 24.178 151.092 23.7287 151.321 23.1406L151.909 24.9049C151.632 25.7544 151.125 26.3997 150.39 26.8408C149.655 27.2819 148.707 27.5024 147.547 27.5024ZM163.039 27.5024C161.912 27.5024 160.825 27.3717 159.78 27.1103C158.751 26.8326 157.934 26.4896 157.329 26.0811L158.604 23.3367C159.208 23.7124 159.919 24.0228 160.735 24.2678C161.569 24.4965 162.385 24.6109 163.186 24.6109C164.068 24.6109 164.689 24.5047 165.048 24.2923C165.424 24.08 165.612 23.7859 165.612 23.4102C165.612 23.0998 165.465 22.8711 165.171 22.7241C164.893 22.5607 164.517 22.4382 164.043 22.3565C163.57 22.2748 163.047 22.1931 162.475 22.1114C161.92 22.0298 161.356 21.9236 160.784 21.7929C160.213 21.6459 159.69 21.4335 159.216 21.1558C158.742 20.8781 158.358 20.5023 158.064 20.0286C157.787 19.5548 157.648 18.9422 157.648 18.1908C157.648 17.3576 157.885 16.6225 158.358 15.9854C158.849 15.3483 159.551 14.85 160.466 14.4906C161.381 14.1149 162.475 13.927 163.749 13.927C164.648 13.927 165.563 14.025 166.494 14.2211C167.425 14.4171 168.201 14.703 168.822 15.0787L167.548 17.7987C166.91 17.423 166.265 17.1697 165.612 17.0391C164.975 16.892 164.354 16.8185 163.749 16.8185C162.9 16.8185 162.279 16.9329 161.887 17.1616C161.495 17.3903 161.299 17.6843 161.299 18.0437C161.299 18.3705 161.438 18.6155 161.716 18.7789C162.01 18.9422 162.394 19.0729 162.867 19.1709C163.341 19.2689 163.856 19.3588 164.411 19.4405C164.983 19.5058 165.555 19.612 166.126 19.759C166.698 19.9061 167.213 20.1184 167.67 20.3961C168.144 20.6575 168.528 21.0251 168.822 21.4988C169.116 21.9563 169.263 22.5607 169.263 23.3122C169.263 24.129 169.018 24.8559 168.528 25.493C168.038 26.1138 167.327 26.6039 166.396 26.9633C165.481 27.3227 164.362 27.5024 163.039 27.5024ZM178.899 13.927C179.945 13.927 180.876 14.1394 181.693 14.5641C182.526 14.9725 183.179 15.6096 183.653 16.4755C184.127 17.3249 184.364 18.4195 184.364 19.759V27.3064H180.541V20.3471C180.541 19.2853 180.304 18.5011 179.83 17.9947C179.373 17.4883 178.72 17.2351 177.87 17.2351C177.266 17.2351 176.718 17.3658 176.228 17.6272C175.755 17.8722 175.379 18.2561 175.101 18.7789C174.84 19.3016 174.709 19.9714 174.709 20.7882V27.3064H170.886V9.12416H174.709V17.7742L173.851 16.6715C174.325 15.7893 175.003 15.1114 175.885 14.6376C176.767 14.1639 177.772 13.927 178.899 13.927Z" fill="#2A3034"/>
<path d="M58.6125 26.9633L58.5214 27.1962L58.5254 27.1977L58.6125 26.9633ZM55.672 25.101L55.4988 25.2813L55.4988 25.2813L55.672 25.101ZM53.7116 22.283L53.4814 22.3806L53.4827 22.3835L53.7116 22.283ZM53.7116 15.1767L53.4827 15.0761L53.4815 15.0791L53.7116 15.1767ZM55.672 12.3587L55.5005 12.1768L55.4988 12.1785L55.672 12.3587ZM58.637 10.5209L58.7251 10.7549L58.7281 10.7537L58.637 10.5209ZM66.3558 10.6434L66.2555 10.8724L66.2593 10.874L66.3558 10.6434ZM69.3944 12.8978L69.564 13.0815L69.7372 12.9216L69.5877 12.7393L69.3944 12.8978ZM66.8459 15.2502L66.6581 15.4152L66.8272 15.6078L67.0155 15.4339L66.8459 15.2502ZM64.8856 13.7555L64.7779 13.9811L64.7821 13.9831L64.8856 13.7555ZM58.588 14.7602L58.7648 14.9369L58.7648 14.9369L58.588 14.7602ZM57.4363 16.5L57.2053 16.4042L57.2034 16.4091L57.4363 16.5ZM57.4363 20.9597L57.2033 21.0507L57.2053 21.0555L57.4363 20.9597ZM58.588 22.6996L58.4112 22.8763L58.4112 22.8763L58.588 22.6996ZM64.8856 23.7287L64.9891 23.9564L64.9933 23.9544L64.8856 23.7287ZM66.8459 22.185L67.0155 22.0013L66.8249 21.8253L66.6561 22.0223L66.8459 22.185ZM69.3944 24.5374L69.5877 24.6959L69.7372 24.5136L69.564 24.3537L69.3944 24.5374ZM66.3558 26.8163L66.2566 26.5868L66.2555 26.5873L66.3558 26.8163ZM62.3126 27.3504C61.0166 27.3504 59.8129 27.1425 58.6995 26.7289L58.5254 27.1977C59.6991 27.6336 60.9622 27.8504 62.3126 27.8504V27.3504ZM58.7036 26.7305C57.6055 26.3008 56.6535 25.6974 55.8452 24.9207L55.4988 25.2813C56.3567 26.1055 57.3651 26.7437 58.5214 27.1961L58.7036 26.7305ZM55.8452 24.9207C55.0361 24.1433 54.4013 23.2312 53.9405 22.1824L53.4827 22.3835C53.9694 23.4911 54.6415 24.4577 55.4988 25.2813L55.8452 24.9207ZM53.9418 22.1853C53.4987 21.141 53.2755 19.9903 53.2755 18.7299H52.7755C52.7755 20.0505 53.0097 21.2685 53.4815 22.3806L53.9418 22.1853ZM53.2755 18.7299C53.2755 17.4694 53.4987 16.3187 53.9418 15.2744L53.4815 15.0791C53.0097 16.1912 52.7755 17.4092 52.7755 18.7299H53.2755ZM53.9405 15.2773C54.4013 14.2285 55.0361 13.3164 55.8452 12.539L55.4988 12.1785C54.6415 13.002 53.9694 13.9686 53.4827 15.0762L53.9405 15.2773ZM55.8434 12.5407C56.6681 11.7636 57.6279 11.1683 58.7251 10.7548L58.5488 10.287C57.3917 10.723 56.3748 11.3529 55.5005 12.1768L55.8434 12.5407ZM58.7281 10.7537C59.8233 10.3251 61.0254 10.1093 62.3371 10.1093V9.60929C60.9697 9.60929 59.7051 9.8345 58.5459 10.2881L58.7281 10.7537ZM62.3371 10.1093C63.7941 10.1093 65.0988 10.3653 66.2555 10.8724L66.4562 10.4145C65.2278 9.87599 63.8534 9.60929 62.3371 9.60929V10.1093ZM66.2593 10.874C67.4312 11.3649 68.4106 12.0919 69.201 13.0563L69.5877 12.7393C68.7446 11.7107 67.6983 10.9348 66.4524 10.4128L66.2593 10.874ZM69.2248 12.7141L66.6764 15.0665L67.0155 15.4339L69.564 13.0815L69.2248 12.7141ZM67.0338 15.0853C66.4253 14.3923 65.744 13.871 64.989 13.5279L64.7821 13.9831C65.4648 14.2933 66.0903 14.7686 66.6581 15.4152L67.0338 15.0853ZM64.9933 13.5299C64.2386 13.1697 63.4174 12.9909 62.5332 12.9909V13.4909C63.3479 13.4909 64.095 13.6551 64.7779 13.9811L64.9933 13.5299ZM62.5332 12.9909C61.7051 12.9909 60.9388 13.1262 60.2369 13.4001L60.4187 13.8658C61.0564 13.617 61.7603 13.4909 62.5332 13.4909V12.9909ZM60.2369 13.4001C59.5361 13.6735 58.9266 14.0679 58.4112 14.5834L58.7648 14.9369C59.2295 14.4722 59.7799 14.1151 60.4187 13.8658L60.2369 13.4001ZM58.4112 14.5834C57.8969 15.0977 57.495 15.7055 57.2053 16.4042L57.6672 16.5957C57.933 15.9548 58.2989 15.4028 58.7648 14.9369L58.4112 14.5834ZM57.2034 16.4091C56.9293 17.1115 56.7942 17.8861 56.7942 18.7299H57.2942C57.2942 17.9399 57.4205 17.228 57.6692 16.5908L57.2034 16.4091ZM56.7942 18.7299C56.7942 19.5736 56.9293 20.3482 57.2034 21.0506L57.6692 20.8689C57.4205 20.2317 57.2942 19.5198 57.2942 18.7299H56.7942ZM57.2053 21.0555C57.495 21.7542 57.8969 22.362 58.4112 22.8763L58.7648 22.5228C58.2989 22.0569 57.933 21.5049 57.6672 20.864L57.2053 21.0555ZM58.4112 22.8763C58.9266 23.3918 59.5361 23.7862 60.2369 24.0596L60.4187 23.5939C59.7799 23.3446 59.2295 22.9875 58.7648 22.5228L58.4112 22.8763ZM60.2369 24.0596C60.9388 24.3335 61.7051 24.4688 62.5332 24.4688V23.9688C61.7603 23.9688 61.0564 23.8427 60.4187 23.5939L60.2369 24.0596ZM62.5332 24.4688C63.4156 24.4688 64.2353 24.2989 64.989 23.9563L64.7821 23.5011C64.0982 23.812 63.3497 23.9688 62.5332 23.9688V24.4688ZM64.9933 23.9544C65.7475 23.5944 66.428 23.0567 67.0357 22.3477L66.6561 22.0223C66.0877 22.6855 65.4613 23.177 64.7779 23.5031L64.9933 23.9544ZM66.6764 22.3687L69.2248 24.7211L69.564 24.3537L67.0155 22.0013L66.6764 22.3687ZM69.201 24.3789C68.4101 25.3439 67.4298 26.0795 66.2566 26.5868L66.4551 27.0457C67.6997 26.5075 68.7451 25.7239 69.5877 24.6959L69.201 24.3789ZM66.2555 26.5873C65.0991 27.0942 63.7863 27.3504 62.3126 27.3504V27.8504C63.8448 27.8504 65.2275 27.5839 66.4562 27.0452L66.2555 26.5873ZM72.8947 26.6202L72.775 26.8397L72.7763 26.8405L72.8947 26.6202ZM70.3217 24.2188L70.1076 24.348L70.1101 24.3519L70.3217 24.2188ZM70.3217 17.2106L70.1091 17.079L70.1086 17.0799L70.3217 17.2106ZM72.8947 14.8092L73.0118 15.03L73.013 15.0294L72.8947 14.8092ZM80.3685 14.8092L80.2502 15.0294L80.2527 15.0307L80.3685 14.8092ZM82.9414 24.2188L83.1546 24.3495L83.1555 24.3479L82.9414 24.2188ZM80.3685 26.6202L80.2502 26.4L80.2502 26.4L80.3685 26.6202ZM78.3591 23.9248L78.4847 24.141L78.4847 24.141L78.3591 23.9248ZM79.5598 22.675L79.7793 22.7948L79.7808 22.792L79.5598 22.675ZM79.5598 18.7544L79.3404 18.8741L79.3404 18.8741L79.5598 18.7544ZM78.3591 17.5046L78.2336 17.7208L78.2336 17.7208L78.3591 17.5046ZM74.9285 17.5046L75.0541 17.7208L75.0541 17.7208L74.9285 17.5046ZM73.7033 18.7544L73.4866 18.6296L73.4838 18.6346L73.7033 18.7544ZM73.7033 22.675L73.4822 22.7921L73.4867 22.7998L73.7033 22.675ZM74.9285 23.9248L75.0541 23.7086L75.0541 23.7086L74.9285 23.9248ZM76.6438 27.2524C75.2747 27.2524 74.0666 26.9661 73.013 26.4L72.7763 26.8405C73.9118 27.4506 75.2031 27.7524 76.6438 27.7524V27.2524ZM73.0144 26.4008C71.9727 25.8326 71.1471 25.0614 70.5333 24.0857L70.1101 24.3519C70.7706 25.4019 71.6603 26.2317 72.775 26.8397L73.0144 26.4008ZM70.5358 24.0897C69.9406 23.1029 69.6406 21.9802 69.6406 20.7147H69.1406C69.1406 22.063 69.4613 23.2764 70.1076 24.3479L70.5358 24.0897ZM69.6406 20.7147C69.6406 19.4322 69.9409 18.3104 70.5349 17.3412L70.1086 17.0799C69.461 18.1365 69.1406 19.3508 69.1406 20.7147H69.6406ZM70.5343 17.3422C71.1479 16.351 71.9724 15.5812 73.0118 15.03L72.7775 14.5883C71.6605 15.1807 70.7698 16.0118 70.1092 17.079L70.5343 17.3422ZM73.013 15.0294C74.0666 14.4633 75.2747 14.177 76.6438 14.177V13.677C75.2031 13.677 73.9118 13.9789 72.7763 14.5889L73.013 15.0294ZM76.6438 14.177C77.9961 14.177 79.1961 14.463 80.2502 15.0294L80.4868 14.5889C79.3518 13.9791 78.0688 13.677 76.6438 13.677V14.177ZM80.2527 15.0307C81.3088 15.5824 82.1321 16.344 82.7283 17.3167L83.1546 17.0554C82.5092 16.0025 81.6172 15.1794 80.4842 14.5876L80.2527 15.0307ZM82.7283 17.3167C83.322 18.2854 83.6226 19.4152 83.6226 20.7147H84.1226C84.1226 19.3351 83.8024 18.1124 83.1546 17.0554L82.7283 17.3167ZM83.6226 20.7147C83.6226 21.9802 83.3226 23.1029 82.7274 24.0897L83.1555 24.3479C83.8018 23.2764 84.1226 22.063 84.1226 20.7147H83.6226ZM82.7283 24.0882C82.1317 25.0615 81.3076 25.8319 80.2502 26.4L80.4868 26.8405C81.6185 26.2324 82.5096 25.4018 83.1546 24.3495L82.7283 24.0882ZM80.2502 26.4C79.1961 26.9664 77.996 27.2524 76.6438 27.2524V27.7524C78.0688 27.7524 79.3518 27.4503 80.4868 26.8405L80.2502 26.4ZM76.6438 24.6158C77.321 24.6158 77.9368 24.4591 78.4847 24.141L78.2336 23.7086C77.7686 23.9786 77.2409 24.1158 76.6438 24.1158V24.6158ZM78.4847 24.141C79.0326 23.8228 79.4645 23.372 79.7793 22.7948L79.3404 22.5553C79.0671 23.0563 78.6985 23.4386 78.2336 23.7086L78.4847 24.141ZM79.7808 22.792C80.0973 22.1941 80.2509 21.499 80.2509 20.7147H79.7509C79.7509 21.4333 79.6105 22.0451 79.3389 22.5581L79.7808 22.792ZM80.2509 20.7147C80.2509 19.9154 80.0978 19.2185 79.7793 18.6346L79.3404 18.8741C79.61 19.3684 79.7509 19.9784 79.7509 20.7147H80.2509ZM79.7793 18.6346C79.4645 18.0574 79.0326 17.6066 78.4847 17.2884L78.2336 17.7208C78.6985 17.9908 79.0671 18.3731 79.3404 18.8741L79.7793 18.6346ZM78.4847 17.2884C77.9368 16.9703 77.321 16.8136 76.6438 16.8136V17.3136C77.2409 17.3136 77.7686 17.4508 78.2336 17.7208L78.4847 17.2884ZM76.6438 16.8136C75.9666 16.8136 75.3509 16.9703 74.803 17.2884L75.0541 17.7208C75.519 17.4508 76.0468 17.3136 76.6438 17.3136V16.8136ZM74.803 17.2884C74.2563 17.6058 73.8175 18.055 73.4867 18.6296L73.92 18.8791C74.2099 18.3755 74.5879 17.9915 75.0541 17.7208L74.803 17.2884ZM73.4838 18.6346C73.1653 19.2185 73.0122 19.9154 73.0122 20.7147H73.5122C73.5122 19.9784 73.6532 19.3684 73.9228 18.8741L73.4838 18.6346ZM73.0122 20.7147C73.0122 21.499 73.1658 22.1941 73.4824 22.792L73.9243 22.5581C73.6527 22.0451 73.5122 21.4333 73.5122 20.7147H73.0122ZM73.4867 22.7998C73.8175 23.3744 74.2563 23.8236 74.803 24.141L75.0541 23.7086C74.5879 23.4379 74.2099 23.0539 73.92 22.5503L73.4867 22.7998ZM74.803 24.141C75.3509 24.4591 75.9666 24.6158 76.6438 24.6158V24.1158C76.0468 24.1158 75.519 23.9786 75.0541 23.7086L74.803 24.141ZM88.2411 26.6693L88.1167 26.8861L88.1194 26.8876L88.2411 26.6693ZM85.8642 24.2923L85.6464 24.4152L85.648 24.4179L85.8642 24.2923ZM85.8642 17.1126L85.6479 16.987L85.6465 16.9897L85.8642 17.1126ZM88.2411 14.7602L88.1194 14.5418L88.1194 14.5418L88.2411 14.7602ZM94.5142 14.6621L94.6409 14.4466L94.6409 14.4466L94.5142 14.6621ZM96.45 16.892L96.6772 16.7877L96.6772 16.7877L96.45 16.892ZM96.4745 24.5374L96.7031 24.6386L96.7037 24.6372L96.4745 24.5374ZM94.5632 26.7673L94.4364 26.5518L94.4346 26.5529L94.5632 26.7673ZM93.9506 23.9248L93.8251 23.7086L93.8251 23.7086L93.9506 23.9248ZM95.1513 22.675L94.9331 22.5531L94.9318 22.5553L95.1513 22.675ZM95.1513 18.7544L94.9318 18.8741L94.9346 18.8791L95.1513 18.7544ZM93.9506 17.5046L93.8251 17.7208L93.8251 17.7208L93.9506 17.5046ZM90.5445 17.5046L90.67 17.7208L90.67 17.7208L90.5445 17.5046ZM89.3193 18.7544L89.1026 18.6296L89.0998 18.6346L89.3193 18.7544ZM89.3193 22.675L89.0982 22.7921L89.1026 22.7998L89.3193 22.675ZM90.5445 23.9248L90.67 23.7086L90.67 23.7086L90.5445 23.9248ZM95.7149 27.3064H95.4649V27.5564H95.7149V27.3064ZM95.7149 24.6109L95.4649 24.6062V24.6109H95.7149ZM95.7884 20.6902L96.0384 20.6949L96.0386 20.6847L96.0379 20.6745L95.7884 20.6902ZM95.5434 16.794H95.2934V16.8019L95.2939 16.8097L95.5434 16.794ZM95.5434 9.12416V8.87416H95.2934V9.12416H95.5434ZM99.366 9.12416H99.616V8.87416H99.366V9.12416ZM99.366 27.3064V27.5564H99.616V27.3064H99.366ZM91.5982 27.2524C90.3954 27.2524 89.3189 26.9838 88.3628 26.4509L88.1194 26.8876C89.1563 27.4656 90.3179 27.7524 91.5982 27.7524V27.2524ZM88.3655 26.4524C87.4078 25.9029 86.6469 25.1425 86.0804 24.1668L85.648 24.4179C86.2577 25.4679 87.0813 26.292 88.1167 26.8861L88.3655 26.4524ZM86.0819 24.1694C85.5348 23.2003 85.2565 22.0517 85.2565 20.7147H84.7565C84.7565 22.1222 85.05 23.3586 85.6465 24.4152L86.0819 24.1694ZM85.2565 20.7147C85.2565 19.3608 85.535 18.2041 86.0819 17.2355L85.6465 16.9897C85.0498 18.0467 84.7565 19.2914 84.7565 20.7147H85.2565ZM86.0804 17.2381C86.6465 16.263 87.4066 15.5115 88.3628 14.9785L88.1194 14.5418C87.0825 15.1197 86.258 15.9364 85.648 16.987L86.0804 17.2381ZM88.3628 14.9785C89.3189 14.4456 90.3954 14.177 91.5982 14.177V13.677C90.3179 13.677 89.1563 13.9638 88.1194 14.5418L88.3628 14.9785ZM91.5982 14.177C92.6712 14.177 93.5981 14.4133 94.3874 14.8776L94.6409 14.4466C93.7639 13.9308 92.7469 13.677 91.5982 13.677V14.177ZM94.3874 14.8776C95.1707 15.3384 95.7838 16.0398 96.2228 16.9963L96.6772 16.7877C96.2015 15.7512 95.5239 14.966 94.6409 14.4466L94.3874 14.8776ZM96.2228 16.9963C96.6603 17.9495 96.8862 19.1848 96.8862 20.7147H97.3862C97.3862 19.1407 97.1546 17.8276 96.6772 16.7877L96.2228 16.9963ZM96.8862 20.7147C96.8862 22.2285 96.6684 23.4659 96.2453 24.4376L96.7037 24.6372C97.1628 23.5831 97.3862 22.2721 97.3862 20.7147H96.8862ZM96.2459 24.4362C95.8232 25.3912 95.2189 26.0915 94.4364 26.5518L94.69 26.9828C95.5738 26.4628 96.2437 25.6765 96.7031 24.6386L96.2459 24.4362ZM94.4346 26.5529C93.6643 27.0151 92.7226 27.2524 91.5982 27.2524V27.7524C92.7935 27.7524 93.8285 27.4996 94.6918 26.9816L94.4346 26.5529ZM92.2598 24.6158C92.9219 24.6158 93.5293 24.4585 94.0761 24.141L93.8251 23.7086C93.3591 23.9791 92.8392 24.1158 92.2598 24.1158V24.6158ZM94.0761 24.141C94.6241 23.8228 95.0559 23.372 95.3708 22.7948L94.9318 22.5553C94.6586 23.0563 94.29 23.4386 93.8251 23.7086L94.0761 24.141ZM95.3695 22.797C95.7042 22.1981 95.8669 21.5011 95.8669 20.7147H95.3669C95.3669 21.4312 95.2191 22.0412 94.9331 22.5531L95.3695 22.797ZM95.8669 20.7147C95.8669 19.9133 95.7048 19.2146 95.368 18.6296L94.9346 18.8791C95.2186 19.3723 95.3669 19.9805 95.3669 20.7147H95.8669ZM95.3708 18.6346C95.0559 18.0574 94.6241 17.6066 94.0761 17.2884L93.8251 17.7208C94.29 17.9908 94.6586 18.3731 94.9318 18.8741L95.3708 18.6346ZM94.0761 17.2884C93.5293 16.9709 92.9219 16.8136 92.2598 16.8136V17.3136C92.8392 17.3136 93.3591 17.4503 93.8251 17.7208L94.0761 17.2884ZM92.2598 16.8136C91.5826 16.8136 90.9668 16.9703 90.419 17.2884L90.67 17.7208C91.135 17.4508 91.6628 17.3136 92.2598 17.3136V16.8136ZM90.419 17.2884C89.8723 17.6058 89.4334 18.055 89.1026 18.6296L89.5359 18.8791C89.8259 18.3755 90.2038 17.9915 90.67 17.7208L90.419 17.2884ZM89.0998 18.6346C88.7813 19.2185 88.6282 19.9154 88.6282 20.7147H89.1282C89.1282 19.9784 89.2691 19.3684 89.5387 18.8741L89.0998 18.6346ZM88.6282 20.7147C88.6282 21.499 88.7818 22.1941 89.0983 22.792L89.5402 22.5581C89.2686 22.0451 89.1282 21.4333 89.1282 20.7147H88.6282ZM89.1026 22.7998C89.4334 23.3744 89.8723 23.8236 90.419 24.141L90.67 23.7086C90.2038 23.4379 89.8259 23.0539 89.5359 22.5503L89.1026 22.7998ZM90.419 24.141C90.9668 24.4591 91.5826 24.6158 92.2598 24.6158V24.1158C91.6628 24.1158 91.135 23.9786 90.67 23.7086L90.419 24.141ZM95.9649 27.3064V24.6109H95.4649V27.3064H95.9649ZM95.9649 24.6156L96.0384 20.6949L95.5385 20.6855L95.4649 24.6062L95.9649 24.6156ZM96.0379 20.6745L95.7929 16.7783L95.2939 16.8097L95.5389 20.7059L96.0379 20.6745ZM95.7934 16.794V9.12416H95.2934V16.794H95.7934ZM95.5434 9.37416H99.366V8.87416H95.5434V9.37416ZM99.116 9.12416V27.3064H99.616V9.12416H99.116ZM99.366 27.0564H95.7149V27.5564H99.366V27.0564ZM104.252 26.6202L104.136 26.8419L104.137 26.8426L104.252 26.6202ZM101.63 24.2188L101.416 24.3479L101.417 24.3495L101.63 24.2188ZM101.605 17.2106L101.391 17.0815L101.391 17.0825L101.605 17.2106ZM104.129 14.8092L104.248 15.0293L104.25 15.0279L104.129 14.8092ZM111.211 14.7602L111.092 14.9802L111.096 14.9824L111.211 14.7602ZM113.686 17.1126L113.47 17.2392L113.471 17.2407L113.686 17.1126ZM114.568 21.2783L114.817 21.3009L114.817 21.2991L114.568 21.2783ZM114.519 21.7929V22.0429H114.745L114.768 21.8178L114.519 21.7929ZM103.811 21.7929H103.561V22.0429H103.811V21.7929ZM103.811 19.563V19.313H103.561V19.563H103.811ZM112.51 19.563L112.612 19.791L112.51 19.313V19.563ZM111.039 20.2246H110.789V20.6113L111.142 20.4526L111.039 20.2246ZM110.623 18.4358L110.404 18.556L110.404 18.556L110.623 18.4358ZM109.471 17.2596L109.343 17.474L109.348 17.4771L109.471 17.2596ZM106.016 17.2596L106.139 17.4771L106.142 17.4758L106.016 17.2596ZM104.864 18.4603L105.084 18.5805L105.085 18.5776L104.864 18.4603ZM104.913 22.7731L104.695 22.8951L104.7 22.9026L104.913 22.7731ZM106.261 24.0228L106.147 24.2452L106.154 24.2488L106.261 24.0228ZM110.157 24.1208L110.066 23.8882L110.063 23.8892L110.157 24.1208ZM111.628 23.1651L111.811 22.9956L111.638 22.8079L111.454 22.9851L111.628 23.1651ZM113.661 25.3705L113.849 25.5358L113.998 25.3667L113.845 25.201L113.661 25.3705ZM111.383 26.9633L111.474 27.196L111.478 27.1946L111.383 26.9633ZM108.221 27.2524C106.752 27.2524 105.469 26.965 104.366 26.3979L104.137 26.8426C105.322 27.4517 106.685 27.7524 108.221 27.7524V27.2524ZM104.367 26.3986C103.277 25.8299 102.438 25.0597 101.843 24.0882L101.417 24.3495C102.063 25.4036 102.972 26.2344 104.136 26.8419L104.367 26.3986ZM101.844 24.0897C101.249 23.1029 100.949 21.9802 100.949 20.7147H100.449C100.449 22.063 100.769 23.2764 101.416 24.3479L101.844 24.0897ZM100.949 20.7147C100.949 19.4309 101.241 18.3082 101.82 17.3387L101.391 17.0825C100.76 18.1386 100.449 19.352 100.449 20.7147H100.949ZM101.819 17.3397C102.417 16.349 103.225 15.5799 104.248 15.0293L104.011 14.589C102.91 15.182 102.035 16.0138 101.391 17.0815L101.819 17.3397ZM104.25 15.0279C105.271 14.4624 106.43 14.177 107.731 14.177V13.677C106.354 13.677 105.111 13.9798 104.008 14.5905L104.25 15.0279ZM107.731 14.177C108.985 14.177 110.103 14.4464 111.092 14.9802L111.33 14.5401C110.26 13.963 109.059 13.677 107.731 13.677V14.177ZM111.096 14.9824C112.099 15.4994 112.89 16.2501 113.47 17.2392L113.902 16.986C113.274 15.9166 112.414 15.0991 111.326 14.5379L111.096 14.9824ZM113.471 17.2407C114.048 18.2075 114.343 19.3783 114.343 20.7637H114.843C114.843 19.3066 114.533 18.0433 113.901 16.9845L113.471 17.2407ZM114.343 20.7637C114.343 20.9019 114.335 21.0663 114.319 21.2575L114.817 21.2991C114.834 21.0983 114.843 20.9195 114.843 20.7637H114.343ZM114.319 21.2557C114.303 21.4347 114.287 21.6055 114.27 21.768L114.768 21.8178C114.784 21.6536 114.801 21.4813 114.817 21.3009L114.319 21.2557ZM114.519 21.5429H103.811V22.0429H114.519V21.5429ZM104.061 21.7929V19.563H103.561V21.7929H104.061ZM103.811 19.813H112.51V19.313H103.811V19.813ZM112.407 19.335L110.937 19.9966L111.142 20.4526L112.612 19.791L112.407 19.335ZM111.289 20.2246C111.289 19.5044 111.144 18.8652 110.842 18.3156L110.404 18.556C110.658 19.0192 110.789 19.5726 110.789 20.2246H111.289ZM110.842 18.3156C110.543 17.7695 110.126 17.3433 109.594 17.0421L109.348 17.4771C109.797 17.7313 110.148 18.0892 110.404 18.556L110.842 18.3156ZM109.6 17.0452C109.066 16.7247 108.448 16.5685 107.756 16.5685V17.0685C108.371 17.0685 108.897 17.2064 109.343 17.474L109.6 17.0452ZM107.756 16.5685C107.064 16.5685 106.439 16.7247 105.891 17.0434L106.142 17.4758C106.606 17.2064 107.141 17.0685 107.756 17.0685V16.5685ZM105.893 17.0421C105.359 17.3445 104.942 17.7805 104.644 18.343L105.085 18.5776C105.342 18.0946 105.693 17.7301 106.139 17.4771L105.893 17.0421ZM104.645 18.3401C104.343 18.8905 104.198 19.5382 104.198 20.2736H104.698C104.698 19.6042 104.83 19.0429 105.084 18.5805L104.645 18.3401ZM104.198 20.2736V20.8617H104.698V20.2736H104.198ZM104.198 20.8617C104.198 21.6176 104.361 22.2977 104.695 22.895L105.132 22.6511C104.845 22.1376 104.698 21.5435 104.698 20.8617H104.198ZM104.7 22.9026C105.051 23.4821 105.535 23.9304 106.147 24.2451L106.375 23.8005C105.844 23.5271 105.429 23.1423 105.127 22.6435L104.7 22.9026ZM106.154 24.2488C106.782 24.5452 107.506 24.6894 108.32 24.6894V24.1894C107.565 24.1894 106.916 24.0558 106.368 23.7967L106.154 24.2488ZM108.32 24.6894C109.047 24.6894 109.692 24.5795 110.251 24.3524L110.063 23.8892C109.577 24.0868 108.997 24.1894 108.32 24.1894V24.6894ZM110.249 24.3534C110.82 24.1284 111.338 23.7913 111.801 23.3452L111.454 22.9851C111.035 23.3884 110.573 23.6885 110.066 23.8882L110.249 24.3534ZM111.444 23.3346L113.478 25.54L113.845 25.201L111.811 22.9956L111.444 23.3346ZM113.474 25.2053C112.897 25.8603 112.17 26.3697 111.288 26.7321L111.478 27.1946C112.425 26.8054 113.217 26.253 113.849 25.5358L113.474 25.2053ZM111.291 26.7306C110.411 27.0764 109.389 27.2524 108.221 27.2524V27.7524C109.439 27.7524 110.525 27.569 111.474 27.196L111.291 26.7306ZM121.671 26.9633L121.58 27.1962L121.584 27.1977L121.671 26.9633ZM118.73 25.101L118.557 25.2813L118.557 25.2813L118.73 25.101ZM116.77 22.283L116.54 22.3806L116.541 22.3835L116.77 22.283ZM116.77 15.1767L116.541 15.0761L116.54 15.0791L116.77 15.1767ZM118.73 12.3587L118.559 12.1768L118.557 12.1785L118.73 12.3587ZM121.695 10.5209L121.784 10.7549L121.787 10.7537L121.695 10.5209ZM129.414 10.6434L129.314 10.8724L129.318 10.874L129.414 10.6434ZM132.453 12.8978L132.622 13.0815L132.796 12.9216L132.646 12.7393L132.453 12.8978ZM129.904 15.2502L129.717 15.4152L129.886 15.6078L130.074 15.4339L129.904 15.2502ZM127.944 13.7555L127.836 13.9811L127.841 13.9831L127.944 13.7555ZM121.646 14.7602L121.823 14.9369L121.823 14.9369L121.646 14.7602ZM120.495 16.5L120.264 16.4042L120.262 16.4091L120.495 16.5ZM120.495 20.9597L120.262 21.0507L120.264 21.0555L120.495 20.9597ZM121.646 22.6996L121.47 22.8763L121.47 22.8763L121.646 22.6996ZM127.944 23.7287L128.047 23.9564L128.052 23.9544L127.944 23.7287ZM129.904 22.185L130.074 22.0013L129.883 21.8253L129.715 22.0223L129.904 22.185ZM132.453 24.5374L132.646 24.6959L132.796 24.5136L132.622 24.3537L132.453 24.5374ZM129.414 26.8163L129.315 26.5868L129.314 26.5873L129.414 26.8163ZM125.371 27.3504C124.075 27.3504 122.871 27.1425 121.758 26.7289L121.584 27.1977C122.758 27.6336 124.021 27.8504 125.371 27.8504V27.3504ZM121.762 26.7305C120.664 26.3008 119.712 25.6974 118.904 24.9207L118.557 25.2813C119.415 26.1055 120.424 26.7437 121.58 27.1961L121.762 26.7305ZM118.904 24.9207C118.095 24.1433 117.46 23.2312 116.999 22.1824L116.541 22.3835C117.028 23.4911 117.7 24.4577 118.557 25.2813L118.904 24.9207ZM117 22.1853C116.557 21.141 116.334 19.9903 116.334 18.7299H115.834C115.834 20.0505 116.068 21.2685 116.54 22.3806L117 22.1853ZM116.334 18.7299C116.334 17.4694 116.557 16.3187 117 15.2744L116.54 15.0791C116.068 16.1912 115.834 17.4092 115.834 18.7299H116.334ZM116.999 15.2773C117.46 14.2285 118.095 13.3164 118.904 12.539L118.557 12.1785C117.7 13.002 117.028 13.9686 116.541 15.0762L116.999 15.2773ZM118.902 12.5407C119.727 11.7636 120.686 11.1683 121.784 10.7548L121.607 10.287C120.45 10.723 119.433 11.3529 118.559 12.1768L118.902 12.5407ZM121.787 10.7537C122.882 10.3251 124.084 10.1093 125.396 10.1093V9.60929C124.028 9.60929 122.763 9.8345 121.604 10.2881L121.787 10.7537ZM125.396 10.1093C126.852 10.1093 128.157 10.3653 129.314 10.8724L129.515 10.4145C128.286 9.87599 126.912 9.60929 125.396 9.60929V10.1093ZM129.318 10.874C130.49 11.3649 131.469 12.0919 132.259 13.0563L132.646 12.7393C131.803 11.7107 130.757 10.9348 129.511 10.4128L129.318 10.874ZM132.283 12.7141L129.735 15.0665L130.074 15.4339L132.622 13.0815L132.283 12.7141ZM130.092 15.0853C129.484 14.3923 128.802 13.871 128.047 13.5279L127.841 13.9831C128.523 14.2933 129.149 14.7686 129.717 15.4152L130.092 15.0853ZM128.052 13.5299C127.297 13.1697 126.476 12.9909 125.592 12.9909V13.4909C126.406 13.4909 127.153 13.6551 127.836 13.9811L128.052 13.5299ZM125.592 12.9909C124.764 12.9909 123.997 13.1262 123.295 13.4001L123.477 13.8658C124.115 13.617 124.819 13.4909 125.592 13.4909V12.9909ZM123.295 13.4001C122.595 13.6735 121.985 14.0679 121.47 14.5834L121.823 14.9369C122.288 14.4722 122.838 14.1151 123.477 13.8658L123.295 13.4001ZM121.47 14.5834C120.955 15.0977 120.553 15.7055 120.264 16.4042L120.726 16.5957C120.991 15.9548 121.357 15.4028 121.823 14.9369L121.47 14.5834ZM120.262 16.4091C119.988 17.1115 119.853 17.8861 119.853 18.7299H120.353C120.353 17.9399 120.479 17.228 120.728 16.5908L120.262 16.4091ZM119.853 18.7299C119.853 19.5736 119.988 20.3482 120.262 21.0506L120.728 20.8689C120.479 20.2317 120.353 19.5198 120.353 18.7299H119.853ZM120.264 21.0555C120.553 21.7542 120.955 22.362 121.47 22.8763L121.823 22.5228C121.357 22.0569 120.991 21.5049 120.726 20.864L120.264 21.0555ZM121.47 22.8763C121.985 23.3918 122.595 23.7862 123.295 24.0596L123.477 23.5939C122.838 23.3446 122.288 22.9875 121.823 22.5228L121.47 22.8763ZM123.295 24.0596C123.997 24.3335 124.764 24.4688 125.592 24.4688V23.9688C124.819 23.9688 124.115 23.8427 123.477 23.5939L123.295 24.0596ZM125.592 24.4688C126.474 24.4688 127.294 24.2989 128.047 23.9563L127.841 23.5011C127.157 23.812 126.408 23.9688 125.592 23.9688V24.4688ZM128.052 23.9544C128.806 23.5944 129.486 23.0567 130.094 22.3477L129.715 22.0223C129.146 22.6855 128.52 23.177 127.836 23.5031L128.052 23.9544ZM129.735 22.3687L132.283 24.7211L132.622 24.3537L130.074 22.0013L129.735 22.3687ZM132.259 24.3789C131.469 25.3439 130.488 26.0795 129.315 26.5868L129.514 27.0457C130.758 26.5075 131.804 25.7239 132.646 24.6959L132.259 24.3789ZM129.314 26.5873C128.158 27.0942 126.845 27.3504 125.371 27.3504V27.8504C126.903 27.8504 128.286 27.5839 129.515 27.0452L129.314 26.5873ZM134.374 27.3064H134.124V27.5564H134.374V27.3064ZM134.374 14.123V13.873H134.124V14.123H134.374ZM138.025 14.123H138.275V13.873H138.025V14.123ZM138.025 17.8477L137.799 17.9554L138.275 17.8477H138.025ZM137.51 16.7695L137.28 16.6725L137.237 16.7759L137.285 16.8772L137.51 16.7695ZM139.397 14.6621L139.517 14.8815L139.52 14.8797L139.397 14.6621ZM142.558 13.927H142.808V13.677H142.558V13.927ZM142.558 17.4556L142.533 17.7044L142.808 17.7319V17.4556H142.558ZM142.117 17.4311L142.086 17.6792L142.102 17.6811H142.117V17.4311ZM139.152 18.3133L139.322 18.497L139.322 18.4968L139.152 18.3133ZM138.197 27.3064V27.5564H138.447V27.3064H138.197ZM134.624 27.3064V14.123H134.124V27.3064H134.624ZM134.374 14.373H138.025V13.873H134.374V14.373ZM137.775 14.123V17.8477H138.275V14.123H137.775ZM138.251 17.74L137.736 16.6618L137.285 16.8772L137.799 17.9554L138.251 17.74ZM137.741 16.8665C138.112 15.9861 138.702 15.3274 139.517 14.8814L139.277 14.4428C138.361 14.9444 137.693 15.6906 137.28 16.6725L137.741 16.8665ZM139.52 14.8797C140.34 14.4155 141.349 14.177 142.558 14.177V13.677C141.284 13.677 140.186 13.9286 139.274 14.4446L139.52 14.8797ZM142.308 13.927V17.4556H142.808V13.927H142.308ZM142.583 17.2069C142.414 17.1899 142.258 17.1811 142.117 17.1811V17.6811C142.238 17.6811 142.376 17.6887 142.533 17.7044L142.583 17.2069ZM142.148 17.1831C142.006 17.1653 141.857 17.1566 141.701 17.1566V17.6566C141.839 17.6566 141.967 17.6643 142.086 17.6792L142.148 17.1831ZM141.701 17.1566C140.604 17.1566 139.69 17.4752 138.982 18.1298L139.322 18.4968C139.921 17.9424 140.706 17.6566 141.701 17.6566V17.1566ZM138.983 18.1296C138.275 18.783 137.947 19.7865 137.947 21.0823H138.447C138.447 19.8623 138.755 19.0198 139.322 18.497L138.983 18.1296ZM137.947 21.0823V27.3064H138.447V21.0823H137.947ZM138.197 27.0564H134.374V27.5564H138.197V27.0564ZM151.566 27.3064H151.316V27.5564H151.566V27.3064ZM151.566 24.7334H151.816V24.6814L151.795 24.6337L151.566 24.7334ZM151.321 24.1698H151.071V24.2218L151.092 24.2695L151.321 24.1698ZM150.562 17.6517L150.391 17.8344L150.394 17.8372L150.562 17.6517ZM146.2 17.3086L146.275 17.5469L146.279 17.5458L146.2 17.3086ZM144.484 18.1908L144.262 18.305L144.401 18.5758L144.64 18.3866L144.484 18.1908ZM143.112 15.5198L142.968 15.3154L142.79 15.4406L142.89 15.634L143.112 15.5198ZM145.71 14.3436L145.644 14.1025L145.644 14.1025L145.71 14.3436ZM153.478 15.3483L153.64 15.158L153.64 15.158L153.478 15.3483ZM155.144 27.3064V27.5564H155.394V27.3064H155.144ZM144.901 26.9878L144.791 27.2124L144.795 27.2144L144.901 26.9878ZM143.21 25.5421L143.42 25.406L143.42 25.406L143.21 25.5421ZM143.186 21.4498L142.978 21.3111L142.975 21.3152L143.186 21.4498ZM145.024 20.0776L145.115 20.3104L145.119 20.3088L145.024 20.0776ZM151.787 19.563H152.037V19.313H151.787V19.563ZM151.787 21.7929V22.0429H152.037V21.7929H151.787ZM146.837 22.234L146.674 22.0441L146.67 22.0481L146.837 22.234ZM146.91 24.5129L146.756 24.71L146.766 24.7169L146.91 24.5129ZM150.218 24.4884L150.344 24.7046L150.349 24.7015L150.218 24.4884ZM151.321 23.1406L151.558 23.0616L151.339 22.4043L151.088 23.05L151.321 23.1406ZM151.909 24.9049L152.147 24.9826L152.173 24.9042L152.146 24.8259L151.909 24.9049ZM150.39 26.8408L150.261 26.6264L150.261 26.6264L150.39 26.8408ZM151.816 27.3064V24.7334H151.316V27.3064H151.816ZM151.795 24.6337L151.55 24.0701L151.092 24.2695L151.337 24.8331L151.795 24.6337ZM151.571 24.1698V19.563H151.071V24.1698H151.571ZM151.571 19.563C151.571 18.6906 151.298 17.9802 150.729 17.4661L150.394 17.8372C150.838 18.2379 151.071 18.8017 151.071 19.563H151.571ZM150.732 17.4689C150.176 16.9501 149.342 16.7155 148.283 16.7155V17.2155C149.281 17.2155 149.967 17.4384 150.391 17.8344L150.732 17.4689ZM148.283 16.7155C147.552 16.7155 146.832 16.8345 146.121 17.0714L146.279 17.5458C146.94 17.3253 147.608 17.2155 148.283 17.2155V16.7155ZM146.124 17.0703C145.43 17.2904 144.83 17.5975 144.329 17.9949L144.64 18.3866C145.086 18.0326 145.63 17.7516 146.275 17.5469L146.124 17.0703ZM144.707 18.0765L143.335 15.4055L142.89 15.634L144.262 18.305L144.707 18.0765ZM143.256 15.7242C143.947 15.2373 144.786 14.8562 145.776 14.5847L145.644 14.1025C144.608 14.3864 143.715 14.7895 142.968 15.3154L143.256 15.7242ZM145.776 14.5847C146.767 14.3128 147.774 14.177 148.797 14.177V13.677C147.729 13.677 146.678 13.8189 145.644 14.1025L145.776 14.5847ZM148.797 14.177C150.769 14.177 152.264 14.6419 153.315 15.5385L153.64 15.158C152.469 14.1596 150.844 13.677 148.797 13.677V14.177ZM153.315 15.5385C154.352 16.4225 154.894 17.8185 154.894 19.7835H155.394C155.394 17.7299 154.825 16.169 153.64 15.158L153.315 15.5385ZM154.894 19.7835V27.3064H155.394V19.7835H154.894ZM155.144 27.0564H151.566V27.5564H155.144V27.0564ZM147.547 27.2524C146.545 27.2524 145.701 27.0853 145.007 26.7613L144.795 27.2144C145.571 27.5764 146.491 27.7524 147.547 27.7524V27.2524ZM145.011 26.7632C144.311 26.421 143.784 25.9675 143.42 25.406L143 25.6781C143.42 26.3255 144.021 26.8359 144.791 27.2124L145.011 26.7632ZM143.42 25.406C143.055 24.8439 142.872 24.2136 142.872 23.5082H142.372C142.372 24.3058 142.581 25.0314 143 25.6781L143.42 25.406ZM142.872 23.5082C142.872 22.7657 143.049 22.1275 143.396 21.5844L142.975 21.3152C142.571 21.9484 142.372 22.6824 142.372 23.5082H142.872ZM143.394 21.5885C143.751 21.0531 144.317 20.6234 145.115 20.3103L144.932 19.8448C144.064 20.1853 143.405 20.6704 142.978 21.3112L143.394 21.5885ZM145.119 20.3088C145.911 19.9826 146.961 19.813 148.283 19.813V19.313C146.925 19.313 145.803 19.4864 144.928 19.8464L145.119 20.3088ZM148.283 19.813H151.787V19.313H148.283V19.813ZM151.537 19.563V21.7929H152.037V19.563H151.537ZM151.787 21.5429H148.699V22.0429H151.787V21.5429ZM148.699 21.5429C147.791 21.5429 147.09 21.6878 146.674 22.0442L147 22.4238C147.27 22.192 147.81 22.0429 148.699 22.0429V21.5429ZM146.67 22.0481C146.29 22.3898 146.097 22.825 146.097 23.3367H146.597C146.597 22.9662 146.73 22.6662 147.004 22.4198L146.67 22.0481ZM146.097 23.3367C146.097 23.9012 146.318 24.3668 146.756 24.7097L147.064 24.316C146.751 24.0708 146.597 23.7523 146.597 23.3367H146.097ZM146.766 24.7169C147.214 25.0342 147.801 25.1794 148.503 25.1794V24.6794C147.865 24.6794 147.391 24.547 147.055 24.3089L146.766 24.7169ZM148.503 25.1794C149.18 25.1794 149.796 25.0227 150.344 24.7046L150.093 24.2722C149.628 24.5422 149.1 24.6794 148.503 24.6794V25.1794ZM150.349 24.7015C150.905 24.3607 151.307 23.8669 151.554 23.2312L151.088 23.05C150.878 23.5906 150.545 23.9952 150.088 24.2752L150.349 24.7015ZM151.084 23.2197L151.672 24.984L152.146 24.8259L151.558 23.0616L151.084 23.2197ZM151.672 24.8273C151.412 25.6222 150.943 26.2177 150.261 26.6264L150.519 27.0552C151.308 26.5817 151.851 25.8867 152.147 24.9826L151.672 24.8273ZM150.261 26.6264C149.576 27.0373 148.677 27.2524 147.547 27.2524V27.7524C148.737 27.7524 149.733 27.5264 150.519 27.0552L150.261 26.6264ZM159.78 27.1103L159.715 27.3517L159.719 27.3529L159.78 27.1103ZM157.329 26.0811L157.103 25.9759L157.013 26.1691L157.189 26.2883L157.329 26.0811ZM158.604 23.3367L158.736 23.1243L158.496 22.9753L158.377 23.2314L158.604 23.3367ZM160.735 24.2678L160.664 24.5074L160.669 24.5089L160.735 24.2678ZM165.048 24.2923L164.925 24.0747L164.921 24.0771L165.048 24.2923ZM165.171 22.7241L165.044 22.9395L165.051 22.9439L165.059 22.9477L165.171 22.7241ZM164.043 22.3565L164.001 22.6029L164.001 22.6029L164.043 22.3565ZM162.475 22.1114L162.439 22.3588L162.44 22.3589L162.475 22.1114ZM160.784 21.7929L160.722 22.0351L160.729 22.0366L160.784 21.7929ZM159.216 21.1558L159.343 20.9401L159.343 20.9401L159.216 21.1558ZM158.064 20.0286L157.849 20.1551L157.852 20.1604L158.064 20.0286ZM158.358 15.9854L158.16 15.8329L158.158 15.8362L158.358 15.9854ZM160.466 14.4906L160.557 14.7233L160.561 14.7219L160.466 14.4906ZM166.494 14.2211L166.545 13.9764L166.545 13.9764L166.494 14.2211ZM168.822 15.0787L169.048 15.1848L169.144 14.9812L168.951 14.8648L168.822 15.0787ZM167.548 17.7987L167.421 18.014L167.657 18.1537L167.774 17.9047L167.548 17.7987ZM165.612 17.0391L165.556 17.2828L165.563 17.2842L165.612 17.0391ZM161.887 17.1616L161.761 16.9456L161.761 16.9456L161.887 17.1616ZM161.716 18.7789L161.589 18.9944L161.594 18.9974L161.716 18.7789ZM164.411 19.4405L164.375 19.6879L164.383 19.6889L164.411 19.4405ZM166.126 19.759L166.189 19.5169L166.189 19.5169L166.126 19.759ZM167.67 20.3961L167.54 20.61L167.549 20.615L167.67 20.3961ZM168.822 21.4988L168.609 21.6307L168.612 21.634L168.822 21.4988ZM168.528 25.493L168.724 25.648L168.726 25.6455L168.528 25.493ZM166.396 26.9633L166.306 26.7301L166.304 26.7306L166.396 26.9633ZM163.039 27.2524C161.931 27.2524 160.865 27.124 159.84 26.8678L159.719 27.3529C160.785 27.6194 161.892 27.7524 163.039 27.7524V27.2524ZM159.845 26.869C158.831 26.5954 158.043 26.2616 157.469 25.874L157.189 26.2883C157.825 26.7175 158.67 27.0698 159.715 27.3517L159.845 26.869ZM157.556 26.1864L158.83 23.4419L158.377 23.2314L157.103 25.9759L157.556 26.1864ZM158.472 23.549C159.098 23.9384 159.83 24.2571 160.664 24.5073L160.807 24.0284C160.008 23.7885 159.318 23.4864 158.736 23.1243L158.472 23.549ZM160.669 24.5089C161.522 24.7431 162.361 24.8609 163.186 24.8609V24.3609C162.409 24.3609 161.615 24.25 160.802 24.0267L160.669 24.5089ZM163.186 24.8609C164.073 24.8609 164.754 24.7567 165.175 24.5076L164.921 24.0771C164.624 24.2527 164.063 24.3609 163.186 24.3609V24.8609ZM165.171 24.51C165.611 24.2612 165.862 23.8911 165.862 23.4102H165.362C165.362 23.6807 165.236 23.8987 164.925 24.0747L165.171 24.51ZM165.862 23.4102C165.862 23.214 165.815 23.0308 165.712 22.8707C165.609 22.7113 165.461 22.5898 165.282 22.5005L165.059 22.9477C165.174 23.0053 165.247 23.0717 165.291 23.141C165.335 23.2096 165.362 23.296 165.362 23.4102H165.862ZM165.297 22.5086C164.984 22.3243 164.576 22.1947 164.086 22.1101L164.001 22.6029C164.458 22.6817 164.802 22.797 165.044 22.9395L165.297 22.5086ZM164.086 22.1101C163.609 22.028 163.084 21.9459 162.511 21.864L162.44 22.3589C163.01 22.4403 163.53 22.5217 164.001 22.6029L164.086 22.1101ZM162.512 21.8641C161.963 21.7834 161.406 21.6785 160.84 21.5492L160.729 22.0366C161.307 22.1687 161.877 22.2761 162.439 22.3588L162.512 21.8641ZM160.847 21.5508C160.296 21.4091 159.795 21.2052 159.343 20.9401L159.09 21.3715C159.585 21.6618 160.13 21.8826 160.722 22.035L160.847 21.5508ZM159.343 20.9401C158.904 20.6833 158.55 20.3365 158.277 19.8967L157.852 20.1604C158.167 20.6681 158.58 21.0729 159.09 21.3715L159.343 20.9401ZM158.28 19.9022C158.032 19.4783 157.898 18.9135 157.898 18.1908H157.398C157.398 18.971 157.542 19.6313 157.849 20.155L158.28 19.9022ZM157.898 18.1908C157.898 17.4085 158.119 16.7263 158.559 16.1345L158.158 15.8362C157.65 16.5186 157.398 17.3067 157.398 18.1908H157.898ZM158.557 16.1378C159.014 15.5439 159.675 15.0698 160.557 14.7233L160.374 14.2579C159.427 14.6302 158.684 15.1527 158.16 15.8329L158.557 16.1378ZM160.561 14.7219C161.438 14.3615 162.499 14.177 163.749 14.177V13.677C162.452 13.677 161.323 13.8682 160.371 14.2593L160.561 14.7219ZM163.749 14.177C164.63 14.177 165.527 14.273 166.442 14.4657L166.545 13.9764C165.598 13.777 164.666 13.677 163.749 13.677V14.177ZM166.442 14.4657C167.354 14.6576 168.102 14.9352 168.692 15.2926L168.951 14.8648C168.3 14.4708 167.496 14.1765 166.545 13.9764L166.442 14.4657ZM168.595 14.9727L167.321 17.6926L167.774 17.9047L169.048 15.1848L168.595 14.9727ZM167.675 17.5833C167.016 17.1949 166.345 16.9307 165.661 16.7939L165.563 17.2842C166.186 17.4088 166.805 17.651 167.421 18.014L167.675 17.5833ZM165.668 16.7955C165.014 16.6445 164.374 16.5685 163.749 16.5685V17.0685C164.333 17.0685 164.935 17.1395 165.556 17.2827L165.668 16.7955ZM163.749 16.5685C162.888 16.5685 162.212 16.6825 161.761 16.9456L162.013 17.3775C162.346 17.1832 162.912 17.0685 163.749 17.0685V16.5685ZM161.761 16.9456C161.316 17.2055 161.049 17.5713 161.049 18.0437H161.549C161.549 17.7974 161.674 17.5751 162.013 17.3775L161.761 16.9456ZM161.049 18.0437C161.049 18.4575 161.233 18.7853 161.589 18.9943L161.842 18.5634C161.642 18.4457 161.549 18.2834 161.549 18.0437H161.049ZM161.594 18.9974C161.918 19.1771 162.328 19.3146 162.817 19.4157L162.918 18.9261C162.459 18.8312 162.102 18.7073 161.837 18.5603L161.594 18.9974ZM162.817 19.4157C163.296 19.5149 163.815 19.6055 164.375 19.6878L164.447 19.1931C163.896 19.1121 163.386 19.023 162.918 18.9261L162.817 19.4157ZM164.383 19.6889C164.943 19.7529 165.503 19.8569 166.064 20.0012L166.189 19.5169C165.606 19.3671 165.023 19.2588 164.439 19.1921L164.383 19.6889ZM166.064 20.0012C166.615 20.1427 167.106 20.3461 167.54 20.6098L167.8 20.1824C167.319 19.8908 166.782 19.6694 166.189 19.5169L166.064 20.0012ZM167.549 20.615C167.984 20.8551 168.337 21.1922 168.609 21.6307L169.034 21.367C168.718 20.858 168.303 20.46 167.791 20.1773L167.549 20.615ZM168.612 21.634C168.872 22.0385 169.013 22.591 169.013 23.3122H169.513C169.513 22.5304 169.36 21.874 169.032 21.3637L168.612 21.634ZM169.013 23.3122C169.013 24.0748 168.786 24.748 168.33 25.3406L168.726 25.6455C169.25 24.9639 169.513 24.1831 169.513 23.3122H169.013ZM168.332 25.3381C167.876 25.9157 167.206 26.3826 166.306 26.7301L166.486 27.1965C167.448 26.8252 168.2 26.312 168.724 25.648L168.332 25.3381ZM166.304 26.7306C165.427 27.0754 164.341 27.2524 163.039 27.2524V27.7524C164.383 27.7524 165.535 27.57 166.487 27.196L166.304 26.7306ZM181.693 14.5641L181.577 14.786L181.583 14.7886L181.693 14.5641ZM183.653 16.4755L183.434 16.5955L183.435 16.5972L183.653 16.4755ZM184.364 27.3064V27.5564H184.614V27.3064H184.364ZM180.541 27.3064H180.291V27.5564H180.541V27.3064ZM179.83 17.9947L179.645 18.1623L179.648 18.1655L179.83 17.9947ZM176.228 17.6272L176.343 17.8492L176.346 17.8477L176.228 17.6272ZM175.101 18.7789L174.88 18.6615L174.877 18.6671L175.101 18.7789ZM174.709 27.3064V27.5564H174.959V27.3064H174.709ZM170.886 27.3064H170.636V27.5564H170.886V27.3064ZM170.886 9.12416V8.87416H170.636V9.12416H170.886ZM174.709 9.12416H174.959V8.87416H174.709V9.12416ZM174.709 17.7742L174.512 17.9277L174.959 18.5028V17.7742H174.709ZM173.851 16.6715L173.631 16.5532L173.554 16.6965L173.654 16.825L173.851 16.6715ZM175.885 14.6376L176.003 14.8579L176.003 14.8579L175.885 14.6376ZM178.899 14.177C179.91 14.177 180.801 14.3821 181.577 14.7859L181.808 14.3423C180.951 13.8967 179.979 13.677 178.899 13.677V14.177ZM181.583 14.7886C182.366 15.1728 182.983 15.7719 183.434 16.5955L183.872 16.3555C183.376 15.4474 182.685 14.7722 181.803 14.3396L181.583 14.7886ZM183.435 16.5972C183.881 17.3981 184.114 18.4468 184.114 19.759H184.614C184.614 18.3922 184.372 17.2518 183.871 16.3537L183.435 16.5972ZM184.114 19.759V27.3064H184.614V19.759H184.114ZM184.364 27.0564H180.541V27.5564H184.364V27.0564ZM180.791 27.3064V20.3471H180.291V27.3064H180.791ZM180.791 20.3471C180.791 19.2546 180.548 18.396 180.013 17.8239L179.648 18.1655C180.06 18.6063 180.291 19.316 180.291 20.3471H180.791ZM180.016 17.8271C179.5 17.2559 178.772 16.9851 177.87 16.9851V17.4851C178.667 17.4851 179.246 17.7207 179.645 18.1623L180.016 17.8271ZM177.87 16.9851C177.228 16.9851 176.64 17.1242 176.111 17.4066L176.346 17.8477C176.797 17.6073 177.303 17.4851 177.87 17.4851V16.9851ZM176.113 17.4051C175.59 17.676 175.179 18.0991 174.88 18.6616L175.322 18.8961C175.578 18.4131 175.919 18.0684 176.343 17.8492L176.113 17.4051ZM174.877 18.6671C174.593 19.2355 174.459 19.9471 174.459 20.7882H174.959C174.959 19.9957 175.086 19.3677 175.325 18.8907L174.877 18.6671ZM174.459 20.7882V27.3064H174.959V20.7882H174.459ZM174.709 27.0564H170.886V27.5564H174.709V27.0564ZM171.136 27.3064V9.12416H170.636V27.3064H171.136ZM170.886 9.37416H174.709V8.87416H170.886V9.37416ZM174.459 9.12416V17.7742H174.959V9.12416H174.459ZM174.906 17.6207L174.049 16.518L173.654 16.825L174.512 17.9277L174.906 17.6207ZM174.072 16.7898C174.522 15.9509 175.165 15.3084 176.003 14.8579L175.767 14.4174C174.841 14.9144 174.128 15.6278 173.631 16.5532L174.072 16.7898ZM176.003 14.8579C176.845 14.406 177.808 14.177 178.899 14.177V13.677C177.736 13.677 176.69 13.9218 175.767 14.4174L176.003 14.8579Z" fill="#2A3034" mask="url(#path-6-outside-1_361_188)"/>
</svg>
