<svg width="185" height="36" viewBox="0 0 185 36" fill="none" xmlns="http://www.w3.org/2000/svg">
<rect x="39.6063" y="8.10168" width="8.60038" height="6.74084" rx="3.37042" transform="rotate(135 39.6063 8.10168)" fill="#41BCFF"/>
<rect x="21.7377" y="25.9704" width="8.60038" height="6.74084" rx="3.37042" transform="rotate(135 21.7377 25.9704)" fill="#41BCFF"/>
<path fill-rule="evenodd" clip-rule="evenodd" d="M23.2339 15.1081C23.0597 15.2824 22.7771 15.2824 22.6028 15.1081C22.4286 14.9338 22.4286 14.6513 22.6029 14.477L29.6836 7.39625C31.0452 6.03463 31.0452 3.82701 29.6836 2.46539C28.322 1.10378 26.1144 1.10378 24.7527 2.4654L15.133 12.0852C13.6377 13.5804 13.6377 16.0047 15.133 17.4999L20.155 22.5219C21.5142 23.8811 23.7179 23.8811 25.0771 22.5219L27.2003 20.3987C27.3869 20.2121 27.6895 20.2121 27.8761 20.3987C28.0627 20.5853 28.0627 20.8879 27.8761 21.0745L20.8418 28.1088C19.4801 29.4704 19.4801 31.678 20.8418 33.0396C22.2034 34.4013 24.411 34.4013 25.7726 33.0396L35.6343 23.1779C36.9959 21.8163 36.9959 19.6087 35.6343 18.2471L33.1809 15.7937C33.1743 15.787 33.1635 15.787 33.1569 15.7937C33.1502 15.8003 33.1394 15.8003 33.1328 15.7937L30.3016 12.9626C28.9424 11.6033 26.7387 11.6033 25.3795 12.9626L23.2339 15.1081Z" fill="#FFC80B"/>
<path fill-rule="evenodd" clip-rule="evenodd" d="M41.8268 12.6131C40.4811 11.2673 38.2992 11.2673 36.9535 12.6131L36.8959 12.6706C35.5502 14.0164 35.5502 16.1982 36.8959 17.5439L37.7753 18.4233C39.1211 19.7691 39.1211 21.9509 37.7753 23.2966L36.896 24.176C35.5503 25.5217 35.5503 27.7035 36.896 29.0492L36.9536 29.1068C38.2993 30.4525 40.4811 30.4525 41.8269 29.1068L47.6371 23.2966C48.9828 21.9508 48.9828 19.769 47.6371 18.4233L45.1429 15.9291C45.1429 15.9291 45.1429 15.9291 45.1429 15.9291C45.1428 15.9291 45.1428 15.9291 45.1428 15.9291L41.8268 12.6131Z" fill="#E54671"/>
<path fill-rule="evenodd" clip-rule="evenodd" d="M12.2984 12.2527C10.9527 13.5984 10.9527 15.7802 12.2984 17.1259L13.1778 18.0054C14.5235 19.3511 14.5235 21.5329 13.1778 22.8786L13.1202 22.9362C11.7745 24.2819 9.59267 24.2819 8.24695 22.9362L4.93093 19.6202C4.93092 19.6202 4.9309 19.6202 4.93089 19.6202C4.93088 19.6202 4.93086 19.6202 4.93085 19.6202L2.43665 17.126C1.09093 15.7803 1.09093 13.5984 2.43665 12.2527L8.2469 6.44246C9.59261 5.09675 11.7745 5.09675 13.1202 6.44246L13.1778 6.50005C14.5235 7.84576 14.5235 10.0276 13.1778 11.3733L12.2984 12.2527Z" fill="#E54671"/>
<mask id="path-6-outside-1_361_188" maskUnits="userSpaceOnUse" x="52.0698" y="8.30637" width="131" height="20" fill="black">
<rect fill="white" x="52.0698" y="8.30637" width="131" height="20"/>
<path d="M62.3126 27.6004C60.9894 27.6004 59.756 27.388 58.6125 26.9633C57.4853 26.5222 56.5051 25.9015 55.672 25.101C54.8388 24.3005 54.1854 23.3612 53.7116 22.283C53.2542 21.2048 53.0255 20.0204 53.0255 18.7299C53.0255 17.4393 53.2542 16.2549 53.7116 15.1767C54.1854 14.0985 54.8388 13.1592 55.672 12.3587C56.5214 11.5583 57.5098 10.9456 58.637 10.5209C59.7642 10.0798 60.9976 9.85929 62.3371 9.85929C63.8237 9.85929 65.1633 10.1207 66.3558 10.6434C67.5647 11.1498 68.5776 11.9013 69.3944 12.8978L66.8459 15.2502C66.2578 14.5805 65.6044 14.0822 64.8856 13.7555C64.1668 13.4124 63.3827 13.2409 62.5332 13.2409C61.7327 13.2409 60.9976 13.3716 60.3278 13.633C59.658 13.8943 59.0781 14.2701 58.588 14.7602C58.0979 15.2502 57.714 15.8302 57.4363 16.5C57.1749 17.1697 57.0442 17.913 57.0442 18.7299C57.0442 19.5467 57.1749 20.29 57.4363 20.9597C57.714 21.6295 58.0979 22.2095 58.588 22.6996C59.0781 23.1896 59.658 23.5654 60.3278 23.8268C60.9976 24.0881 61.7327 24.2188 62.5332 24.2188C63.3827 24.2188 64.1668 24.0555 64.8856 23.7287C65.6044 23.3857 66.2578 22.8711 66.8459 22.185L69.3944 24.5374C68.5776 25.5339 67.5647 26.2935 66.3558 26.8163C65.1633 27.339 63.8156 27.6004 62.3126 27.6004ZM76.6438 27.5024C75.2389 27.5024 73.9892 27.2083 72.8947 26.6202C71.8165 26.0321 70.9588 25.2317 70.3217 24.2188C69.7009 23.1896 69.3906 22.0216 69.3906 20.7147C69.3906 19.3915 69.7009 18.2234 70.3217 17.2106C70.9588 16.1814 71.8165 15.3809 72.8947 14.8092C73.9892 14.2211 75.2389 13.927 76.6438 13.927C78.0324 13.927 79.274 14.2211 80.3685 14.8092C81.463 15.3809 82.3207 16.1732 82.9414 17.1861C83.5622 18.1989 83.8726 19.3751 83.8726 20.7147C83.8726 22.0216 83.5622 23.1896 82.9414 24.2188C82.3207 25.2317 81.463 26.0321 80.3685 26.6202C79.274 27.2083 78.0324 27.5024 76.6438 27.5024ZM76.6438 24.3658C77.2809 24.3658 77.8527 24.2188 78.3591 23.9248C78.8656 23.6307 79.2658 23.2141 79.5598 22.675C79.8539 22.1196 80.0009 21.4662 80.0009 20.7147C80.0009 19.9469 79.8539 19.2935 79.5598 18.7544C79.2658 18.2153 78.8656 17.7987 78.3591 17.5046C77.8527 17.2106 77.2809 17.0636 76.6438 17.0636C76.0067 17.0636 75.435 17.2106 74.9285 17.5046C74.4221 17.7987 74.0137 18.2153 73.7033 18.7544C73.4093 19.2935 73.2622 19.9469 73.2622 20.7147C73.2622 21.4662 73.4093 22.1196 73.7033 22.675C74.0137 23.2141 74.4221 23.6307 74.9285 23.9248C75.435 24.2188 76.0067 24.3658 76.6438 24.3658ZM91.5982 27.5024C90.3566 27.5024 89.2376 27.2247 88.2411 26.6693C87.2446 26.0975 86.4523 25.3052 85.8642 24.2923C85.2924 23.2795 85.0065 22.0869 85.0065 20.7147C85.0065 19.3261 85.2924 18.1254 85.8642 17.1126C86.4523 16.0997 87.2446 15.3156 88.2411 14.7602C89.2376 14.2047 90.3566 13.927 91.5982 13.927C92.709 13.927 93.681 14.172 94.5142 14.6621C95.3473 15.1522 95.9926 15.8955 96.45 16.892C96.9074 17.8885 97.1362 19.1628 97.1362 20.7147C97.1362 22.2503 96.9156 23.5245 96.4745 24.5374C96.0335 25.5339 95.3963 26.2772 94.5632 26.7673C93.7464 27.2574 92.758 27.5024 91.5982 27.5024ZM92.2598 24.3658C92.8806 24.3658 93.4442 24.2188 93.9506 23.9248C94.457 23.6307 94.8572 23.2141 95.1513 22.675C95.4617 22.1196 95.6169 21.4662 95.6169 20.7147C95.6169 19.9469 95.4617 19.2935 95.1513 18.7544C94.8572 18.2153 94.457 17.7987 93.9506 17.5046C93.4442 17.2106 92.8806 17.0636 92.2598 17.0636C91.6227 17.0636 91.0509 17.2106 90.5445 17.5046C90.0381 17.7987 89.6297 18.2153 89.3193 18.7544C89.0252 19.2935 88.8782 19.9469 88.8782 20.7147C88.8782 21.4662 89.0252 22.1196 89.3193 22.675C89.6297 23.2141 90.0381 23.6307 90.5445 23.9248C91.0509 24.2188 91.6227 24.3658 92.2598 24.3658ZM95.7149 27.3064V24.6109L95.7884 20.6902L95.5434 16.794V9.12416H99.366V27.3064H95.7149ZM108.221 27.5024C106.719 27.5024 105.395 27.2083 104.252 26.6202C103.125 26.0321 102.251 25.2317 101.63 24.2188C101.009 23.1896 100.699 22.0216 100.699 20.7147C100.699 19.3915 101.001 18.2234 101.605 17.2106C102.226 16.1814 103.067 15.3809 104.129 14.8092C105.191 14.2211 106.392 13.927 107.731 13.927C109.022 13.927 110.182 14.2047 111.211 14.7602C112.257 15.2992 113.082 16.0834 113.686 17.1126C114.29 18.1254 114.593 19.3425 114.593 20.7637C114.593 20.9107 114.584 21.0823 114.568 21.2783C114.552 21.458 114.535 21.6295 114.519 21.7929H103.811V19.563H112.51L111.039 20.2246C111.039 19.5385 110.901 18.9422 110.623 18.4358C110.345 17.9294 109.961 17.5373 109.471 17.2596C108.981 16.9655 108.409 16.8185 107.756 16.8185C107.102 16.8185 106.523 16.9655 106.016 17.2596C105.526 17.5373 105.142 17.9375 104.864 18.4603C104.587 18.9667 104.448 19.5712 104.448 20.2736V20.8617C104.448 21.5805 104.603 22.2176 104.913 22.7731C105.24 23.3122 105.689 23.7287 106.261 24.0228C106.849 24.3005 107.535 24.4394 108.32 24.4394C109.022 24.4394 109.635 24.3332 110.157 24.1208C110.696 23.9084 111.187 23.5899 111.628 23.1651L113.661 25.3705C113.057 26.0566 112.297 26.5876 111.383 26.9633C110.468 27.3227 109.414 27.5024 108.221 27.5024ZM125.371 27.6004C124.048 27.6004 122.814 27.388 121.671 26.9633C120.544 26.5222 119.564 25.9015 118.73 25.101C117.897 24.3005 117.244 23.3612 116.77 22.283C116.313 21.2048 116.084 20.0204 116.084 18.7299C116.084 17.4393 116.313 16.2549 116.77 15.1767C117.244 14.0985 117.897 13.1592 118.73 12.3587C119.58 11.5583 120.568 10.9456 121.695 10.5209C122.823 10.0798 124.056 9.85929 125.396 9.85929C126.882 9.85929 128.222 10.1207 129.414 10.6434C130.623 11.1498 131.636 11.9013 132.453 12.8978L129.904 15.2502C129.316 14.5805 128.663 14.0822 127.944 13.7555C127.225 13.4124 126.441 13.2409 125.592 13.2409C124.791 13.2409 124.056 13.3716 123.386 13.633C122.716 13.8943 122.136 14.2701 121.646 14.7602C121.156 15.2502 120.772 15.8302 120.495 16.5C120.233 17.1697 120.103 17.913 120.103 18.7299C120.103 19.5467 120.233 20.29 120.495 20.9597C120.772 21.6295 121.156 22.2095 121.646 22.6996C122.136 23.1896 122.716 23.5654 123.386 23.8268C124.056 24.0881 124.791 24.2188 125.592 24.2188C126.441 24.2188 127.225 24.0555 127.944 23.7287C128.663 23.3857 129.316 22.8711 129.904 22.185L132.453 24.5374C131.636 25.5339 130.623 26.2935 129.414 26.8163C128.222 27.339 126.874 27.6004 125.371 27.6004ZM134.374 27.3064V9.12416H138.197V27.3064H134.374ZM149.341 27.3064V24.7334L149.096 24.1698V19.563C149.096 18.7462 148.842 18.1091 148.336 17.6517C147.846 17.1942 147.086 16.9655 146.057 16.9655C145.355 16.9655 144.66 17.0799 143.974 17.3086C143.304 17.521 142.733 17.815 142.259 18.1908L140.887 15.5198C141.605 15.0134 142.471 14.6213 143.484 14.3436C144.497 14.0659 145.526 13.927 146.572 13.927C148.581 13.927 150.141 14.4008 151.252 15.3483C152.363 16.2958 152.918 17.7742 152.918 19.7835V27.3064H149.341ZM145.322 27.5024C144.293 27.5024 143.411 27.3309 142.676 26.9878C141.94 26.6284 141.377 26.1465 140.985 25.5421C140.593 24.9376 140.397 24.2597 140.397 23.5082C140.397 22.7241 140.584 22.0379 140.96 21.4498C141.352 20.8617 141.965 20.4043 142.798 20.0776C143.631 19.7345 144.718 19.563 146.057 19.563H149.561V21.7929H146.474C145.575 21.7929 144.954 21.9399 144.611 22.234C144.285 22.528 144.121 22.8956 144.121 23.3367C144.121 23.8268 144.309 24.2188 144.685 24.5129C145.077 24.7906 145.608 24.9294 146.278 24.9294C146.915 24.9294 147.487 24.7824 147.993 24.4884C148.499 24.178 148.867 23.7287 149.096 23.1406L149.684 24.9049C149.406 25.7544 148.9 26.3997 148.164 26.8408C147.429 27.2819 146.482 27.5024 145.322 27.5024ZM160.813 27.5024C159.686 27.5024 158.6 27.3717 157.554 27.1103C156.525 26.8326 155.708 26.4896 155.104 26.0811L156.378 23.3367C156.982 23.7124 157.693 24.0228 158.51 24.2678C159.343 24.4965 160.16 24.6109 160.96 24.6109C161.843 24.6109 162.463 24.5047 162.823 24.2923C163.198 24.08 163.386 23.7859 163.386 23.4102C163.386 23.0998 163.239 22.8711 162.945 22.7241C162.667 22.5607 162.292 22.4382 161.818 22.3565C161.344 22.2748 160.821 22.1931 160.25 22.1114C159.694 22.0298 159.131 21.9236 158.559 21.7929C157.987 21.6459 157.464 21.4335 156.991 21.1558C156.517 20.8781 156.133 20.5023 155.839 20.0286C155.561 19.5548 155.422 18.9422 155.422 18.1908C155.422 17.3576 155.659 16.6225 156.133 15.9854C156.623 15.3483 157.326 14.85 158.24 14.4906C159.155 14.1149 160.25 13.927 161.524 13.927C162.422 13.927 163.337 14.025 164.268 14.2211C165.2 14.4171 165.976 14.703 166.596 15.0787L165.322 17.7987C164.685 17.423 164.04 17.1697 163.386 17.0391C162.749 16.892 162.128 16.8185 161.524 16.8185C160.674 16.8185 160.054 16.9329 159.662 17.1616C159.27 17.3903 159.074 17.6843 159.074 18.0437C159.074 18.3705 159.212 18.6155 159.49 18.7789C159.784 18.9422 160.168 19.0729 160.642 19.1709C161.116 19.2689 161.63 19.3588 162.186 19.4405C162.757 19.5058 163.329 19.612 163.901 19.759C164.473 19.9061 164.987 20.1184 165.445 20.3961C165.918 20.6575 166.302 21.0251 166.596 21.4988C166.89 21.9563 167.037 22.5607 167.037 23.3122C167.037 24.129 166.792 24.8559 166.302 25.493C165.812 26.1138 165.102 26.6039 164.17 26.9633C163.256 27.3227 162.137 27.5024 160.813 27.5024ZM176.674 13.927C177.719 13.927 178.65 14.1394 179.467 14.5641C180.3 14.9725 180.954 15.6096 181.428 16.4755C181.901 17.3249 182.138 18.4195 182.138 19.759V27.3064H178.316V20.3471C178.316 19.2853 178.079 18.5011 177.605 17.9947C177.147 17.4883 176.494 17.2351 175.645 17.2351C175.04 17.2351 174.493 17.3658 174.003 17.6272C173.529 17.8722 173.153 18.2561 172.876 18.7789C172.614 19.3016 172.484 19.9714 172.484 20.7882V27.3064H168.661V9.12416H172.484V17.7742L171.626 16.6715C172.1 15.7893 172.778 15.1114 173.66 14.6376C174.542 14.1639 175.547 13.927 176.674 13.927Z"/>
</mask>
<path d="M62.3126 27.6004C60.9894 27.6004 59.756 27.388 58.6125 26.9633C57.4853 26.5222 56.5051 25.9015 55.672 25.101C54.8388 24.3005 54.1854 23.3612 53.7116 22.283C53.2542 21.2048 53.0255 20.0204 53.0255 18.7299C53.0255 17.4393 53.2542 16.2549 53.7116 15.1767C54.1854 14.0985 54.8388 13.1592 55.672 12.3587C56.5214 11.5583 57.5098 10.9456 58.637 10.5209C59.7642 10.0798 60.9976 9.85929 62.3371 9.85929C63.8237 9.85929 65.1633 10.1207 66.3558 10.6434C67.5647 11.1498 68.5776 11.9013 69.3944 12.8978L66.8459 15.2502C66.2578 14.5805 65.6044 14.0822 64.8856 13.7555C64.1668 13.4124 63.3827 13.2409 62.5332 13.2409C61.7327 13.2409 60.9976 13.3716 60.3278 13.633C59.658 13.8943 59.0781 14.2701 58.588 14.7602C58.0979 15.2502 57.714 15.8302 57.4363 16.5C57.1749 17.1697 57.0442 17.913 57.0442 18.7299C57.0442 19.5467 57.1749 20.29 57.4363 20.9597C57.714 21.6295 58.0979 22.2095 58.588 22.6996C59.0781 23.1896 59.658 23.5654 60.3278 23.8268C60.9976 24.0881 61.7327 24.2188 62.5332 24.2188C63.3827 24.2188 64.1668 24.0555 64.8856 23.7287C65.6044 23.3857 66.2578 22.8711 66.8459 22.185L69.3944 24.5374C68.5776 25.5339 67.5647 26.2935 66.3558 26.8163C65.1633 27.339 63.8156 27.6004 62.3126 27.6004ZM76.6438 27.5024C75.2389 27.5024 73.9892 27.2083 72.8947 26.6202C71.8165 26.0321 70.9588 25.2317 70.3217 24.2188C69.7009 23.1896 69.3906 22.0216 69.3906 20.7147C69.3906 19.3915 69.7009 18.2234 70.3217 17.2106C70.9588 16.1814 71.8165 15.3809 72.8947 14.8092C73.9892 14.2211 75.2389 13.927 76.6438 13.927C78.0324 13.927 79.274 14.2211 80.3685 14.8092C81.463 15.3809 82.3207 16.1732 82.9414 17.1861C83.5622 18.1989 83.8726 19.3751 83.8726 20.7147C83.8726 22.0216 83.5622 23.1896 82.9414 24.2188C82.3207 25.2317 81.463 26.0321 80.3685 26.6202C79.274 27.2083 78.0324 27.5024 76.6438 27.5024ZM76.6438 24.3658C77.2809 24.3658 77.8527 24.2188 78.3591 23.9248C78.8656 23.6307 79.2658 23.2141 79.5598 22.675C79.8539 22.1196 80.0009 21.4662 80.0009 20.7147C80.0009 19.9469 79.8539 19.2935 79.5598 18.7544C79.2658 18.2153 78.8656 17.7987 78.3591 17.5046C77.8527 17.2106 77.2809 17.0636 76.6438 17.0636C76.0067 17.0636 75.435 17.2106 74.9285 17.5046C74.4221 17.7987 74.0137 18.2153 73.7033 18.7544C73.4093 19.2935 73.2622 19.9469 73.2622 20.7147C73.2622 21.4662 73.4093 22.1196 73.7033 22.675C74.0137 23.2141 74.4221 23.6307 74.9285 23.9248C75.435 24.2188 76.0067 24.3658 76.6438 24.3658ZM91.5982 27.5024C90.3566 27.5024 89.2376 27.2247 88.2411 26.6693C87.2446 26.0975 86.4523 25.3052 85.8642 24.2923C85.2924 23.2795 85.0065 22.0869 85.0065 20.7147C85.0065 19.3261 85.2924 18.1254 85.8642 17.1126C86.4523 16.0997 87.2446 15.3156 88.2411 14.7602C89.2376 14.2047 90.3566 13.927 91.5982 13.927C92.709 13.927 93.681 14.172 94.5142 14.6621C95.3473 15.1522 95.9926 15.8955 96.45 16.892C96.9074 17.8885 97.1362 19.1628 97.1362 20.7147C97.1362 22.2503 96.9156 23.5245 96.4745 24.5374C96.0335 25.5339 95.3963 26.2772 94.5632 26.7673C93.7464 27.2574 92.758 27.5024 91.5982 27.5024ZM92.2598 24.3658C92.8806 24.3658 93.4442 24.2188 93.9506 23.9248C94.457 23.6307 94.8572 23.2141 95.1513 22.675C95.4617 22.1196 95.6169 21.4662 95.6169 20.7147C95.6169 19.9469 95.4617 19.2935 95.1513 18.7544C94.8572 18.2153 94.457 17.7987 93.9506 17.5046C93.4442 17.2106 92.8806 17.0636 92.2598 17.0636C91.6227 17.0636 91.0509 17.2106 90.5445 17.5046C90.0381 17.7987 89.6297 18.2153 89.3193 18.7544C89.0252 19.2935 88.8782 19.9469 88.8782 20.7147C88.8782 21.4662 89.0252 22.1196 89.3193 22.675C89.6297 23.2141 90.0381 23.6307 90.5445 23.9248C91.0509 24.2188 91.6227 24.3658 92.2598 24.3658ZM95.7149 27.3064V24.6109L95.7884 20.6902L95.5434 16.794V9.12416H99.366V27.3064H95.7149ZM108.221 27.5024C106.719 27.5024 105.395 27.2083 104.252 26.6202C103.125 26.0321 102.251 25.2317 101.63 24.2188C101.009 23.1896 100.699 22.0216 100.699 20.7147C100.699 19.3915 101.001 18.2234 101.605 17.2106C102.226 16.1814 103.067 15.3809 104.129 14.8092C105.191 14.2211 106.392 13.927 107.731 13.927C109.022 13.927 110.182 14.2047 111.211 14.7602C112.257 15.2992 113.082 16.0834 113.686 17.1126C114.29 18.1254 114.593 19.3425 114.593 20.7637C114.593 20.9107 114.584 21.0823 114.568 21.2783C114.552 21.458 114.535 21.6295 114.519 21.7929H103.811V19.563H112.51L111.039 20.2246C111.039 19.5385 110.901 18.9422 110.623 18.4358C110.345 17.9294 109.961 17.5373 109.471 17.2596C108.981 16.9655 108.409 16.8185 107.756 16.8185C107.102 16.8185 106.523 16.9655 106.016 17.2596C105.526 17.5373 105.142 17.9375 104.864 18.4603C104.587 18.9667 104.448 19.5712 104.448 20.2736V20.8617C104.448 21.5805 104.603 22.2176 104.913 22.7731C105.24 23.3122 105.689 23.7287 106.261 24.0228C106.849 24.3005 107.535 24.4394 108.32 24.4394C109.022 24.4394 109.635 24.3332 110.157 24.1208C110.696 23.9084 111.187 23.5899 111.628 23.1651L113.661 25.3705C113.057 26.0566 112.297 26.5876 111.383 26.9633C110.468 27.3227 109.414 27.5024 108.221 27.5024ZM125.371 27.6004C124.048 27.6004 122.814 27.388 121.671 26.9633C120.544 26.5222 119.564 25.9015 118.73 25.101C117.897 24.3005 117.244 23.3612 116.77 22.283C116.313 21.2048 116.084 20.0204 116.084 18.7299C116.084 17.4393 116.313 16.2549 116.77 15.1767C117.244 14.0985 117.897 13.1592 118.73 12.3587C119.58 11.5583 120.568 10.9456 121.695 10.5209C122.823 10.0798 124.056 9.85929 125.396 9.85929C126.882 9.85929 128.222 10.1207 129.414 10.6434C130.623 11.1498 131.636 11.9013 132.453 12.8978L129.904 15.2502C129.316 14.5805 128.663 14.0822 127.944 13.7555C127.225 13.4124 126.441 13.2409 125.592 13.2409C124.791 13.2409 124.056 13.3716 123.386 13.633C122.716 13.8943 122.136 14.2701 121.646 14.7602C121.156 15.2502 120.772 15.8302 120.495 16.5C120.233 17.1697 120.103 17.913 120.103 18.7299C120.103 19.5467 120.233 20.29 120.495 20.9597C120.772 21.6295 121.156 22.2095 121.646 22.6996C122.136 23.1896 122.716 23.5654 123.386 23.8268C124.056 24.0881 124.791 24.2188 125.592 24.2188C126.441 24.2188 127.225 24.0555 127.944 23.7287C128.663 23.3857 129.316 22.8711 129.904 22.185L132.453 24.5374C131.636 25.5339 130.623 26.2935 129.414 26.8163C128.222 27.339 126.874 27.6004 125.371 27.6004ZM134.374 27.3064V9.12416H138.197V27.3064H134.374ZM149.341 27.3064V24.7334L149.096 24.1698V19.563C149.096 18.7462 148.842 18.1091 148.336 17.6517C147.846 17.1942 147.086 16.9655 146.057 16.9655C145.355 16.9655 144.66 17.0799 143.974 17.3086C143.304 17.521 142.733 17.815 142.259 18.1908L140.887 15.5198C141.605 15.0134 142.471 14.6213 143.484 14.3436C144.497 14.0659 145.526 13.927 146.572 13.927C148.581 13.927 150.141 14.4008 151.252 15.3483C152.363 16.2958 152.918 17.7742 152.918 19.7835V27.3064H149.341ZM145.322 27.5024C144.293 27.5024 143.411 27.3309 142.676 26.9878C141.94 26.6284 141.377 26.1465 140.985 25.5421C140.593 24.9376 140.397 24.2597 140.397 23.5082C140.397 22.7241 140.584 22.0379 140.96 21.4498C141.352 20.8617 141.965 20.4043 142.798 20.0776C143.631 19.7345 144.718 19.563 146.057 19.563H149.561V21.7929H146.474C145.575 21.7929 144.954 21.9399 144.611 22.234C144.285 22.528 144.121 22.8956 144.121 23.3367C144.121 23.8268 144.309 24.2188 144.685 24.5129C145.077 24.7906 145.608 24.9294 146.278 24.9294C146.915 24.9294 147.487 24.7824 147.993 24.4884C148.499 24.178 148.867 23.7287 149.096 23.1406L149.684 24.9049C149.406 25.7544 148.9 26.3997 148.164 26.8408C147.429 27.2819 146.482 27.5024 145.322 27.5024ZM160.813 27.5024C159.686 27.5024 158.6 27.3717 157.554 27.1103C156.525 26.8326 155.708 26.4896 155.104 26.0811L156.378 23.3367C156.982 23.7124 157.693 24.0228 158.51 24.2678C159.343 24.4965 160.16 24.6109 160.96 24.6109C161.843 24.6109 162.463 24.5047 162.823 24.2923C163.198 24.08 163.386 23.7859 163.386 23.4102C163.386 23.0998 163.239 22.8711 162.945 22.7241C162.667 22.5607 162.292 22.4382 161.818 22.3565C161.344 22.2748 160.821 22.1931 160.25 22.1114C159.694 22.0298 159.131 21.9236 158.559 21.7929C157.987 21.6459 157.464 21.4335 156.991 21.1558C156.517 20.8781 156.133 20.5023 155.839 20.0286C155.561 19.5548 155.422 18.9422 155.422 18.1908C155.422 17.3576 155.659 16.6225 156.133 15.9854C156.623 15.3483 157.326 14.85 158.24 14.4906C159.155 14.1149 160.25 13.927 161.524 13.927C162.422 13.927 163.337 14.025 164.268 14.2211C165.2 14.4171 165.976 14.703 166.596 15.0787L165.322 17.7987C164.685 17.423 164.04 17.1697 163.386 17.0391C162.749 16.892 162.128 16.8185 161.524 16.8185C160.674 16.8185 160.054 16.9329 159.662 17.1616C159.27 17.3903 159.074 17.6843 159.074 18.0437C159.074 18.3705 159.212 18.6155 159.49 18.7789C159.784 18.9422 160.168 19.0729 160.642 19.1709C161.116 19.2689 161.63 19.3588 162.186 19.4405C162.757 19.5058 163.329 19.612 163.901 19.759C164.473 19.9061 164.987 20.1184 165.445 20.3961C165.918 20.6575 166.302 21.0251 166.596 21.4988C166.89 21.9563 167.037 22.5607 167.037 23.3122C167.037 24.129 166.792 24.8559 166.302 25.493C165.812 26.1138 165.102 26.6039 164.17 26.9633C163.256 27.3227 162.137 27.5024 160.813 27.5024ZM176.674 13.927C177.719 13.927 178.65 14.1394 179.467 14.5641C180.3 14.9725 180.954 15.6096 181.428 16.4755C181.901 17.3249 182.138 18.4195 182.138 19.759V27.3064H178.316V20.3471C178.316 19.2853 178.079 18.5011 177.605 17.9947C177.147 17.4883 176.494 17.2351 175.645 17.2351C175.04 17.2351 174.493 17.3658 174.003 17.6272C173.529 17.8722 173.153 18.2561 172.876 18.7789C172.614 19.3016 172.484 19.9714 172.484 20.7882V27.3064H168.661V9.12416H172.484V17.7742L171.626 16.6715C172.1 15.7893 172.778 15.1114 173.66 14.6376C174.542 14.1639 175.547 13.927 176.674 13.927Z" fill="#2A3034"/>
<path d="M58.6125 26.9633L58.4729 27.3199L58.4792 27.3222L58.6125 26.9633ZM55.672 25.101L55.4067 25.3771L55.672 25.101ZM53.7116 22.283L53.3591 22.4325L53.3611 22.437L53.7116 22.283ZM53.7116 15.1767L53.3611 15.0227L53.3591 15.0272L53.7116 15.1767ZM55.672 12.3587L55.4094 12.0801L55.4067 12.0826L55.672 12.3587ZM58.637 10.5209L58.772 10.8792L58.7765 10.8775L58.637 10.5209ZM66.3558 10.6434L66.2021 10.9941L66.2079 10.9966L66.3558 10.6434ZM69.3944 12.8978L69.6541 13.1792L69.9193 12.9343L69.6905 12.6551L69.3944 12.8978ZM66.8459 15.2502L66.5582 15.5029L66.8172 15.7978L67.1056 15.5316L66.8459 15.2502ZM64.8856 13.7555L64.7206 14.1011L64.7271 14.104L64.8856 13.7555ZM58.588 14.7602L58.8587 15.0309L58.588 14.7602ZM57.4363 16.5L57.0825 16.3533L57.0796 16.3608L57.4363 16.5ZM57.4363 20.9597L57.0795 21.099L57.0826 21.1064L57.4363 20.9597ZM58.588 22.6996L58.3172 22.9703L58.588 22.6996ZM64.8856 23.7287L65.0441 24.0774L65.0505 24.0743L64.8856 23.7287ZM66.8459 22.185L67.1056 21.9036L66.8137 21.6342L66.5552 21.9358L66.8459 22.185ZM69.3944 24.5374L69.6905 24.7801L69.9193 24.5009L69.6541 24.256L69.3944 24.5374ZM66.3558 26.8163L66.2039 26.4648L66.2021 26.4656L66.3558 26.8163ZM62.3126 27.2175C61.031 27.2175 59.8432 27.012 58.7458 26.6044L58.4792 27.3222C59.6688 27.7641 60.9478 27.9833 62.3126 27.9833V27.2175ZM58.752 26.6068C57.6693 26.1831 56.7324 25.5889 55.9372 24.8249L55.4067 25.3771C56.2778 26.214 57.3012 26.8614 58.473 27.3199L58.752 26.6068ZM55.9372 24.8249C55.1409 24.0598 54.5161 23.1622 54.0621 22.129L53.3611 22.437C53.8546 23.5602 54.5367 24.5412 55.4067 25.3771L55.9372 24.8249ZM54.0641 22.1334C53.6287 21.1072 53.4084 19.9743 53.4084 18.7299H52.6426C52.6426 20.0665 52.8797 21.3024 53.3591 22.4325L54.0641 22.1334ZM53.4084 18.7299C53.4084 17.4854 53.6287 16.3525 54.0641 15.3263L53.3591 15.0272C52.8797 16.1573 52.6426 17.3932 52.6426 18.7299H53.4084ZM54.0621 15.3307C54.5161 14.2975 55.1409 13.3999 55.9372 12.6348L55.4067 12.0826C54.5367 12.9185 53.8546 13.8995 53.3611 15.0227L54.0621 15.3307ZM55.9345 12.6374C56.746 11.8727 57.6906 11.2867 58.772 10.8792L58.502 10.1626C57.329 10.6046 56.2969 11.2438 55.4094 12.0801L55.9345 12.6374ZM58.7765 10.8775C59.8547 10.4555 61.0402 10.2422 62.3371 10.2422V9.47641C60.9549 9.47641 59.6736 9.70411 58.4975 10.1643L58.7765 10.8775ZM62.3371 10.2422C63.7783 10.2422 65.0645 10.4954 66.2021 10.9941L66.5096 10.2928C65.2622 9.74595 63.8692 9.47641 62.3371 9.47641V10.2422ZM66.2079 10.9966C67.3602 11.4793 68.3218 12.1932 69.0983 13.1405L69.6905 12.6551C68.8333 11.6094 67.7693 10.8204 66.5038 10.2903L66.2079 10.9966ZM69.1347 12.6165L66.5862 14.9689L67.1056 15.5316L69.6541 13.1792L69.1347 12.6165ZM67.1336 14.9976C66.5144 14.2923 65.8182 13.7588 65.044 13.4069L64.7271 14.104C65.3905 14.4056 66.0013 14.8686 66.5582 15.5029L67.1336 14.9976ZM65.0505 13.4099C64.2768 13.0407 63.4358 12.858 62.5332 12.858V13.6238C63.3295 13.6238 64.0568 13.7842 64.7207 14.101L65.0505 13.4099ZM62.5332 12.858C61.6905 12.858 60.9075 12.9957 60.1886 13.2763L60.467 13.9896C61.0876 13.7474 61.7749 13.6238 62.5332 13.6238V12.858ZM60.1886 13.2763C59.4714 13.5562 58.8462 13.9605 58.3172 14.4894L58.8587 15.0309C59.31 14.5796 59.8446 14.2325 60.467 13.9896L60.1886 13.2763ZM58.3172 14.4894C57.79 15.0167 57.3786 15.6393 57.0826 16.3533L57.79 16.6466C58.0493 16.021 58.4058 15.4838 58.8587 15.0309L58.3172 14.4894ZM57.0796 16.3608C56.7987 17.0805 56.6613 17.8718 56.6613 18.7299H57.4271C57.4271 17.9542 57.5511 17.259 57.793 16.6392L57.0796 16.3608ZM56.6613 18.7299C56.6613 19.5879 56.7987 20.3792 57.0796 21.0989L57.793 20.8206C57.5511 20.2007 57.4271 19.5055 57.4271 18.7299H56.6613ZM57.0826 21.1064C57.3786 21.8204 57.79 22.4431 58.3172 22.9703L58.8587 22.4288C58.4058 21.9759 58.0493 21.4387 57.79 20.8131L57.0826 21.1064ZM58.3172 22.9703C58.8462 23.4992 59.4714 23.9035 60.1886 24.1834L60.467 23.4701C59.8446 23.2272 59.31 22.8801 58.8587 22.4288L58.3172 22.9703ZM60.1886 24.1834C60.9075 24.464 61.6905 24.6017 62.5332 24.6017V23.8359C61.7749 23.8359 61.0876 23.7123 60.467 23.4701L60.1886 24.1834ZM62.5332 24.6017C63.4331 24.6017 64.2718 24.4283 65.044 24.0773L64.7271 23.3802C64.0618 23.6826 63.3322 23.8359 62.5332 23.8359V24.6017ZM65.0505 24.0743C65.8236 23.7053 66.5185 23.1553 67.1366 22.4341L66.5552 21.9358C65.9972 22.5868 65.3852 23.066 64.7207 23.3832L65.0505 24.0743ZM66.5862 22.4663L69.1347 24.8187L69.6541 24.256L67.1056 21.9036L66.5862 22.4663ZM69.0983 24.2947C68.321 25.2429 67.358 25.9658 66.2039 26.4648L66.5078 27.1677C67.7714 26.6213 68.8341 25.8249 69.6905 24.7801L69.0983 24.2947ZM66.2021 26.4656C65.065 26.9641 63.7708 27.2175 62.3126 27.2175V27.9833C63.8604 27.9833 65.2616 27.714 66.5096 27.1669L66.2021 26.4656ZM72.8947 26.6202L72.7113 26.9564L72.7134 26.9575L72.8947 26.6202ZM70.3217 24.2188L69.9938 24.4166L69.9976 24.4227L70.3217 24.2188ZM70.3217 17.2106L69.9962 17.0091L69.9953 17.0105L70.3217 17.2106ZM72.8947 14.8092L73.0741 15.1474L73.0759 15.1464L72.8947 14.8092ZM80.3685 14.8092L80.1873 15.1465L80.1912 15.1485L80.3685 14.8092ZM82.9414 24.2188L83.2679 24.4189L83.2693 24.4166L82.9414 24.2188ZM80.3685 26.6202L80.1873 26.283L80.3685 26.6202ZM78.3591 23.9248L78.5514 24.2559L78.3591 23.9248ZM79.5598 22.675L79.896 22.8584L79.8982 22.8542L79.5598 22.675ZM79.5598 18.7544L79.2237 18.9377L79.5598 18.7544ZM78.3591 17.5046L78.1669 17.8357L78.3591 17.5046ZM74.9285 17.5046L75.1208 17.8357L74.9285 17.5046ZM73.7033 18.7544L73.3714 18.5633L73.3672 18.571L73.7033 18.7544ZM73.7033 22.675L73.3647 22.8543L73.3715 22.8661L73.7033 22.675ZM74.9285 23.9248L75.1208 23.5937L74.9285 23.9248ZM76.6438 27.1195C75.2938 27.1195 74.1078 26.8374 73.0759 26.283L72.7134 26.9575C73.8706 27.5793 75.184 27.8853 76.6438 27.8853V27.1195ZM73.078 26.2841C72.0557 25.7265 71.2471 24.9709 70.6458 24.015L69.9976 24.4227C70.6705 25.4924 71.5773 26.3378 72.7113 26.9564L73.078 26.2841ZM70.6496 24.0211C70.0679 23.0567 69.7734 21.9582 69.7734 20.7147H69.0077C69.0077 22.085 69.334 23.3225 69.9939 24.4166L70.6496 24.0211ZM69.7734 20.7147C69.7734 19.4538 70.0684 18.3566 70.6482 17.4107L69.9953 17.0105C69.3335 18.0902 69.0077 19.3291 69.0077 20.7147H69.7734ZM70.6473 17.4121C71.2483 16.4412 72.0553 15.6877 73.0741 15.1474L72.7153 14.4709C71.5776 15.0742 70.6693 15.9216 69.9962 17.0091L70.6473 17.4121ZM73.0759 15.1464C74.1078 14.592 75.2938 14.3099 76.6438 14.3099V13.5441C75.184 13.5441 73.8706 13.8501 72.7134 14.4719L73.0759 15.1464ZM76.6438 14.3099C77.9767 14.3099 79.1548 14.5917 80.1873 15.1464L80.5497 14.4719C79.3932 13.8505 78.0881 13.5441 76.6438 13.5441V14.3099ZM80.1912 15.1485C81.2269 15.6895 82.0319 16.4348 82.615 17.3862L83.2679 16.986C82.6094 15.9117 81.6992 15.0723 80.5458 14.4698L80.1912 15.1485ZM82.615 17.3862C83.1943 18.3314 83.4897 19.4365 83.4897 20.7147H84.2555C84.2555 19.3138 83.9301 18.0665 83.2679 16.986L82.615 17.3862ZM83.4897 20.7147C83.4897 21.9582 83.1952 23.0567 82.6136 24.0211L83.2693 24.4166C83.9292 23.3225 84.2555 22.085 84.2555 20.7147H83.4897ZM82.615 24.0187C82.0313 24.9711 81.225 25.7254 80.1873 26.283L80.5497 26.9575C81.7011 26.3389 82.61 25.4922 83.2679 24.4189L82.615 24.0187ZM80.1873 26.283C79.1548 26.8378 77.9767 27.1195 76.6438 27.1195V27.8853C78.0881 27.8853 79.3932 27.5789 80.5497 26.9575L80.1873 26.283ZM76.6438 24.7487C77.3424 24.7487 77.9815 24.5868 78.5514 24.2559L78.1669 23.5937C77.7239 23.8509 77.2195 23.983 76.6438 23.983V24.7487ZM78.5514 24.2559C79.1214 23.9249 79.5701 23.4558 79.896 22.8584L79.2237 22.4917C78.9615 22.9724 78.6097 23.3365 78.1669 23.5937L78.5514 24.2559ZM79.8982 22.8542C80.2267 22.2337 80.3838 21.5165 80.3838 20.7147H79.618C79.618 21.4159 79.4811 22.0055 79.2215 22.4959L79.8982 22.8542ZM80.3838 20.7147C80.3838 19.8986 80.2275 19.1787 79.896 18.571L79.2237 18.9377C79.4803 19.4082 79.618 19.9952 79.618 20.7147H80.3838ZM79.896 18.571C79.5701 17.9736 79.1214 17.5045 78.5514 17.1735L78.1669 17.8357C78.6097 18.0929 78.9615 18.457 79.2237 18.9377L79.896 18.571ZM78.5514 17.1735C77.9815 16.8426 77.3424 16.6807 76.6438 16.6807V17.4464C77.2195 17.4464 77.7239 17.5786 78.1669 17.8357L78.5514 17.1735ZM76.6438 16.6807C75.9453 16.6807 75.3062 16.8426 74.7363 17.1735L75.1208 17.8357C75.5637 17.5786 76.0681 17.4464 76.6438 17.4464V16.6807ZM74.7363 17.1735C74.1682 17.5034 73.7132 17.9699 73.3715 18.5633L74.0351 18.9454C74.3142 18.4607 74.676 18.094 75.1208 17.8357L74.7363 17.1735ZM73.3672 18.571C73.0357 19.1787 72.8794 19.8986 72.8794 20.7147H73.6451C73.6451 19.9952 73.7828 19.4082 74.0394 18.9377L73.3672 18.571ZM72.8794 20.7147C72.8794 21.5165 73.0365 22.2337 73.3649 22.8542L74.0417 22.4959C73.7821 22.0055 73.6451 21.4159 73.6451 20.7147H72.8794ZM73.3715 22.8661C73.7132 23.4595 74.1682 23.9261 74.7363 24.2559L75.1208 23.5937C74.676 23.3354 74.3142 22.9687 74.0351 22.484L73.3715 22.8661ZM74.7363 24.2559C75.3062 24.5868 75.9453 24.7487 76.6438 24.7487V23.983C76.0681 23.983 75.5637 23.8509 75.1208 23.5937L74.7363 24.2559ZM88.2411 26.6693L88.0505 27.0014L88.0547 27.0037L88.2411 26.6693ZM85.8642 24.2923L85.5307 24.4806L85.5331 24.4846L85.8642 24.2923ZM85.8642 17.1126L85.533 16.9203L85.5307 16.9243L85.8642 17.1126ZM88.2411 14.7602L88.0547 14.4257L88.2411 14.7602ZM94.5142 14.6621L94.7083 14.3321L94.5142 14.6621ZM96.45 16.892L96.798 16.7323L96.45 16.892ZM96.4745 24.5374L96.8247 24.6924L96.8256 24.6902L96.4745 24.5374ZM94.5632 26.7673L94.3691 26.4372L94.3662 26.439L94.5632 26.7673ZM93.9506 23.9248L93.7583 23.5937L93.9506 23.9248ZM95.1513 22.675L94.8171 22.4883L94.8152 22.4917L95.1513 22.675ZM95.1513 18.7544L94.8151 18.9377L94.8195 18.9454L95.1513 18.7544ZM93.9506 17.5046L93.7583 17.8357L93.9506 17.5046ZM90.5445 17.5046L90.7367 17.8357L90.5445 17.5046ZM89.3193 18.7544L88.9874 18.5633L88.9831 18.571L89.3193 18.7544ZM89.3193 22.675L88.9807 22.8543L88.9875 22.8661L89.3193 22.675ZM90.5445 23.9248L90.7367 23.5937L90.5445 23.9248ZM95.7149 27.3064H95.332V27.6892H95.7149V27.3064ZM95.7149 24.6109L95.332 24.6037V24.6109H95.7149ZM95.7884 20.6902L96.1712 20.6974L96.1715 20.6818L96.1705 20.6662L95.7884 20.6902ZM95.5434 16.794H95.1605V16.806L95.1612 16.818L95.5434 16.794ZM95.5434 9.12416V8.74127H95.1605V9.12416H95.5434ZM99.366 9.12416H99.7489V8.74127H99.366V9.12416ZM99.366 27.3064V27.6892H99.7489V27.3064H99.366ZM91.5982 27.1195C90.416 27.1195 89.3621 26.8557 88.4275 26.3348L88.0547 27.0037C89.1131 27.5937 90.2973 27.8853 91.5982 27.8853V27.1195ZM88.4316 26.3372C87.4946 25.7995 86.7503 25.056 86.1953 24.1001L85.5331 24.4846C86.1542 25.5544 86.9945 26.3954 88.0505 27.0014L88.4316 26.3372ZM86.1976 24.1041C85.6636 23.1583 85.3894 22.0329 85.3894 20.7147H84.6236C84.6236 22.141 84.9212 23.4007 85.5307 24.4806L86.1976 24.1041ZM85.3894 20.7147C85.3894 19.3793 85.664 18.246 86.1976 17.3008L85.5307 16.9243C84.9208 18.0048 84.6236 19.273 84.6236 20.7147H85.3894ZM86.1953 17.3048C86.7498 16.3499 87.4928 15.6156 88.4275 15.0946L88.0547 14.4257C86.9964 15.0156 86.1548 15.8496 85.5331 16.9203L86.1953 17.3048ZM88.4275 15.0946C89.3621 14.5737 90.416 14.3099 91.5982 14.3099V13.5441C90.2973 13.5441 89.1131 13.8358 88.0547 14.4257L88.4275 15.0946ZM91.5982 14.3099C92.6511 14.3099 93.5541 14.5416 94.3201 14.9922L94.7083 14.3321C93.808 13.8025 92.767 13.5441 91.5982 13.5441V14.3099ZM94.3201 14.9922C95.0769 15.4373 95.6728 16.1165 96.1021 17.0518L96.798 16.7323C96.3125 15.6746 95.6178 14.8671 94.7083 14.3321L94.3201 14.9922ZM96.1021 17.0518C96.529 17.9819 96.7533 19.1966 96.7533 20.7147H97.519C97.519 19.1289 97.2859 17.7952 96.798 16.7323L96.1021 17.0518ZM96.7533 20.7147C96.7533 22.2169 96.5371 23.4348 96.1235 24.3845L96.8256 24.6902C97.2942 23.6143 97.519 22.2837 97.519 20.7147H96.7533ZM96.1244 24.3824C95.7114 25.3154 95.1246 25.9928 94.3691 26.4373L94.7573 27.0973C95.6681 26.5615 96.3555 25.7524 96.8246 24.6923L96.1244 24.3824ZM94.3662 26.439C93.6206 26.8863 92.7038 27.1195 91.5982 27.1195V27.8853C92.8123 27.8853 93.8721 27.6284 94.7602 27.0956L94.3662 26.439ZM92.2598 24.7487C92.9439 24.7487 93.5745 24.5859 94.1428 24.2559L93.7583 23.5937C93.3138 23.8517 92.8172 23.983 92.2598 23.983V24.7487ZM94.1428 24.2559C94.7128 23.9249 95.1615 23.4558 95.4874 22.8584L94.8152 22.4917C94.553 22.9724 94.2012 23.3365 93.7583 23.5937L94.1428 24.2559ZM95.4855 22.8618C95.8332 22.2398 95.9998 21.5197 95.9998 20.7147H95.234C95.234 21.4127 95.0902 21.9995 94.8171 22.4883L95.4855 22.8618ZM95.9998 20.7147C95.9998 19.8954 95.834 19.1727 95.4831 18.5633L94.8195 18.9454C95.0894 19.4142 95.234 19.9984 95.234 20.7147H95.9998ZM95.4874 18.571C95.1615 17.9736 94.7128 17.5045 94.1428 17.1735L93.7583 17.8357C94.2012 18.0929 94.553 18.457 94.8152 18.9377L95.4874 18.571ZM94.1428 17.1735C93.5745 16.8435 92.9439 16.6807 92.2598 16.6807V17.4464C92.8172 17.4464 93.3138 17.5777 93.7583 17.8357L94.1428 17.1735ZM92.2598 16.6807C91.5613 16.6807 90.9221 16.8426 90.3522 17.1735L90.7367 17.8357C91.1797 17.5786 91.6841 17.4464 92.2598 17.4464V16.6807ZM90.3522 17.1735C89.7842 17.5034 89.3291 17.9699 88.9875 18.5633L89.6511 18.9454C89.9302 18.4607 90.2919 18.094 90.7367 17.8357L90.3522 17.1735ZM88.9831 18.571C88.6517 19.1787 88.4953 19.8986 88.4953 20.7147H89.2611C89.2611 19.9952 89.3988 19.4082 89.6554 18.9377L88.9831 18.571ZM88.4953 20.7147C88.4953 21.5165 88.6524 22.2337 88.9809 22.8542L89.6577 22.4959C89.398 22.0055 89.2611 21.4159 89.2611 20.7147H88.4953ZM88.9875 22.8661C89.3291 23.4595 89.7842 23.9261 90.3522 24.2559L90.7367 23.5937C90.2919 23.3354 89.9302 22.9687 89.6511 22.484L88.9875 22.8661ZM90.3522 24.2559C90.9221 24.5868 91.5613 24.7487 92.2598 24.7487V23.983C91.6841 23.983 91.1797 23.8509 90.7367 23.5937L90.3522 24.2559ZM96.0978 27.3064V24.6109H95.332V27.3064H96.0978ZM96.0977 24.6181L96.1712 20.6974L95.4056 20.683L95.3321 24.6037L96.0977 24.6181ZM96.1705 20.6662L95.9255 16.77L95.1612 16.818L95.4063 20.7142L96.1705 20.6662ZM95.9263 16.794V9.12416H95.1605V16.794H95.9263ZM95.5434 9.50704H99.366V8.74127H95.5434V9.50704ZM98.9832 9.12416V27.3064H99.7489V9.12416H98.9832ZM99.366 26.9235H95.7149V27.6892H99.366V26.9235ZM104.252 26.6202L104.075 26.9597L104.077 26.9607L104.252 26.6202ZM101.63 24.2188L101.302 24.4166L101.303 24.4189L101.63 24.2188ZM101.605 17.2106L101.277 17.0128L101.277 17.0144L101.605 17.2106ZM104.129 14.8092L104.311 15.1463L104.315 15.1441L104.129 14.8092ZM111.211 14.7602L111.029 15.0972L111.036 15.1005L111.211 14.7602ZM113.686 17.1126L113.356 17.3065L113.357 17.3088L113.686 17.1126ZM114.568 21.2783L114.949 21.313L114.95 21.3101L114.568 21.2783ZM114.519 21.7929V22.1758H114.866L114.9 21.831L114.519 21.7929ZM103.811 21.7929H103.428V22.1758H103.811V21.7929ZM103.811 19.563V19.1801H103.428V19.563H103.811ZM112.51 19.563L112.667 19.9122L112.51 19.1801V19.563ZM111.039 20.2246H110.657V20.8168L111.197 20.5738L111.039 20.2246ZM110.623 18.4358L110.287 18.6199L110.623 18.4358ZM109.471 17.2596L109.274 17.588L109.282 17.5927L109.471 17.2596ZM106.016 17.2596L106.205 17.5927L106.208 17.5907L106.016 17.2596ZM104.864 18.4603L105.2 18.6444L105.203 18.6399L104.864 18.4603ZM104.913 22.7731L104.579 22.96L104.586 22.9715L104.913 22.7731ZM106.261 24.0228L106.086 24.3635L106.098 24.369L106.261 24.0228ZM110.157 24.1208L110.017 23.7645L110.013 23.7661L110.157 24.1208ZM111.628 23.1651L111.909 22.9056L111.644 22.618L111.362 22.8893L111.628 23.1651ZM113.661 25.3705L113.949 25.6236L114.177 25.3647L113.943 25.111L113.661 25.3705ZM111.383 26.9633L111.523 27.3197L111.528 27.3175L111.383 26.9633ZM108.221 27.1195C106.769 27.1195 105.508 26.8357 104.427 26.2798L104.077 26.9607C105.283 27.581 106.668 27.8853 108.221 27.8853V27.1195ZM104.429 26.2808C103.359 25.7224 102.538 24.9683 101.956 24.0187L101.303 24.4189C101.963 25.495 102.89 26.3419 104.075 26.9597L104.429 26.2808ZM101.958 24.0211C101.376 23.0567 101.082 21.9582 101.082 20.7147H100.316C100.316 22.085 100.642 23.3225 101.302 24.4166L101.958 24.0211ZM101.082 20.7147C101.082 19.4519 101.369 18.3533 101.934 17.4068L101.277 17.0144C100.633 18.0935 100.316 19.331 100.316 20.7147H101.082ZM101.933 17.4083C102.518 16.4381 103.309 15.6856 104.311 15.1463L103.948 14.472C102.826 15.0762 101.934 15.9247 101.277 17.0128L101.933 17.4083ZM104.315 15.1441C105.314 14.5906 106.45 14.3099 107.731 14.3099V13.5441C106.334 13.5441 105.068 13.8515 103.944 14.4742L104.315 15.1441ZM107.731 14.3099C108.965 14.3099 110.061 14.5748 111.029 15.0971L111.393 14.4232C110.302 13.8346 109.079 13.5441 107.731 13.5441V14.3099ZM111.036 15.1005C112.016 15.6058 112.787 16.3388 113.356 17.3065L114.016 16.9187C113.376 15.828 112.497 14.9926 111.386 14.4198L111.036 15.1005ZM113.357 17.3088C113.92 18.2512 114.21 19.3973 114.21 20.7637H114.975C114.975 19.2876 114.661 17.9996 114.015 16.9164L113.357 17.3088ZM114.21 20.7637C114.21 20.8973 114.202 21.0578 114.187 21.2465L114.95 21.3101C114.967 21.1068 114.975 20.9242 114.975 20.7637H114.21ZM114.187 21.2436C114.171 21.4223 114.154 21.5927 114.138 21.7548L114.9 21.831C114.917 21.6664 114.933 21.4937 114.949 21.313L114.187 21.2436ZM114.519 21.41H103.811V22.1758H114.519V21.41ZM104.194 21.7929V19.563H103.428V21.7929H104.194ZM103.811 19.9459H112.51V19.1801H103.811V19.9459ZM112.353 19.2138L110.882 19.8755L111.197 20.5738L112.667 19.9122L112.353 19.2138ZM111.422 20.2246C111.422 19.4862 111.273 18.8243 110.959 18.2517L110.287 18.6199C110.529 19.0602 110.657 19.5908 110.657 20.2246H111.422ZM110.959 18.2517C110.648 17.6846 110.214 17.2402 109.66 16.9265L109.282 17.5927C109.709 17.8344 110.043 18.1742 110.287 18.6199L110.959 18.2517ZM109.668 16.9313C109.11 16.5966 108.469 16.4356 107.756 16.4356V17.2014C108.35 17.2014 108.852 17.3344 109.274 17.5879L109.668 16.9313ZM107.756 16.4356C107.043 16.4356 106.395 16.5967 105.824 16.9285L106.208 17.5907C106.65 17.3344 107.162 17.2014 107.756 17.2014V16.4356ZM105.827 16.9265C105.271 17.242 104.836 17.697 104.526 18.2807L105.203 18.6399C105.448 18.1781 105.781 17.8326 106.205 17.5927L105.827 16.9265ZM104.529 18.2762C104.214 18.85 104.065 19.5206 104.065 20.2736H104.831C104.831 19.6217 104.959 19.0834 105.2 18.6444L104.529 18.2762ZM104.065 20.2736V20.8617H104.831V20.2736H104.065ZM104.065 20.8617C104.065 21.6373 104.233 22.3402 104.579 22.9598L105.248 22.5863C104.973 22.095 104.831 21.5238 104.831 20.8617H104.065ZM104.586 22.9715C104.95 23.5724 105.453 24.0375 106.086 24.3633L106.436 23.6823C105.926 23.4199 105.53 23.0519 105.241 22.5746L104.586 22.9715ZM106.098 24.369C106.746 24.6753 107.49 24.8222 108.32 24.8222V24.0565C107.58 24.0565 106.952 23.9257 106.425 23.6766L106.098 24.369ZM108.32 24.8222C109.06 24.8222 109.723 24.7104 110.301 24.4755L110.013 23.7661C109.546 23.9559 108.984 24.0565 108.32 24.0565V24.8222ZM110.298 24.477C110.886 24.2453 111.418 23.8984 111.893 23.4409L111.362 22.8893C110.955 23.2813 110.507 23.5716 110.017 23.7646L110.298 24.477ZM111.346 23.4247L113.38 25.6301L113.943 25.111L111.909 22.9056L111.346 23.4247ZM113.374 25.1174C112.812 25.7559 112.102 26.2539 111.237 26.6091L111.528 27.3175C112.493 26.9213 113.302 26.3574 113.949 25.6236L113.374 25.1174ZM111.243 26.6069C110.381 26.9455 109.376 27.1195 108.221 27.1195V27.8853C109.452 27.8853 110.555 27.6999 111.523 27.3197L111.243 26.6069ZM121.671 26.9633L121.531 27.3199L121.538 27.3222L121.671 26.9633ZM118.73 25.101L118.465 25.3771L118.73 25.101ZM116.77 22.283L116.418 22.4325L116.42 22.437L116.77 22.283ZM116.77 15.1767L116.419 15.0227L116.418 15.0272L116.77 15.1767ZM118.73 12.3587L118.468 12.0801L118.465 12.0826L118.73 12.3587ZM121.695 10.5209L121.83 10.8792L121.835 10.8775L121.695 10.5209ZM129.414 10.6434L129.261 10.9941L129.266 10.9966L129.414 10.6434ZM132.453 12.8978L132.713 13.1792L132.978 12.9343L132.749 12.6551L132.453 12.8978ZM129.904 15.2502L129.617 15.5029L129.876 15.7978L130.164 15.5316L129.904 15.2502ZM127.944 13.7555L127.779 14.1011L127.786 14.104L127.944 13.7555ZM121.646 14.7602L121.917 15.0309L121.646 14.7602ZM120.495 16.5L120.141 16.3533L120.138 16.3608L120.495 16.5ZM120.495 20.9597L120.138 21.099L120.141 21.1064L120.495 20.9597ZM121.646 22.6996L121.376 22.9703H121.376L121.646 22.6996ZM127.944 23.7287L128.102 24.0774L128.109 24.0743L127.944 23.7287ZM129.904 22.185L130.164 21.9036L129.872 21.6342L129.614 21.9358L129.904 22.185ZM132.453 24.5374L132.749 24.7801L132.978 24.5009L132.713 24.256L132.453 24.5374ZM129.414 26.8163L129.262 26.4648L129.261 26.4656L129.414 26.8163ZM125.371 27.2175C124.089 27.2175 122.902 27.012 121.804 26.6044L121.538 27.3222C122.727 27.7641 124.006 27.9833 125.371 27.9833V27.2175ZM121.81 26.6068C120.728 26.1831 119.791 25.5889 118.996 24.8249L118.465 25.3771C119.336 26.214 120.36 26.8614 121.531 27.3199L121.81 26.6068ZM118.996 24.8249C118.199 24.0598 117.575 23.1622 117.121 22.129L116.42 22.437C116.913 23.5602 117.595 24.5412 118.465 25.3771L118.996 24.8249ZM117.123 22.1334C116.687 21.1072 116.467 19.9743 116.467 18.7299H115.701C115.701 20.0665 115.938 21.3024 116.418 22.4325L117.123 22.1334ZM116.467 18.7299C116.467 17.4854 116.687 16.3525 117.123 15.3263L116.418 15.0272C115.938 16.1573 115.701 17.3932 115.701 18.7299H116.467ZM117.121 15.3307C117.575 14.2975 118.199 13.3999 118.996 12.6348L118.465 12.0826C117.595 12.9185 116.913 13.8995 116.42 15.0227L117.121 15.3307ZM118.993 12.6374C119.804 11.8727 120.749 11.2867 121.83 10.8792L121.56 10.1626C120.387 10.6046 119.355 11.2438 118.468 12.0801L118.993 12.6374ZM121.835 10.8775C122.913 10.4555 124.099 10.2422 125.396 10.2422V9.47641C124.013 9.47641 122.732 9.70411 121.556 10.1643L121.835 10.8775ZM125.396 10.2422C126.837 10.2422 128.123 10.4954 129.261 10.9941L129.568 10.2928C128.321 9.74595 126.928 9.47641 125.396 9.47641V10.2422ZM129.266 10.9966C130.419 11.4793 131.38 12.1932 132.157 13.1405L132.749 12.6551C131.892 11.6094 130.828 10.8204 129.562 10.2903L129.266 10.9966ZM132.193 12.6165L129.645 14.9689L130.164 15.5316L132.713 13.1792L132.193 12.6165ZM130.192 14.9976C129.573 14.2923 128.877 13.7588 128.102 13.4069L127.786 14.104C128.449 14.4056 129.06 14.8686 129.617 15.5029L130.192 14.9976ZM128.109 13.4099C127.335 13.0407 126.494 12.858 125.592 12.858V13.6238C126.388 13.6238 127.115 13.7842 127.779 14.101L128.109 13.4099ZM125.592 12.858C124.749 12.858 123.966 12.9957 123.247 13.2763L123.525 13.9896C124.146 13.7474 124.833 13.6238 125.592 13.6238V12.858ZM123.247 13.2763C122.53 13.5562 121.905 13.9605 121.376 14.4894L121.917 15.0309C122.368 14.5796 122.903 14.2325 123.525 13.9896L123.247 13.2763ZM121.376 14.4894C120.848 15.0167 120.437 15.6393 120.141 16.3533L120.848 16.6466C121.108 16.021 121.464 15.4838 121.917 15.0309L121.376 14.4894ZM120.138 16.3608C119.857 17.0805 119.72 17.8718 119.72 18.7299H120.486C120.486 17.9542 120.61 17.259 120.851 16.6392L120.138 16.3608ZM119.72 18.7299C119.72 19.5879 119.857 20.3792 120.138 21.0989L120.851 20.8206C120.61 20.2007 120.486 19.5055 120.486 18.7299H119.72ZM120.141 21.1064C120.437 21.8204 120.848 22.4431 121.376 22.9703L121.917 22.4288C121.464 21.9759 121.108 21.4387 120.848 20.8131L120.141 21.1064ZM121.376 22.9703C121.905 23.4992 122.53 23.9035 123.247 24.1834L123.525 23.4701C122.903 23.2272 122.368 22.8801 121.917 22.4288L121.376 22.9703ZM123.247 24.1834C123.966 24.464 124.749 24.6017 125.592 24.6017V23.8359C124.833 23.8359 124.146 23.7123 123.525 23.4701L123.247 24.1834ZM125.592 24.6017C126.492 24.6017 127.33 24.4283 128.102 24.0773L127.786 23.3802C127.12 23.6826 126.391 23.8359 125.592 23.8359V24.6017ZM128.109 24.0743C128.882 23.7053 129.577 23.1553 130.195 22.4341L129.614 21.9358C129.056 22.5868 128.444 23.066 127.779 23.3832L128.109 24.0743ZM129.645 22.4663L132.193 24.8187L132.713 24.256L130.164 21.9036L129.645 22.4663ZM132.157 24.2947C131.379 25.2429 130.416 25.9658 129.262 26.4648L129.566 27.1677C130.83 26.6213 131.893 25.8249 132.749 24.7801L132.157 24.2947ZM129.261 26.4656C128.123 26.9641 126.829 27.2175 125.371 27.2175V27.9833C126.919 27.9833 128.32 27.714 129.568 27.1669L129.261 26.4656ZM134.374 27.3064H133.991V27.6892H134.374V27.3064ZM134.374 9.12416V8.74127H133.991V9.12416H134.374ZM138.197 9.12416H138.579V8.74127H138.197V9.12416ZM138.197 27.3064V27.6892H138.579V27.3064H138.197ZM134.757 27.3064V9.12416H133.991V27.3064H134.757ZM134.374 9.50704H138.197V8.74127H134.374V9.50704ZM137.814 9.12416V27.3064H138.579V9.12416H137.814ZM138.197 26.9235H134.374V27.6892H138.197V26.9235ZM149.341 27.3064H148.958V27.6892H149.341V27.3064ZM149.341 24.7334H149.724V24.6538L149.692 24.5807L149.341 24.7334ZM149.096 24.1698H148.713V24.2494L148.745 24.3225L149.096 24.1698ZM148.336 17.6517L148.075 17.9316L148.079 17.9358L148.336 17.6517ZM143.974 17.3086L144.09 17.6736L144.095 17.6718L143.974 17.3086ZM142.259 18.1908L141.918 18.3657L142.131 18.7805L142.497 18.4907L142.259 18.1908ZM140.887 15.5198L140.666 15.2068L140.394 15.3986L140.546 15.6948L140.887 15.5198ZM143.484 14.3436L143.383 13.9743L143.484 14.3436ZM151.252 15.3483L151.501 15.0569L151.252 15.3483ZM152.918 27.3064V27.6892H153.301V27.3064H152.918ZM142.676 26.9878L142.507 27.3318L142.514 27.3348L142.676 26.9878ZM140.985 25.5421L141.306 25.3337L140.985 25.5421ZM140.96 21.4498L140.642 21.2374L140.638 21.2437L140.96 21.4498ZM142.798 20.0776L142.938 20.4341L142.944 20.4316L142.798 20.0776ZM149.561 19.563H149.944V19.1801H149.561V19.563ZM149.561 21.7929V22.1758H149.944V21.7929H149.561ZM144.611 22.234L144.362 21.9432L144.355 21.9494L144.611 22.234ZM144.685 24.5129L144.449 24.8144L144.456 24.82L144.464 24.8253L144.685 24.5129ZM147.993 24.4884L148.185 24.8196L148.193 24.8148L147.993 24.4884ZM149.096 23.1406L149.459 23.0196L149.123 22.013L148.739 23.0019L149.096 23.1406ZM149.684 24.9049L150.048 25.0239L150.087 24.9038L150.047 24.7839L149.684 24.9049ZM148.164 26.8408L147.967 26.5125L148.164 26.8408ZM149.724 27.3064V24.7334H148.958V27.3064H149.724ZM149.692 24.5807L149.447 24.0171L148.745 24.3225L148.99 24.8861L149.692 24.5807ZM149.479 24.1698V19.563H148.713V24.1698H149.479ZM149.479 19.563C149.479 18.6611 149.195 17.9118 148.593 17.3675L148.079 17.9358C148.49 18.3064 148.713 18.8313 148.713 19.563H149.479ZM148.597 17.3718C148.007 16.8204 147.133 16.5827 146.057 16.5827V17.3484C147.04 17.3484 147.685 17.5681 148.075 17.9316L148.597 17.3718ZM146.057 16.5827C145.312 16.5827 144.577 16.704 143.853 16.9454L144.095 17.6718C144.744 17.4557 145.397 17.3484 146.057 17.3484V16.5827ZM143.859 16.9436C143.151 17.1678 142.537 17.4819 142.021 17.8908L142.497 18.4907C142.929 18.1482 143.457 17.8741 144.09 17.6736L143.859 16.9436ZM142.6 18.0158L141.227 15.3448L140.546 15.6948L141.918 18.3657L142.6 18.0158ZM141.107 15.8328C141.784 15.3563 142.607 14.981 143.585 14.7128L143.383 13.9743C142.335 14.2615 141.427 14.6704 140.666 15.2068L141.107 15.8328ZM143.585 14.7128C144.565 14.4441 145.561 14.3099 146.572 14.3099V13.5441C145.492 13.5441 144.429 13.6876 143.383 13.9743L143.585 14.7128ZM146.572 14.3099C148.524 14.3099 149.984 14.7701 151.004 15.6396L151.501 15.0569C150.298 14.0314 148.638 13.5441 146.572 13.5441V14.3099ZM151.004 15.6396C152 16.4898 152.535 17.8421 152.535 19.7835H153.301C153.301 17.7063 152.725 16.1017 151.501 15.0569L151.004 15.6396ZM152.535 19.7835V27.3064H153.301V19.7835H152.535ZM152.918 26.9235H149.341V27.6892H152.918V26.9235ZM145.322 27.1195C144.334 27.1195 143.51 26.9548 142.837 26.6409L142.514 27.3348C143.311 27.707 144.251 27.8853 145.322 27.8853V27.1195ZM142.844 26.6438C142.162 26.3107 141.655 25.8723 141.306 25.3337L140.664 25.7504C141.098 26.4207 141.719 26.9461 142.507 27.3318L142.844 26.6438ZM141.306 25.3337C140.956 24.7941 140.78 24.1891 140.78 23.5082H140.014C140.014 24.3303 140.229 25.0812 140.664 25.7504L141.306 25.3337ZM140.78 23.5082C140.78 22.7878 140.951 22.1751 141.283 21.656L140.638 21.2437C140.218 21.9008 140.014 22.6603 140.014 23.5082H140.78ZM141.279 21.6622C141.617 21.1548 142.158 20.7398 142.938 20.434L142.658 19.7211C141.772 20.0688 141.087 20.5687 140.642 21.2374L141.279 21.6622ZM142.944 20.4316C143.714 20.1145 144.745 19.9459 146.057 19.9459V19.1801C144.69 19.1801 143.548 19.3545 142.652 19.7235L142.944 20.4316ZM146.057 19.9459H149.561V19.1801H146.057V19.9459ZM149.178 19.563V21.7929H149.944V19.563H149.178ZM149.561 21.41H146.474V22.1758H149.561V21.41ZM146.474 21.41C145.561 21.41 144.817 21.5538 144.362 21.9433L144.861 22.5247C145.092 22.326 145.59 22.1758 146.474 22.1758V21.41ZM144.355 21.9494C143.948 22.3163 143.738 22.7875 143.738 23.3367H144.504C144.504 23.0037 144.622 22.7397 144.868 22.5186L144.355 21.9494ZM143.738 23.3367C143.738 23.9408 143.978 24.4455 144.449 24.8144L144.921 24.2114C144.641 23.9921 144.504 23.7127 144.504 23.3367H143.738ZM144.464 24.8253C144.941 25.1637 145.559 25.3123 146.278 25.3123V24.5466C145.657 24.5466 145.213 24.4175 144.906 24.2004L144.464 24.8253ZM146.278 25.3123C146.976 25.3123 147.615 25.1504 148.185 24.8195L147.801 24.1573C147.358 24.4145 146.853 24.5466 146.278 24.5466V25.3123ZM148.193 24.8148C148.775 24.4579 149.195 23.9403 149.452 23.2794L148.739 23.0019C148.538 23.5171 148.223 23.8981 147.793 24.1619L148.193 24.8148ZM148.732 23.2617L149.321 25.026L150.047 24.7839L149.459 23.0196L148.732 23.2617ZM149.32 24.786C149.069 25.5519 148.62 26.121 147.967 26.5125L148.361 27.1691C149.179 26.6785 149.743 25.9569 150.048 25.0239L149.32 24.786ZM147.967 26.5125C147.309 26.9074 146.436 27.1195 145.322 27.1195V27.8853C146.528 27.8853 147.549 27.6563 148.361 27.1691L147.967 26.5125ZM157.554 27.1103L157.454 27.4801L157.461 27.4818L157.554 27.1103ZM155.104 26.0812L154.757 25.9199L154.619 26.2158L154.889 26.3984L155.104 26.0812ZM156.378 23.3367L156.58 23.0115L156.213 22.7832L156.031 23.1754L156.378 23.3367ZM158.51 24.2678L158.4 24.6347L158.409 24.6371L158.51 24.2678ZM162.823 24.2923L162.634 23.959L162.628 23.9627L162.823 24.2923ZM162.945 22.7241L162.751 23.0541L162.762 23.0607L162.774 23.0665L162.945 22.7241ZM161.818 22.3565L161.753 22.7338L161.818 22.3565ZM160.25 22.1114L160.194 22.4903L160.196 22.4905L160.25 22.1114ZM158.559 21.7929L158.464 22.1638L158.474 22.1661L158.559 21.7929ZM156.991 21.1558L157.184 20.8255L156.991 21.1558ZM155.839 20.0286L155.509 20.2223L155.514 20.2305L155.839 20.0286ZM156.133 15.9854L155.829 15.7519L155.826 15.7569L156.133 15.9854ZM158.24 14.4906L158.38 14.847L158.386 14.8448L158.24 14.4906ZM164.268 14.2211L164.347 13.8464L164.268 14.2211ZM166.596 15.0787L166.943 15.2411L167.089 14.9294L166.795 14.7512L166.596 15.0787ZM165.322 17.7987L165.128 18.1285L165.49 18.3423L165.669 17.9611L165.322 17.7987ZM163.386 17.0391L163.3 17.4123L163.311 17.4145L163.386 17.0391ZM159.662 17.1616L159.469 16.8309L159.662 17.1616ZM159.49 18.7789L159.296 19.109L159.304 19.1136L159.49 18.7789ZM162.186 19.4405L162.13 19.8195L162.142 19.8209L162.186 19.4405ZM163.901 19.759L163.996 19.3882L163.901 19.759ZM165.445 20.3961L165.246 20.7234L165.253 20.7276L165.26 20.7314L165.445 20.3961ZM166.596 21.4988L166.271 21.7008L166.274 21.7059L166.596 21.4988ZM166.302 25.493L166.603 25.7303L166.606 25.7265L166.302 25.493ZM164.17 26.9633L164.033 26.6061L164.03 26.6069L164.17 26.9633ZM160.813 27.1195C159.716 27.1195 158.661 26.9923 157.647 26.7389L157.461 27.4818C158.539 27.7511 159.656 27.8853 160.813 27.8853V27.1195ZM157.654 26.7407C156.649 26.4694 155.875 26.1404 155.318 25.7639L154.889 26.3984C155.541 26.8387 156.402 27.1959 157.454 27.48L157.654 26.7407ZM155.451 26.2424L156.725 23.4979L156.031 23.1754L154.757 25.9199L155.451 26.2424ZM156.176 23.6618C156.814 24.0586 157.557 24.3817 158.4 24.6346L158.62 23.9011C157.829 23.6639 157.151 23.3662 156.58 23.0115L156.176 23.6618ZM158.409 24.6371C159.272 24.8741 160.123 24.9938 160.96 24.9938V24.228C160.197 24.228 159.414 24.119 158.611 23.8986L158.409 24.6371ZM160.96 24.9938C161.85 24.9938 162.563 24.8907 163.017 24.622L162.628 23.9627C162.364 24.1187 161.835 24.228 160.96 24.228V24.9938ZM163.011 24.6257C163.486 24.3575 163.769 23.947 163.769 23.4102H163.003C163.003 23.6248 162.911 23.8024 162.634 23.959L163.011 24.6257ZM163.769 23.4102C163.769 23.1922 163.717 22.9833 163.598 22.7988C163.48 22.6156 163.312 22.4794 163.116 22.3816L162.774 23.0665C162.872 23.1157 162.925 23.1674 162.954 23.2129C162.982 23.2571 163.003 23.3177 163.003 23.4102H163.769ZM163.139 22.394C162.807 22.1987 162.382 22.0652 161.883 21.9792L161.753 22.7338C162.201 22.8111 162.528 22.9227 162.751 23.0541L163.139 22.394ZM161.883 21.9792C161.405 21.8968 160.879 21.8145 160.304 21.7324L160.196 22.4905C160.764 22.5717 161.283 22.6529 161.753 22.7338L161.883 21.9792ZM160.305 21.7326C159.76 21.6525 159.207 21.5482 158.644 21.4196L158.474 22.1661C159.055 22.299 159.628 22.407 160.194 22.4903L160.305 21.7326ZM158.654 21.4221C158.114 21.2833 157.625 21.0839 157.184 20.8255L156.797 21.4861C157.304 21.7831 157.86 22.0085 158.464 22.1637L158.654 21.4221ZM157.184 20.8255C156.765 20.5797 156.426 20.2484 156.164 19.8267L155.514 20.2305C155.84 20.7563 156.269 21.1764 156.797 21.4861L157.184 20.8255ZM156.169 19.835C155.936 19.4377 155.805 18.8982 155.805 18.1908H155.039C155.039 18.9862 155.186 19.672 155.509 20.2222L156.169 19.835ZM155.805 18.1908C155.805 17.4356 156.018 16.7815 156.44 16.2138L155.826 15.7569C155.3 16.4635 155.039 17.2796 155.039 18.1908H155.805ZM156.436 16.2188C156.876 15.6478 157.516 15.1866 158.38 14.847L158.1 14.1342C157.135 14.5134 156.37 15.0487 155.83 15.7519L156.436 16.2188ZM158.386 14.8448C159.243 14.4926 160.286 14.3099 161.524 14.3099V13.5441C160.214 13.5441 159.067 13.7371 158.095 14.1364L158.386 14.8448ZM161.524 14.3099C162.394 14.3099 163.283 14.4048 164.19 14.5957L164.347 13.8464C163.392 13.6452 162.45 13.5441 161.524 13.5441V14.3099ZM164.19 14.5957C165.091 14.7855 165.824 15.0586 166.398 15.4063L166.795 14.7512C166.128 14.3474 165.308 14.0487 164.347 13.8464L164.19 14.5957ZM166.25 14.9163L164.975 17.6363L165.669 17.9611L166.943 15.2411L166.25 14.9163ZM165.517 17.4689C164.847 17.0737 164.161 16.8036 163.461 16.6636L163.311 17.4145C163.918 17.5359 164.523 17.7722 165.128 18.1285L165.517 17.4689ZM163.472 16.666C162.809 16.513 162.16 16.4356 161.524 16.4356V17.2014C162.097 17.2014 162.689 17.2711 163.3 17.4121L163.472 16.666ZM161.524 16.4356C160.656 16.4356 159.951 16.5495 159.469 16.8309L159.855 17.4923C160.156 17.3162 160.692 17.2014 161.524 17.2014V16.4356ZM159.469 16.8309C158.995 17.1073 158.691 17.5112 158.691 18.0437H159.456C159.456 17.8574 159.544 17.6733 159.855 17.4923L159.469 16.8309ZM158.691 18.0437C158.691 18.5038 158.899 18.8755 159.296 19.1089L159.684 18.4488C159.525 18.3555 159.456 18.2371 159.456 18.0437H158.691ZM159.304 19.1136C159.643 19.302 160.068 19.4431 160.564 19.5459L160.719 18.796C160.268 18.7027 159.925 18.5824 159.676 18.4442L159.304 19.1136ZM160.564 19.5459C161.046 19.6456 161.568 19.7367 162.13 19.8193L162.241 19.0617C161.692 18.9809 161.185 18.8923 160.719 18.796L160.564 19.5459ZM162.142 19.8209C162.696 19.8842 163.25 19.9871 163.806 20.1299L163.996 19.3882C163.408 19.2369 162.819 19.1275 162.229 19.0601L162.142 19.8209ZM163.806 20.1299C164.345 20.2685 164.824 20.4671 165.246 20.7234L165.643 20.0689C165.151 19.7697 164.601 19.5436 163.996 19.3882L163.806 20.1299ZM165.26 20.7314C165.674 20.9601 166.01 21.281 166.271 21.7008L166.922 21.2969C166.594 20.7692 166.163 20.355 165.63 20.0609L165.26 20.7314ZM166.274 21.7059C166.516 22.0822 166.655 22.6071 166.655 23.3122H167.42C167.42 22.5143 167.265 21.8303 166.918 21.2918L166.274 21.7059ZM166.655 23.3122C166.655 24.046 166.437 24.6906 165.999 25.2596L166.606 25.7265C167.148 25.0213 167.42 24.2119 167.42 23.3122H166.655ZM166.002 25.2558C165.564 25.8103 164.916 26.265 164.033 26.6061L164.308 27.3205C165.287 26.9428 166.06 26.4173 166.603 25.7303L166.002 25.2558ZM164.03 26.6069C163.173 26.9439 162.104 27.1195 160.813 27.1195V27.8853C162.169 27.8853 163.338 27.7015 164.31 27.3197L164.03 26.6069ZM179.467 14.5641L179.291 14.9039L179.299 14.9079L179.467 14.5641ZM181.428 16.4755L181.092 16.6592L181.093 16.6619L181.428 16.4755ZM182.138 27.3064V27.6892H182.521V27.3064H182.138ZM178.316 27.3064H177.933V27.6892H178.316V27.3064ZM177.605 17.9947L177.321 18.2514L177.325 18.2563L177.605 17.9947ZM174.003 17.6272L174.179 17.9673L174.183 17.965L174.003 17.6272ZM172.876 18.7789L172.537 18.5992L172.533 18.6076L172.876 18.7789ZM172.484 27.3064V27.6892H172.866V27.3064H172.484ZM168.661 27.3064H168.278V27.6892H168.661V27.3064ZM168.661 9.12416V8.74127H168.278V9.12416H168.661ZM172.484 9.12416H172.866V8.74127H172.484V9.12416ZM172.484 17.7742L172.181 18.0092L172.866 18.8901V17.7742H172.484ZM171.626 16.6715L171.289 16.4903L171.171 16.7099L171.324 16.9066L171.626 16.6715ZM173.66 14.6376L173.841 14.9749L173.66 14.6376ZM176.674 14.3099C177.666 14.3099 178.535 14.5111 179.291 14.9038L179.644 14.2244C178.766 13.7677 177.772 13.5441 176.674 13.5441V14.3099ZM179.299 14.9079C180.056 15.2793 180.653 15.8581 181.092 16.6592L181.763 16.2917C181.254 15.3612 180.545 14.6658 179.636 14.2203L179.299 14.9079ZM181.093 16.6619C181.525 17.4369 181.755 18.4613 181.755 19.759H182.521C182.521 18.3777 182.277 17.2129 181.762 16.289L181.093 16.6619ZM181.755 19.759V27.3064H182.521V19.759H181.755ZM182.138 26.9235H178.316V27.6892H182.138V26.9235ZM178.698 27.3064V20.3471H177.933V27.3064H178.698ZM178.698 20.3471C178.698 19.2382 178.452 18.3401 177.885 17.7332L177.325 18.2563C177.705 18.6621 177.933 19.3323 177.933 20.3471H178.698ZM177.889 17.7381C177.342 17.1323 176.574 16.8522 175.645 16.8522V17.618C176.414 17.618 176.953 17.8443 177.321 18.2514L177.889 17.7381ZM175.645 16.8522C174.983 16.8522 174.373 16.9958 173.823 17.2893L174.183 17.965C174.613 17.7357 175.097 17.618 175.645 17.618V16.8522ZM173.827 17.2871C173.276 17.5718 172.847 18.0156 172.537 18.5992L173.214 18.9585C173.459 18.4966 173.782 18.1726 174.179 17.9672L173.827 17.2871ZM172.533 18.6076C172.237 19.2004 172.101 19.9342 172.101 20.7882H172.866C172.866 20.0086 172.992 19.4029 173.218 18.9501L172.533 18.6076ZM172.101 20.7882V27.3064H172.866V20.7882H172.101ZM172.484 26.9235H168.661V27.6892H172.484V26.9235ZM169.044 27.3064V9.12416H168.278V27.3064H169.044ZM168.661 9.50704H172.484V8.74127H168.661V9.50704ZM172.101 9.12416V17.7742H172.866V9.12416H172.101ZM172.786 17.5391L171.928 16.4364L171.324 16.9066L172.181 18.0092L172.786 17.5391ZM171.963 16.8526C172.401 16.0367 173.025 15.4131 173.841 14.9749L173.479 14.3003C172.53 14.8096 171.798 15.5419 171.289 16.4903L171.963 16.8526ZM173.841 14.9749C174.661 14.5347 175.602 14.3099 176.674 14.3099V13.5441C175.491 13.5441 174.423 13.7931 173.479 14.3003L173.841 14.9749Z" fill="#2A3034" mask="url(#path-6-outside-1_361_188)"/>
</svg>
