<svg width="23" height="23" viewBox="0 0 23 23" fill="none" xmlns="http://www.w3.org/2000/svg">
<path d="M20.2124 0.722412H6.13639C3.15119 0.722412 0.722534 3.15107 0.722534 6.13627V16.964C0.722534 19.9492 3.15119 22.3779 6.13639 22.3779H19.1297C20.9206 22.3779 22.378 20.9204 22.378 19.1295C22.378 17.3386 20.9206 15.8812 19.1297 15.8812H5.05362V18.0468H19.1297C19.4168 18.0468 19.6922 18.1608 19.8953 18.3639C20.0984 18.567 20.2124 18.8424 20.2124 19.1295C20.2124 19.4167 20.0984 19.6921 19.8953 19.8952C19.6922 20.0982 19.4168 20.2123 19.1297 20.2123H6.13639C4.34549 20.2123 2.88808 18.7549 2.88808 16.964C2.88808 15.1731 4.34549 13.7157 6.13639 13.7157H20.2124C21.4067 13.7157 22.378 12.7444 22.378 11.5501V2.88796C22.378 1.69366 21.4067 0.722412 20.2124 0.722412ZM2.88808 12.6329H2.89133L2.88808 12.6351V12.6329Z" fill="#FFC80B"/>
</svg>
